<svg id="SvgjsSvg1006" width="818" height="656" xmlns="http://www.w3.org/2000/svg" version="1.1" xmlns:xlink="http://www.w3.org/1999/xlink" xmlns:svgjs="http://svgjs.com/svgjs"><defs id="SvgjsDefs1007"><marker id="SvgjsMarker1062" markerWidth="16" markerHeight="12" refX="16" refY="6" viewBox="0 0 16 12" orient="auto" markerUnits="userSpaceOnUse" stroke-dasharray="0,0"><path id="SvgjsPath1063" d="M0,2 L14,6 L0,11 L0,2" fill="#323232" stroke="#323232" stroke-width="2"></path></marker><marker id="SvgjsMarker1066" markerWidth="16" markerHeight="12" refX="16" refY="6" viewBox="0 0 16 12" orient="auto" markerUnits="userSpaceOnUse" stroke-dasharray="0,0"><path id="SvgjsPath1067" d="M0,2 L14,6 L0,11 L0,2" fill="#323232" stroke="#323232" stroke-width="2"></path></marker><marker id="SvgjsMarker1070" markerWidth="16" markerHeight="12" refX="16" refY="6" viewBox="0 0 16 12" orient="auto" markerUnits="userSpaceOnUse" stroke-dasharray="0,0"><path id="SvgjsPath1071" d="M0,2 L14,6 L0,11 L0,2" fill="#323232" stroke="#323232" stroke-width="2"></path></marker><marker id="SvgjsMarker1092" markerWidth="16" markerHeight="12" refX="16" refY="6" viewBox="0 0 16 12" orient="auto" markerUnits="userSpaceOnUse" stroke-dasharray="0,0"><path id="SvgjsPath1093" d="M0,2 L14,6 L0,11 L0,2" fill="#323232" stroke="#323232" stroke-width="2"></path></marker><marker id="SvgjsMarker1096" markerWidth="16" markerHeight="12" refX="16" refY="6" viewBox="0 0 16 12" orient="auto" markerUnits="userSpaceOnUse" stroke-dasharray="0,0"><path id="SvgjsPath1097" d="M0,2 L14,6 L0,11 L0,2" fill="#323232" stroke="#323232" stroke-width="2"></path></marker><marker id="SvgjsMarker1100" markerWidth="16" markerHeight="12" refX="16" refY="6" viewBox="0 0 16 12" orient="auto" markerUnits="userSpaceOnUse" stroke-dasharray="0,0"><path id="SvgjsPath1101" d="M0,2 L14,6 L0,11 L0,2" fill="#323232" stroke="#323232" stroke-width="2"></path></marker><marker id="SvgjsMarker1122" markerWidth="16" markerHeight="12" refX="0" refY="6" viewBox="0 0 16 12" orient="auto" markerUnits="userSpaceOnUse" stroke-dasharray="0,0"><path id="SvgjsPath1123" d="M10,3 L0,6 L10,9" fill="#000000" stroke="#000000" stroke-width="1"></path></marker><marker id="SvgjsMarker1124" markerWidth="16" markerHeight="12" refX="10" refY="6" viewBox="0 0 16 12" orient="auto" markerUnits="userSpaceOnUse" stroke-dasharray="0,0"><path id="SvgjsPath1125" d="M0,3 L10,6 L0,9 L0,3" fill="#000000" stroke="#000000" stroke-width="1"></path></marker><marker id="SvgjsMarker1128" markerWidth="16" markerHeight="12" refX="0" refY="6" viewBox="0 0 16 12" orient="auto" markerUnits="userSpaceOnUse" stroke-dasharray="0,0"><path id="SvgjsPath1129" d="M10,3 L0,6 L10,9" fill="#323232" stroke="#323232" stroke-width="1"></path></marker><marker id="SvgjsMarker1130" markerWidth="16" markerHeight="12" refX="10" refY="6" viewBox="0 0 16 12" orient="auto" markerUnits="userSpaceOnUse" stroke-dasharray="0,0"><path id="SvgjsPath1131" d="M0,3 L10,6 L0,9 L0,3" fill="#323232" stroke="#323232" stroke-width="1"></path></marker><marker id="SvgjsMarker1134" markerWidth="16" markerHeight="12" refX="0" refY="6" viewBox="0 0 16 12" orient="auto" markerUnits="userSpaceOnUse" stroke-dasharray="0,0"><path id="SvgjsPath1135" d="M10,3 L0,6 L10,9" fill="#323232" stroke="#323232" stroke-width="1"></path></marker><marker id="SvgjsMarker1136" markerWidth="16" markerHeight="12" refX="10" refY="6" viewBox="0 0 16 12" orient="auto" markerUnits="userSpaceOnUse" stroke-dasharray="0,0"><path id="SvgjsPath1137" d="M0,3 L10,6 L0,9 L0,3" fill="#323232" stroke="#323232" stroke-width="1"></path></marker></defs><g id="SvgjsG1008" transform="translate(157,50)"><path id="SvgjsPath1009" d="M 0 4Q 0 0 4 0L 632 0Q 636 0 636 4L 636 577Q 636 581 632 581L 4 581Q 0 581 0 577Z" stroke="rgba(102,178,255,1)" stroke-width="2" fill-opacity="1" fill="#99ccff"></path><g id="SvgjsG1010"><text id="SvgjsText1011" font-family="微软雅黑" text-anchor="middle" font-size="13px" width="616px" fill="#3399ff" font-weight="400" align="middle" anchor="middle" family="微软雅黑" size="13px" weight="400" font-style="" opacity="1" y="280.55" transform="rotate(0)"></text></g></g><g id="SvgjsG1012" transform="translate(308,562)"><path id="SvgjsPath1013" d="M 0 0L 120 0L 120 40L 0 40Z" stroke="none" fill="none"></path><g id="SvgjsG1014"><text id="SvgjsText1015" font-family="微软雅黑" text-anchor="middle" font-size="26px" width="120px" fill="#323232" font-weight="400" align="middle" anchor="middle" family="微软雅黑" size="26px" weight="400" font-style="" opacity="1" y="-2.4" transform="rotate(0)"><tspan id="SvgjsTspan1016" dy="32" x="60"><tspan id="SvgjsTspan1017" style="text-decoration:;">Server</tspan></tspan></text></g></g><g id="SvgjsG1018" transform="translate(357,232)"><path id="SvgjsPath1019" d="M 0 4Q 0 0 4 0L 155 0Q 159 0 159 4L 159 163Q 159 167 155 167L 4 167Q 0 167 0 163Z" stroke="rgba(102,255,102,1)" stroke-width="2" fill-opacity="1" fill="#33ff33"></path><g id="SvgjsG1020"><text id="SvgjsText1021" font-family="微软雅黑" text-anchor="middle" font-size="13px" width="139px" fill="#323232" font-weight="400" align="middle" anchor="middle" family="微软雅黑" size="13px" weight="400" font-style="" opacity="1" y="73.55" transform="rotate(0)"><tspan id="SvgjsTspan1022" dy="16" x="79.5"><tspan id="SvgjsTspan1023" style="text-decoration:;">Acceptor</tspan></tspan></text></g></g><g id="SvgjsG1024" transform="translate(627,109)"><path id="SvgjsPath1025" d="M 0 0L 100 0L 100 70L 0 70Z" stroke="rgba(255,51,51,1)" stroke-width="2" fill-opacity="1" fill="#ff6666"></path><g id="SvgjsG1026"><text id="SvgjsText1027" font-family="微软雅黑" text-anchor="middle" font-size="13px" width="80px" fill="#323232" font-weight="400" align="middle" anchor="middle" family="微软雅黑" size="13px" weight="400" font-style="" opacity="1" y="25.05" transform="rotate(0)"><tspan id="SvgjsTspan1028" dy="16" x="50"><tspan id="SvgjsTspan1029" style="text-decoration:;">Thread 0</tspan></tspan></text></g></g><g id="SvgjsG1030" transform="translate(627,281)"><path id="SvgjsPath1031" d="M 0 0L 100 0L 100 70L 0 70Z" stroke="rgba(255,51,51,1)" stroke-width="2" fill-opacity="1" fill="#ff6666"></path><g id="SvgjsG1032"><text id="SvgjsText1033" font-family="微软雅黑" text-anchor="middle" font-size="13px" width="80px" fill="#323232" font-weight="400" align="middle" anchor="middle" family="微软雅黑" size="13px" weight="400" font-style="" opacity="1" y="25.05" transform="rotate(0)"><tspan id="SvgjsTspan1034" dy="16" x="50"><tspan id="SvgjsTspan1035" style="text-decoration:;">Thread 1</tspan></tspan></text></g></g><g id="SvgjsG1036" transform="translate(627,452)"><path id="SvgjsPath1037" d="M 0 0L 100 0L 100 70L 0 70Z" stroke="rgba(255,51,51,1)" stroke-width="2" fill-opacity="1" fill="#ff6666"></path><g id="SvgjsG1038"><text id="SvgjsText1039" font-family="微软雅黑" text-anchor="middle" font-size="13px" width="80px" fill="#323232" font-weight="400" align="middle" anchor="middle" family="微软雅黑" size="13px" weight="400" font-style="" opacity="1" y="25.05" transform="rotate(0)"><tspan id="SvgjsTspan1040" dy="16" x="50"><tspan id="SvgjsTspan1041" style="text-decoration:;">Thread 2</tspan></tspan></text></g></g><g id="SvgjsG1042" transform="translate(25,109)"><path id="SvgjsPath1043" d="M 0 0L 100 0L 100 70L 0 70Z" stroke="rgba(255,51,51,1)" stroke-width="2" fill-opacity="1" fill="#ff6666"></path><g id="SvgjsG1044"><text id="SvgjsText1045" font-family="微软雅黑" text-anchor="middle" font-size="13px" width="80px" fill="#323232" font-weight="400" align="middle" anchor="middle" family="微软雅黑" size="13px" weight="400" font-style="" opacity="1" y="25.05" transform="rotate(0)"><tspan id="SvgjsTspan1046" dy="16" x="50"><tspan id="SvgjsTspan1047" style="text-decoration:;">Client 0</tspan></tspan></text></g></g><g id="SvgjsG1048" transform="translate(25,281)"><path id="SvgjsPath1049" d="M 0 0L 100 0L 100 70L 0 70Z" stroke="rgba(255,51,51,1)" stroke-width="2" fill-opacity="1" fill="#ff6666"></path><g id="SvgjsG1050"><text id="SvgjsText1051" font-family="微软雅黑" text-anchor="middle" font-size="13px" width="80px" fill="#323232" font-weight="400" align="middle" anchor="middle" family="微软雅黑" size="13px" weight="400" font-style="" opacity="1" y="25.05" transform="rotate(0)"><tspan id="SvgjsTspan1052" dy="16" x="50"><tspan id="SvgjsTspan1053" style="text-decoration:;">Client 1</tspan></tspan></text></g></g><g id="SvgjsG1054" transform="translate(25,452)"><path id="SvgjsPath1055" d="M 0 0L 100 0L 100 70L 0 70Z" stroke="rgba(255,51,51,1)" stroke-width="2" fill-opacity="1" fill="#ff6666"></path><g id="SvgjsG1056"><text id="SvgjsText1057" font-family="微软雅黑" text-anchor="middle" font-size="13px" width="80px" fill="#323232" font-weight="400" align="middle" anchor="middle" family="微软雅黑" size="13px" weight="400" font-style="" opacity="1" y="25.05" transform="rotate(0)"><tspan id="SvgjsTspan1058" dy="16" x="50"><tspan id="SvgjsTspan1059" style="text-decoration:;">Client 2</tspan></tspan></text></g></g><g id="SvgjsG1060"><path id="SvgjsPath1061" d="M125 144C 241.36099002672677 139.99999999999997 240.63900997327323 315.5 357 315.5" stroke="#323232" stroke-width="2" fill="none" marker-end="url(#SvgjsMarker1062)"></path></g><g id="SvgjsG1064"><path id="SvgjsPath1065" d="M125 316C 217.8 315.5 264.2 315.5 357 315.5" stroke="#323232" stroke-width="2" fill="none" marker-end="url(#SvgjsMarker1066)"></path></g><g id="SvgjsG1068"><path id="SvgjsPath1069" d="M125 487C 240.4027729302897 487 241.5972270697103 315.5 357 315.5" stroke="#323232" stroke-width="2" fill="none" marker-end="url(#SvgjsMarker1070)"></path></g><g id="SvgjsG1072" transform="translate(209,187.5)"><path id="SvgjsPath1073" d="M 0 0L 52 0L 52 31L 0 31Z" stroke="rgba(51,255,255,1)" stroke-width="2" fill-opacity="1" fill="#33ffff"></path><g id="SvgjsG1074"><text id="SvgjsText1075" font-family="微软雅黑" text-anchor="middle" font-size="13px" width="32px" fill="#323232" font-weight="400" align="middle" anchor="middle" family="微软雅黑" size="13px" weight="400" font-style="" opacity="1" y="5.55" transform="rotate(0)"><tspan id="SvgjsTspan1076" dy="16" x="26"><tspan id="SvgjsTspan1077" style="text-decoration:;">链接</tspan></tspan></text></g></g><g id="SvgjsG1078" transform="translate(209,300)"><path id="SvgjsPath1079" d="M 0 0L 52 0L 52 31L 0 31Z" stroke="rgba(51,255,255,1)" stroke-width="2" fill-opacity="1" fill="#33ffff"></path><g id="SvgjsG1080"><text id="SvgjsText1081" font-family="微软雅黑" text-anchor="middle" font-size="13px" width="32px" fill="#323232" font-weight="400" align="middle" anchor="middle" family="微软雅黑" size="13px" weight="400" font-style="" opacity="1" y="5.55" transform="rotate(0)"><tspan id="SvgjsTspan1082" dy="16" x="26"><tspan id="SvgjsTspan1083" style="text-decoration:;">链接</tspan></tspan></text></g></g><g id="SvgjsG1084" transform="translate(209,391)"><path id="SvgjsPath1085" d="M 0 0L 52 0L 52 31L 0 31Z" stroke="rgba(51,255,255,1)" stroke-width="2" fill-opacity="1" fill="#33ffff"></path><g id="SvgjsG1086"><text id="SvgjsText1087" font-family="微软雅黑" text-anchor="middle" font-size="13px" width="32px" fill="#323232" font-weight="400" align="middle" anchor="middle" family="微软雅黑" size="13px" weight="400" font-style="" opacity="1" y="5.55" transform="rotate(0)"><tspan id="SvgjsTspan1088" dy="16" x="26"><tspan id="SvgjsTspan1089" style="text-decoration:;">链接</tspan></tspan></text></g></g><g id="SvgjsG1090"><path id="SvgjsPath1091" d="M516 315.5C 595.9372253709122 315.5 545.0627746290878 148 627 144" stroke="#323232" stroke-width="2" fill="none" marker-end="url(#SvgjsMarker1092)"></path></g><g id="SvgjsG1094"><path id="SvgjsPath1095" d="M516 315.5C 560.8 315.5 583.2 315.5 627 316" stroke="#323232" stroke-width="2" fill="none" marker-end="url(#SvgjsMarker1096)"></path></g><g id="SvgjsG1098"><path id="SvgjsPath1099" d="M516 315.5C 597.9328993750373 315.5 546.0671006249627 487 627 487" stroke="#323232" stroke-width="2" fill="none" marker-end="url(#SvgjsMarker1100)"></path></g><g id="SvgjsG1102" transform="translate(554,404)"><path id="SvgjsPath1103" d="M 0 0L 52 0L 52 31L 0 31Z" stroke="rgba(51,255,255,1)" stroke-width="2" fill-opacity="1" fill="#33ffff"></path><g id="SvgjsG1104"><text id="SvgjsText1105" font-family="微软雅黑" text-anchor="middle" font-size="13px" width="32px" fill="#323232" font-weight="400" align="middle" anchor="middle" family="微软雅黑" size="13px" weight="400" font-style="" opacity="1" y="5.55" transform="rotate(0)"><tspan id="SvgjsTspan1106" dy="16" x="26"><tspan id="SvgjsTspan1107" style="text-decoration:;">分配</tspan></tspan></text></g></g><g id="SvgjsG1108" transform="translate(554,300)"><path id="SvgjsPath1109" d="M 0 0L 52 0L 52 31L 0 31Z" stroke="rgba(51,255,255,1)" stroke-width="2" fill-opacity="1" fill="#33ffff"></path><g id="SvgjsG1110"><text id="SvgjsText1111" font-family="微软雅黑" text-anchor="middle" font-size="13px" width="32px" fill="#323232" font-weight="400" align="middle" anchor="middle" family="微软雅黑" size="13px" weight="400" font-style="" opacity="1" y="5.55" transform="rotate(0)"><tspan id="SvgjsTspan1112" dy="16" x="26"><tspan id="SvgjsTspan1113" style="text-decoration:;">分配</tspan></tspan></text></g></g><g id="SvgjsG1114" transform="translate(554,187.5)"><path id="SvgjsPath1115" d="M 0 0L 52 0L 52 31L 0 31Z" stroke="rgba(51,255,255,1)" stroke-width="2" fill-opacity="1" fill="#33ffff"></path><g id="SvgjsG1116"><text id="SvgjsText1117" font-family="微软雅黑" text-anchor="middle" font-size="13px" width="32px" fill="#323232" font-weight="400" align="middle" anchor="middle" family="微软雅黑" size="13px" weight="400" font-style="" opacity="1" y="5.55" transform="rotate(0)"><tspan id="SvgjsTspan1118" dy="16" x="26"><tspan id="SvgjsTspan1119" style="text-decoration:;">分配</tspan></tspan></text></g></g><g id="SvgjsG1120"><path id="SvgjsPath1121" d="M627 144C 450 41 307 25 125 144" stroke-dasharray="3,3" stroke="#000000" stroke-width="1" fill="none" marker-start="url(#SvgjsMarker1122)" marker-end="url(#SvgjsMarker1124)"></path></g><g id="SvgjsG1126"><path id="SvgjsPath1127" d="M125 487C 318 562 489 535 627 487" stroke-dasharray="3,3" stroke="#323232" stroke-width="1" fill="none" marker-start="url(#SvgjsMarker1128)" marker-end="url(#SvgjsMarker1130)"></path></g><g id="SvgjsG1132"><path id="SvgjsPath1133" d="M125 316C 341 426 605 380 627 316" stroke-dasharray="3,3" stroke="#323232" stroke-width="1" fill="none" marker-start="url(#SvgjsMarker1134)" marker-end="url(#SvgjsMarker1136)"></path></g></svg>