<svg id="SvgjsSvg1006" width="866" height="375.5" xmlns="http://www.w3.org/2000/svg" version="1.1" xmlns:xlink="http://www.w3.org/1999/xlink" xmlns:svgjs="http://svgjs.com/svgjs"><defs id="SvgjsDefs1007"></defs><g id="SvgjsG1008" transform="translate(204,129.5)"><path id="SvgjsPath1009" d="M 0 0L 455 0L 455 137L 0 137Z" stroke="rgba(50,50,50,1)" stroke-width="2" fill-opacity="1" fill="#ffffff"></path><g id="SvgjsG1010"><text id="SvgjsText1011" font-family="微软雅黑" text-anchor="middle" font-size="13px" width="435px" fill="#323232" font-weight="400" align="middle" anchor="middle" family="微软雅黑" size="13px" weight="400" font-style="" opacity="1" y="58.55" transform="rotate(0)"></text></g></g><g id="SvgjsG1012" transform="translate(25,163.5)"><path id="SvgjsPath1013" d="M 0 0L 91 0L 91 62L 0 62Z" stroke="rgba(102,255,102,1)" stroke-width="2" fill-opacity="1" fill="#66ff66"></path><g id="SvgjsG1014"><text id="SvgjsText1015" font-family="微软雅黑" text-anchor="middle" font-size="13px" width="71px" fill="#323232" font-weight="400" align="middle" anchor="middle" family="微软雅黑" size="13px" weight="400" font-style="" opacity="1" y="21.05" transform="rotate(0)"><tspan id="SvgjsTspan1016" dy="16" x="45.5"><tspan id="SvgjsTspan1017" style="text-decoration:;">已确认数据</tspan></tspan></text></g></g><g id="SvgjsG1018" transform="translate(113,163.5)"><path id="SvgjsPath1019" d="M 0 0L 91 0L 91 62L 0 62Z" stroke="rgba(102,255,102,1)" stroke-width="2" fill-opacity="1" fill="#66ff66"></path><g id="SvgjsG1020"><text id="SvgjsText1021" font-family="微软雅黑" text-anchor="middle" font-size="13px" width="71px" fill="#323232" font-weight="400" align="middle" anchor="middle" family="微软雅黑" size="13px" weight="400" font-style="" opacity="1" y="21.05" transform="rotate(0)"><tspan id="SvgjsTspan1022" dy="16" x="45.5"><tspan id="SvgjsTspan1023" style="text-decoration:;">已确认数据</tspan></tspan></text></g></g><g id="SvgjsG1024" transform="translate(204,163.5)"><path id="SvgjsPath1025" d="M 0 0L 91 0L 91 62L 0 62Z" stroke="rgba(255,255,102,1)" stroke-width="2" fill-opacity="1" fill="#ffff66"></path><g id="SvgjsG1026"><text id="SvgjsText1027" font-family="微软雅黑" text-anchor="middle" font-size="13px" width="71px" fill="#323232" font-weight="400" align="middle" anchor="middle" family="微软雅黑" size="13px" weight="400" font-style="" opacity="1" y="13.05" transform="rotate(0)"><tspan id="SvgjsTspan1028" dy="16" x="45.5"><tspan id="SvgjsTspan1029" style="text-decoration:;">已发送数据</tspan></tspan><tspan id="SvgjsTspan1030" dy="16" x="45.5"><tspan id="SvgjsTspan1031" style="text-decoration:;">为确认数据</tspan></tspan></text></g></g><g id="SvgjsG1032" transform="translate(295,163.5)"><path id="SvgjsPath1033" d="M 0 0L 91 0L 91 62L 0 62Z" stroke="rgba(255,255,102,1)" stroke-width="2" fill-opacity="1" fill="#ffff66"></path><g id="SvgjsG1034"><text id="SvgjsText1035" font-family="微软雅黑" text-anchor="middle" font-size="13px" width="71px" fill="#323232" font-weight="400" align="middle" anchor="middle" family="微软雅黑" size="13px" weight="400" font-style="" opacity="1" y="13.05" transform="rotate(0)"><tspan id="SvgjsTspan1036" dy="16" x="45.5"><tspan id="SvgjsTspan1037" style="text-decoration:;">已发送数据</tspan></tspan><tspan id="SvgjsTspan1038" dy="16" x="45.5"><tspan id="SvgjsTspan1039" style="text-decoration:;">为确认数据</tspan></tspan></text></g></g><g id="SvgjsG1040" transform="translate(386,163.5)"><path id="SvgjsPath1041" d="M 0 0L 91 0L 91 62L 0 62Z" stroke="rgba(255,255,102,1)" stroke-width="2" fill-opacity="1" fill="#ffff66"></path><g id="SvgjsG1042"><text id="SvgjsText1043" font-family="微软雅黑" text-anchor="middle" font-size="13px" width="71px" fill="#323232" font-weight="400" align="middle" anchor="middle" family="微软雅黑" size="13px" weight="400" font-style="" opacity="1" y="13.05" transform="rotate(0)"><tspan id="SvgjsTspan1044" dy="16" x="45.5"><tspan id="SvgjsTspan1045" style="text-decoration:;">已发送数据</tspan></tspan><tspan id="SvgjsTspan1046" dy="16" x="45.5"><tspan id="SvgjsTspan1047" style="text-decoration:;">为确认数据</tspan></tspan></text></g></g><g id="SvgjsG1048" transform="translate(477,163.5)"><path id="SvgjsPath1049" d="M 0 0L 91 0L 91 62L 0 62Z" stroke="rgba(255,255,102,1)" stroke-width="2" fill-opacity="1" fill="#ffff66"></path><g id="SvgjsG1050"><text id="SvgjsText1051" font-family="微软雅黑" text-anchor="middle" font-size="13px" width="71px" fill="#323232" font-weight="400" align="middle" anchor="middle" family="微软雅黑" size="13px" weight="400" font-style="" opacity="1" y="21.05" transform="rotate(0)"><tspan id="SvgjsTspan1052" dy="16" x="45.5"><tspan id="SvgjsTspan1053" style="text-decoration:;">未发送数据</tspan></tspan></text></g></g><g id="SvgjsG1054" transform="translate(568,163.5)"><path id="SvgjsPath1055" d="M 0 0L 91 0L 91 62L 0 62Z" stroke="rgba(255,255,102,1)" stroke-width="2" fill-opacity="1" fill="#ffff66"></path><g id="SvgjsG1056"><text id="SvgjsText1057" font-family="微软雅黑" text-anchor="middle" font-size="13px" width="71px" fill="#323232" font-weight="400" align="middle" anchor="middle" family="微软雅黑" size="13px" weight="400" font-style="" opacity="1" y="21.05" transform="rotate(0)"><tspan id="SvgjsTspan1058" dy="16" x="45.5"><tspan id="SvgjsTspan1059" style="text-decoration:;">未发送数据</tspan></tspan></text></g></g><g id="SvgjsG1060" transform="translate(659,163.5)"><path id="SvgjsPath1061" d="M 0 0L 91 0L 91 62L 0 62Z" stroke="rgba(255,102,102,1)" stroke-width="2" fill-opacity="1" fill="#ff6666"></path><g id="SvgjsG1062"><text id="SvgjsText1063" font-family="微软雅黑" text-anchor="middle" font-size="13px" width="71px" fill="#323232" font-weight="400" align="middle" anchor="middle" family="微软雅黑" size="13px" weight="400" font-style="" opacity="1" y="21.05" transform="rotate(0)"><tspan id="SvgjsTspan1064" dy="16" x="45.5"><tspan id="SvgjsTspan1065" style="text-decoration:;">未发送数据</tspan></tspan></text></g></g><g id="SvgjsG1066" transform="translate(750,163.5)"><path id="SvgjsPath1067" d="M 0 0L 91 0L 91 62L 0 62Z" stroke="rgba(255,102,102,1)" stroke-width="2" fill-opacity="1" fill="#ff6666"></path><g id="SvgjsG1068"><text id="SvgjsText1069" font-family="微软雅黑" text-anchor="middle" font-size="13px" width="71px" fill="#323232" font-weight="400" align="middle" anchor="middle" family="微软雅黑" size="13px" weight="400" font-style="" opacity="1" y="21.05" transform="rotate(0)"><tspan id="SvgjsTspan1070" dy="16" x="45.5"><tspan id="SvgjsTspan1071" style="text-decoration:;">未发送数据</tspan></tspan></text></g></g><g id="SvgjsG1072" transform="translate(340,310.5)"><path id="SvgjsPath1073" d="M 0 0L 120 0L 120 40L 0 40Z" stroke="none" fill="none"></path><g id="SvgjsG1074"><text id="SvgjsText1075" font-family="微软雅黑" text-anchor="middle" font-size="13px" width="120px" fill="#323232" font-weight="400" align="middle" anchor="middle" family="微软雅黑" size="13px" weight="400" font-style="" opacity="1" y="10.05" transform="rotate(0)"><tspan id="SvgjsTspan1076" dy="16" x="60"><tspan id="SvgjsTspan1077" style="text-decoration:;">内核中的数据</tspan></tspan></text></g></g><g id="SvgjsG1078" transform="matrix(6.123233995736766e-17,1,-1,6.123233995736766e-17,203,56.49999999999997)"><path id="SvgjsPath1079" d="M 102.00000000000001 0Q 93.00000000000001 0 93.00000000000001 9L 93.00000000000001 78.99999999999999Q 93.00000000000001 87.99999999999999 80.00000000000001 87.99999999999999Q 93.00000000000001 87.99999999999999 93.00000000000001 96.99999999999999L 93.00000000000001 166.99999999999997Q 93.00000000000001 175.99999999999997 102.00000000000001 175.99999999999997" stroke="rgba(50,50,50,1)" stroke-width="2" fill="none"></path><path id="SvgjsPath1080" d="M 0 0L 102.00000000000001 0L 102.00000000000001 175.99999999999997L 0 175.99999999999997Z" stroke="none" fill="none"></path><g id="SvgjsG1081"><text id="SvgjsText1082" font-family="微软雅黑" text-anchor="end" font-size="13px" width="76px" fill="#323232" font-weight="400" align="middle" anchor="end" family="微软雅黑" size="13px" weight="400" font-style="" opacity="1" y="78.04999999999998" transform="rotate(0)"></text></g></g><g id="SvgjsG1083" transform="translate(37,82.5)"><path id="SvgjsPath1084" d="M 0 0L 120 0L 120 40L 0 40Z" stroke="none" fill="none"></path><g id="SvgjsG1085"><text id="SvgjsText1086" font-family="微软雅黑" text-anchor="middle" font-size="13px" width="120px" fill="#323232" font-weight="400" align="middle" anchor="middle" family="微软雅黑" size="13px" weight="400" font-style="" opacity="1" y="2.05" transform="rotate(0)"><tspan id="SvgjsTspan1087" dy="16" x="60"><tspan id="SvgjsTspan1088" style="text-decoration:;">这部分数据，会逐渐</tspan></tspan><tspan id="SvgjsTspan1089" dy="16" x="60"><tspan id="SvgjsTspan1090" style="text-decoration:;">淘汰掉</tspan></tspan></text></g></g><g id="SvgjsG1091" transform="matrix(6.123233995736766e-17,1,-1,6.123233995736766e-17,654,24.999999999999986)"><path id="SvgjsPath1092" d="M 95.5 0Q 86.5 0 86.5 9L 86.5 215.75Q 86.5 224.75 73.5 224.75Q 86.5 224.75 86.5 233.75L 86.5 440.5Q 86.5 449.5 95.5 449.5" stroke="rgba(50,50,50,1)" stroke-width="2" fill="none"></path><path id="SvgjsPath1093" d="M 0 0L 95.5 0L 95.5 449.5L 0 449.5Z" stroke="none" fill="none"></path><g id="SvgjsG1094"><text id="SvgjsText1095" font-family="微软雅黑" text-anchor="end" font-size="13px" width="69px" fill="#323232" font-weight="400" align="middle" anchor="end" family="微软雅黑" size="13px" weight="400" font-style="" opacity="1" y="214.8" transform="rotate(0)"></text></g></g><g id="SvgjsG1096" transform="translate(352,42.5)"><path id="SvgjsPath1097" d="M 0 0L 120 0L 120 40L 0 40Z" stroke="none" fill="none"></path><g id="SvgjsG1098"><text id="SvgjsText1099" font-family="微软雅黑" text-anchor="middle" font-size="13px" width="120px" fill="#323232" font-weight="400" align="middle" anchor="middle" family="微软雅黑" size="13px" weight="400" font-style="" opacity="1" y="10.05" transform="rotate(0)"><tspan id="SvgjsTspan1100" dy="16" x="60"><tspan id="SvgjsTspan1101" style="text-decoration:;">窗口大小</tspan></tspan></text></g></g></svg>