<svg id="SvgjsSvg1006" width="1039" height="945" xmlns="http://www.w3.org/2000/svg" version="1.1" xmlns:xlink="http://www.w3.org/1999/xlink" xmlns:svgjs="http://svgjs.com/svgjs"><defs id="SvgjsDefs1007"><marker id="SvgjsMarker1025" markerWidth="16" markerHeight="12" refX="0" refY="6" viewBox="0 0 16 12" orient="auto" markerUnits="userSpaceOnUse" stroke-dasharray="0,0"><path id="SvgjsPath1026" d="M15,1.5 L2,6 L15,10.5" fill="#323232" stroke="#323232" stroke-width="2"></path></marker><marker id="SvgjsMarker1027" markerWidth="16" markerHeight="12" refX="16" refY="6" viewBox="0 0 16 12" orient="auto" markerUnits="userSpaceOnUse" stroke-dasharray="0,0"><path id="SvgjsPath1028" d="M0,2 L14,6 L0,11 L0,2" fill="#323232" stroke="#323232" stroke-width="2"></path></marker><marker id="SvgjsMarker1058" markerWidth="16" markerHeight="12" refX="0" refY="6" viewBox="0 0 16 12" orient="auto" markerUnits="userSpaceOnUse" stroke-dasharray="0,0"><path id="SvgjsPath1059" d="M15,1.5 L2,6 L15,10.5" fill="#323232" stroke="#323232" stroke-width="2"></path></marker><marker id="SvgjsMarker1060" markerWidth="16" markerHeight="12" refX="16" refY="6" viewBox="0 0 16 12" orient="auto" markerUnits="userSpaceOnUse" stroke-dasharray="0,0"><path id="SvgjsPath1061" d="M0,2 L14,6 L0,11 L0,2" fill="#323232" stroke="#323232" stroke-width="2"></path></marker><marker id="SvgjsMarker1082" markerWidth="16" markerHeight="12" refX="0" refY="6" viewBox="0 0 16 12" orient="auto" markerUnits="userSpaceOnUse" stroke-dasharray="0,0"><path id="SvgjsPath1083" d="M15,1.5 L2,6 L15,10.5" fill="#323232" stroke="#323232" stroke-width="2"></path></marker><marker id="SvgjsMarker1084" markerWidth="16" markerHeight="12" refX="16" refY="6" viewBox="0 0 16 12" orient="auto" markerUnits="userSpaceOnUse" stroke-dasharray="0,0"><path id="SvgjsPath1085" d="M0,2 L14,6 L0,11 L0,2" fill="#323232" stroke="#323232" stroke-width="2"></path></marker><marker id="SvgjsMarker1110" markerWidth="16" markerHeight="12" refX="0" refY="6" viewBox="0 0 16 12" orient="auto" markerUnits="userSpaceOnUse" stroke-dasharray="0,0"><path id="SvgjsPath1111" d="M15,1.5 L2,6 L15,10.5" fill="#323232" stroke="#323232" stroke-width="2"></path></marker><marker id="SvgjsMarker1112" markerWidth="16" markerHeight="12" refX="16" refY="6" viewBox="0 0 16 12" orient="auto" markerUnits="userSpaceOnUse" stroke-dasharray="0,0"><path id="SvgjsPath1113" d="M0,2 L14,6 L0,11 L0,2" fill="#323232" stroke="#323232" stroke-width="2"></path></marker><marker id="SvgjsMarker1159" markerWidth="16" markerHeight="12" refX="0" refY="6" viewBox="0 0 16 12" orient="auto" markerUnits="userSpaceOnUse" stroke-dasharray="0,0"><path id="SvgjsPath1160" d="M15,1.5 L2,6 L15,10.5" fill="#323232" stroke="#323232" stroke-width="2"></path></marker><marker id="SvgjsMarker1161" markerWidth="16" markerHeight="12" refX="16" refY="6" viewBox="0 0 16 12" orient="auto" markerUnits="userSpaceOnUse" stroke-dasharray="0,0"><path id="SvgjsPath1162" d="M0,2 L14,6 L0,11 L0,2" fill="#323232" stroke="#323232" stroke-width="2"></path></marker><marker id="SvgjsMarker1165" markerWidth="16" markerHeight="12" refX="0" refY="6" viewBox="0 0 16 12" orient="auto" markerUnits="userSpaceOnUse" stroke-dasharray="0,0"><path id="SvgjsPath1166" d="M15,1.5 L2,6 L15,10.5" fill="#323232" stroke="#323232" stroke-width="2"></path></marker><marker id="SvgjsMarker1167" markerWidth="16" markerHeight="12" refX="16" refY="6" viewBox="0 0 16 12" orient="auto" markerUnits="userSpaceOnUse" stroke-dasharray="0,0"><path id="SvgjsPath1168" d="M0,2 L14,6 L0,11 L0,2" fill="#323232" stroke="#323232" stroke-width="2"></path></marker><marker id="SvgjsMarker1171" markerWidth="16" markerHeight="12" refX="0" refY="6" viewBox="0 0 16 12" orient="auto" markerUnits="userSpaceOnUse" stroke-dasharray="0,0"><path id="SvgjsPath1172" d="M15,1.5 L2,6 L15,10.5" fill="#323232" stroke="#323232" stroke-width="2"></path></marker><marker id="SvgjsMarker1173" markerWidth="16" markerHeight="12" refX="16" refY="6" viewBox="0 0 16 12" orient="auto" markerUnits="userSpaceOnUse" stroke-dasharray="0,0"><path id="SvgjsPath1174" d="M0,2 L14,6 L0,11 L0,2" fill="#323232" stroke="#323232" stroke-width="2"></path></marker><marker id="SvgjsMarker1177" markerWidth="16" markerHeight="12" refX="0" refY="6" viewBox="0 0 16 12" orient="auto" markerUnits="userSpaceOnUse" stroke-dasharray="0,0"><path id="SvgjsPath1178" d="M15,1.5 L2,6 L15,10.5" fill="#323232" stroke="#323232" stroke-width="2"></path></marker><marker id="SvgjsMarker1179" markerWidth="16" markerHeight="12" refX="16" refY="6" viewBox="0 0 16 12" orient="auto" markerUnits="userSpaceOnUse" stroke-dasharray="0,0"><path id="SvgjsPath1180" d="M0,2 L14,6 L0,11 L0,2" fill="#323232" stroke="#323232" stroke-width="2"></path></marker><marker id="SvgjsMarker1183" markerWidth="16" markerHeight="12" refX="0" refY="6" viewBox="0 0 16 12" orient="auto" markerUnits="userSpaceOnUse" stroke-dasharray="0,0"><path id="SvgjsPath1184" d="M15,1.5 L2,6 L15,10.5" fill="#323232" stroke="#323232" stroke-width="2"></path></marker><marker id="SvgjsMarker1185" markerWidth="16" markerHeight="12" refX="16" refY="6" viewBox="0 0 16 12" orient="auto" markerUnits="userSpaceOnUse" stroke-dasharray="0,0"><path id="SvgjsPath1186" d="M0,2 L14,6 L0,11 L0,2" fill="#323232" stroke="#323232" stroke-width="2"></path></marker><marker id="SvgjsMarker1189" markerWidth="16" markerHeight="12" refX="0" refY="6" viewBox="0 0 16 12" orient="auto" markerUnits="userSpaceOnUse" stroke-dasharray="0,0"><path id="SvgjsPath1190" d="M15,1.5 L2,6 L15,10.5" fill="#323232" stroke="#323232" stroke-width="2"></path></marker><marker id="SvgjsMarker1191" markerWidth="16" markerHeight="12" refX="16" refY="6" viewBox="0 0 16 12" orient="auto" markerUnits="userSpaceOnUse" stroke-dasharray="0,0"><path id="SvgjsPath1192" d="M0,2 L14,6 L0,11 L0,2" fill="#323232" stroke="#323232" stroke-width="2"></path></marker></defs><rect id="SvgjsRect1008" width="1039" height="945" fill="#ffffff"></rect><g id="SvgjsG1009" transform="translate(171,28.5)"><path id="SvgjsPath1010" d="M 0 0L 154 0L 154 129L 0 129Z" stroke="rgba(50,50,50,1)" stroke-width="2" fill-opacity="1" fill="#ffffff"></path><g id="SvgjsG1011"><text id="SvgjsText1012" font-family="微软雅黑" text-anchor="middle" font-size="30px" width="134px" fill="#323232" font-weight="400" align="middle" anchor="middle" family="微软雅黑" size="30px" weight="400" font-style="" opacity="1" y="39" transform="rotate(0)"><tspan id="SvgjsTspan1013" dy="37" x="77"><tspan id="SvgjsTspan1014" style="text-decoration:;">Web客户</tspan></tspan></text></g></g><g id="SvgjsG1015" transform="translate(645,30.5)"><path id="SvgjsPath1016" d="M 0 0L 154 0L 154 129L 0 129Z" stroke="rgba(50,50,50,1)" stroke-width="2" fill-opacity="1" fill="#ffffff"></path><g id="SvgjsG1017"><text id="SvgjsText1018" font-family="微软雅黑" text-anchor="middle" font-size="30px" width="134px" fill="#323232" font-weight="400" align="middle" anchor="middle" family="微软雅黑" size="30px" weight="400" font-style="" opacity="1" y="20" transform="rotate(0)"><tspan id="SvgjsTspan1019" dy="37" x="77"><tspan id="SvgjsTspan1020" style="text-decoration:;">Web服务</tspan></tspan><tspan id="SvgjsTspan1021" dy="37" x="77"><tspan id="SvgjsTspan1022" style="text-decoration:;">器</tspan></tspan></text></g></g><g id="SvgjsG1023"><path id="SvgjsPath1024" d="M325 93L645 95" stroke-dasharray="8,5" stroke="#323232" stroke-width="2" fill="none" marker-start="url(#SvgjsMarker1025)" marker-end="url(#SvgjsMarker1027)"></path></g><g id="SvgjsG1029" transform="translate(39,25)"><path id="SvgjsPath1030" d="M 100 0Q 91 0 91 9L 91 61Q 91 70 78 70Q 91 70 91 79L 91 131Q 91 140 100 140" stroke="rgba(50,50,50,1)" stroke-width="4" fill="none"></path><path id="SvgjsPath1031" d="M 0 0L 100 0L 100 140L 0 140Z" stroke="none" fill="none"></path><g id="SvgjsG1032"><text id="SvgjsText1033" font-family="微软雅黑" text-anchor="end" font-size="30px" width="73px" fill="#323232" font-weight="400" align="middle" anchor="end" family="微软雅黑" size="30px" weight="400" font-style="" opacity="1" y="25.5" transform="rotate(0)"><tspan id="SvgjsTspan1034" dy="37" x="73"><tspan id="SvgjsTspan1035" style="text-decoration:;">用户</tspan></tspan><tspan id="SvgjsTspan1036" dy="37" x="73"><tspan id="SvgjsTspan1037" style="text-decoration:;">进程</tspan></tspan></text></g></g><g id="SvgjsG1038" transform="translate(371,29.5)"><path id="SvgjsPath1039" d="M 0 0L 216 0L 216 46L 0 46Z" stroke="rgba(255,255,255,1)" stroke-width="2" fill-opacity="1" fill="#ffffff"></path><g id="SvgjsG1040"><text id="SvgjsText1041" font-family="微软雅黑" text-anchor="middle" font-size="30px" width="196px" fill="#323232" font-weight="400" align="middle" anchor="middle" family="微软雅黑" size="30px" weight="400" font-style="" opacity="1" y="-2.5" transform="rotate(0)"><tspan id="SvgjsTspan1042" dy="37" x="108"><tspan id="SvgjsTspan1043" style="text-decoration:;">应用协议</tspan></tspan></text></g></g><g id="SvgjsG1044" transform="translate(173,228.5)"><path id="SvgjsPath1045" d="M 0 0L 154 0L 154 129L 0 129Z" stroke="rgba(50,50,50,1)" stroke-width="2" fill-opacity="1" fill="#ffffff"></path><g id="SvgjsG1046"><text id="SvgjsText1047" font-family="微软雅黑" text-anchor="middle" font-size="30px" width="134px" fill="#323232" font-weight="400" align="middle" anchor="middle" family="微软雅黑" size="30px" weight="400" font-style="" opacity="1" y="39" transform="rotate(0)"><tspan id="SvgjsTspan1048" dy="37" x="77"><tspan id="SvgjsTspan1049" style="text-decoration:;">TCP</tspan></tspan></text></g></g><g id="SvgjsG1050" transform="translate(647,228.5)"><path id="SvgjsPath1051" d="M 0 0L 154 0L 154 129L 0 129Z" stroke="rgba(50,50,50,1)" stroke-width="2" fill-opacity="1" fill="#ffffff"></path><g id="SvgjsG1052"><text id="SvgjsText1053" font-family="微软雅黑" text-anchor="middle" font-size="30px" width="134px" fill="#323232" font-weight="400" align="middle" anchor="middle" family="微软雅黑" size="30px" weight="400" font-style="" opacity="1" y="39" transform="rotate(0)"><tspan id="SvgjsTspan1054" dy="37" x="77"><tspan id="SvgjsTspan1055" style="text-decoration:;">TCP</tspan></tspan></text></g></g><g id="SvgjsG1056"><path id="SvgjsPath1057" d="M327 293L647 293" stroke-dasharray="8,5" stroke="#323232" stroke-width="2" fill="none" marker-start="url(#SvgjsMarker1058)" marker-end="url(#SvgjsMarker1060)"></path></g><g id="SvgjsG1062" transform="translate(373,235.5)"><path id="SvgjsPath1063" d="M 0 0L 216 0L 216 46L 0 46Z" stroke="rgba(255,255,255,1)" stroke-width="2" fill-opacity="1" fill="#ffffff"></path><g id="SvgjsG1064"><text id="SvgjsText1065" font-family="微软雅黑" text-anchor="middle" font-size="30px" width="196px" fill="#323232" font-weight="400" align="middle" anchor="middle" family="微软雅黑" size="30px" weight="400" font-style="" opacity="1" y="-2.5" transform="rotate(0)"><tspan id="SvgjsTspan1066" dy="37" x="108"><tspan id="SvgjsTspan1067" style="text-decoration:;">TCP协议</tspan></tspan></text></g></g><g id="SvgjsG1068" transform="translate(173,446.5)"><path id="SvgjsPath1069" d="M 0 0L 154 0L 154 129L 0 129Z" stroke="rgba(50,50,50,1)" stroke-width="2" fill-opacity="1" fill="#ffffff"></path><g id="SvgjsG1070"><text id="SvgjsText1071" font-family="微软雅黑" text-anchor="middle" font-size="30px" width="134px" fill="#323232" font-weight="400" align="middle" anchor="middle" family="微软雅黑" size="30px" weight="400" font-style="" opacity="1" y="39" transform="rotate(0)"><tspan id="SvgjsTspan1072" dy="37" x="77"><tspan id="SvgjsTspan1073" style="text-decoration:;">IP</tspan></tspan></text></g></g><g id="SvgjsG1074" transform="translate(647,448.5)"><path id="SvgjsPath1075" d="M 0 0L 154 0L 154 129L 0 129Z" stroke="rgba(50,50,50,1)" stroke-width="2" fill-opacity="1" fill="#ffffff"></path><g id="SvgjsG1076"><text id="SvgjsText1077" font-family="微软雅黑" text-anchor="middle" font-size="30px" width="134px" fill="#323232" font-weight="400" align="middle" anchor="middle" family="微软雅黑" size="30px" weight="400" font-style="" opacity="1" y="39" transform="rotate(0)"><tspan id="SvgjsTspan1078" dy="37" x="77"><tspan id="SvgjsTspan1079" style="text-decoration:;">IP</tspan></tspan></text></g></g><g id="SvgjsG1080"><path id="SvgjsPath1081" d="M327 511L647 513" stroke-dasharray="8,5" stroke="#323232" stroke-width="2" fill="none" marker-start="url(#SvgjsMarker1082)" marker-end="url(#SvgjsMarker1084)"></path></g><g id="SvgjsG1086" transform="translate(373,447.5)"><path id="SvgjsPath1087" d="M 0 0L 216 0L 216 46L 0 46Z" stroke="rgba(255,255,255,1)" stroke-width="2" fill-opacity="1" fill="#ffffff"></path><g id="SvgjsG1088"><text id="SvgjsText1089" font-family="微软雅黑" text-anchor="middle" font-size="30px" width="196px" fill="#323232" font-weight="400" align="middle" anchor="middle" family="微软雅黑" size="30px" weight="400" font-style="" opacity="1" y="-2.5" transform="rotate(0)"><tspan id="SvgjsTspan1090" dy="37" x="108"><tspan id="SvgjsTspan1091" style="text-decoration:;">IP协议</tspan></tspan></text></g></g><g id="SvgjsG1092" transform="translate(175,658.5)"><path id="SvgjsPath1093" d="M 0 0L 154 0L 154 129L 0 129Z" stroke="rgba(50,50,50,1)" stroke-width="2" fill-opacity="1" fill="#ffffff"></path><g id="SvgjsG1094"><text id="SvgjsText1095" font-family="微软雅黑" text-anchor="middle" font-size="30px" width="134px" fill="#323232" font-weight="400" align="middle" anchor="middle" family="微软雅黑" size="30px" weight="400" font-style="" opacity="1" y="20" transform="rotate(0)"><tspan id="SvgjsTspan1096" dy="37" x="77"><tspan id="SvgjsTspan1097" style="text-decoration:;">以太网驱</tspan></tspan><tspan id="SvgjsTspan1098" dy="37" x="77"><tspan id="SvgjsTspan1099" style="text-decoration:;">动程序</tspan></tspan></text></g></g><g id="SvgjsG1100" transform="translate(649,664.5)"><path id="SvgjsPath1101" d="M 0 0L 154 0L 154 129L 0 129Z" stroke="rgba(50,50,50,1)" stroke-width="2" fill-opacity="1" fill="#ffffff"></path><g id="SvgjsG1102"><text id="SvgjsText1103" font-family="微软雅黑" text-anchor="middle" font-size="30px" width="134px" fill="#323232" font-weight="400" align="middle" anchor="middle" family="微软雅黑" size="30px" weight="400" font-style="" opacity="1" y="20" transform="rotate(0)"><tspan id="SvgjsTspan1104" dy="37" x="77"><tspan id="SvgjsTspan1105" style="text-decoration:;">以太网驱</tspan></tspan><tspan id="SvgjsTspan1106" dy="37" x="77"><tspan id="SvgjsTspan1107" style="text-decoration:;">动程序</tspan></tspan></text></g></g><g id="SvgjsG1108"><path id="SvgjsPath1109" d="M329 723L649 729" stroke-dasharray="8,5" stroke="#323232" stroke-width="2" fill="none" marker-start="url(#SvgjsMarker1110)" marker-end="url(#SvgjsMarker1112)"></path></g><g id="SvgjsG1114" transform="translate(371,657.5)"><path id="SvgjsPath1115" d="M 0 0L 216 0L 216 46L 0 46Z" stroke="rgba(255,255,255,1)" stroke-width="2" fill-opacity="1" fill="#ffffff"></path><g id="SvgjsG1116"><text id="SvgjsText1117" font-family="微软雅黑" text-anchor="middle" font-size="30px" width="196px" fill="#323232" font-weight="400" align="middle" anchor="middle" family="微软雅黑" size="30px" weight="400" font-style="" opacity="1" y="-2.5" transform="rotate(0)"><tspan id="SvgjsTspan1118" dy="37" x="108"><tspan id="SvgjsTspan1119" style="text-decoration:;">以太网协议</tspan></tspan></text></g></g><g id="SvgjsG1120" transform="translate(825,57.5)"><path id="SvgjsPath1121" d="M 0 0L 134 0L 134 61L 0 61Z" stroke="rgba(255,255,255,1)" stroke-width="2" fill-opacity="1" fill="#ffffff"></path><g id="SvgjsG1122"><text id="SvgjsText1123" font-family="微软雅黑" text-anchor="middle" font-size="30px" width="114px" fill="#323232" font-weight="400" align="middle" anchor="middle" family="微软雅黑" size="30px" weight="400" font-style="" opacity="1" y="5" transform="rotate(0)"><tspan id="SvgjsTspan1124" dy="37" x="67"><tspan id="SvgjsTspan1125" style="text-decoration:;">应用层</tspan></tspan></text></g></g><g id="SvgjsG1126" transform="translate(837,269.5)"><path id="SvgjsPath1127" d="M 0 0L 134 0L 134 61L 0 61Z" stroke="rgba(255,255,255,1)" stroke-width="2" fill-opacity="1" fill="#ffffff"></path><g id="SvgjsG1128"><text id="SvgjsText1129" font-family="微软雅黑" text-anchor="middle" font-size="30px" width="114px" fill="#323232" font-weight="400" align="middle" anchor="middle" family="微软雅黑" size="30px" weight="400" font-style="" opacity="1" y="5" transform="rotate(0)"><tspan id="SvgjsTspan1130" dy="37" x="67"><tspan id="SvgjsTspan1131" style="text-decoration:;">传输层</tspan></tspan></text></g></g><g id="SvgjsG1132" transform="translate(825,487.5)"><path id="SvgjsPath1133" d="M 0 0L 134 0L 134 61L 0 61Z" stroke="rgba(255,255,255,1)" stroke-width="2" fill-opacity="1" fill="#ffffff"></path><g id="SvgjsG1134"><text id="SvgjsText1135" font-family="微软雅黑" text-anchor="middle" font-size="30px" width="114px" fill="#323232" font-weight="400" align="middle" anchor="middle" family="微软雅黑" size="30px" weight="400" font-style="" opacity="1" y="5" transform="rotate(0)"><tspan id="SvgjsTspan1136" dy="37" x="67"><tspan id="SvgjsTspan1137" style="text-decoration:;">网络层</tspan></tspan></text></g></g><g id="SvgjsG1138" transform="translate(833,695.5)"><path id="SvgjsPath1139" d="M 0 0L 181 0L 181 48L 0 48Z" stroke="rgba(255,255,255,1)" stroke-width="2" fill-opacity="1" fill="#ffffff"></path><g id="SvgjsG1140"><text id="SvgjsText1141" font-family="微软雅黑" text-anchor="middle" font-size="30px" width="161px" fill="#323232" font-weight="400" align="middle" anchor="middle" family="微软雅黑" size="30px" weight="400" font-style="" opacity="1" y="-1.5" transform="rotate(0)"><tspan id="SvgjsTspan1142" dy="37" x="90.5"><tspan id="SvgjsTspan1143" style="text-decoration:;">数据链路层</tspan></tspan></text></g></g><g id="SvgjsG1144" transform="translate(25,283.5)"><path id="SvgjsPath1145" d="M 110 0Q 101 0 101 9L 101 113Q 101 122 88 122Q 101 122 101 131L 101 235Q 101 244 110 244" stroke="rgba(50,50,50,1)" stroke-width="5" fill="none"></path><path id="SvgjsPath1146" d="M 0 0L 110 0L 110 244L 0 244Z" stroke="none" fill="none"></path><g id="SvgjsG1147"><text id="SvgjsText1148" font-family="微软雅黑" text-anchor="end" font-size="30px" width="83px" fill="#323232" font-weight="400" align="middle" anchor="end" family="微软雅黑" size="30px" weight="400" font-style="" opacity="1" y="39.5" transform="rotate(0)"><tspan id="SvgjsTspan1149" dy="37" x="83"><tspan id="SvgjsTspan1150" style="text-decoration:;">内核</tspan></tspan><tspan id="SvgjsTspan1151" dy="37" x="83"><tspan id="SvgjsTspan1152" style="text-decoration:;">中的</tspan></tspan><tspan id="SvgjsTspan1153" dy="37" x="83"><tspan id="SvgjsTspan1154" style="text-decoration:;">协议</tspan></tspan><tspan id="SvgjsTspan1155" dy="37" x="83"><tspan id="SvgjsTspan1156" style="text-decoration:;">栈</tspan></tspan></text></g></g><g id="SvgjsG1157"><path id="SvgjsPath1158" d="M248 157.5L250 228.5" stroke="#323232" stroke-width="2" fill="none" marker-start="url(#SvgjsMarker1159)" marker-end="url(#SvgjsMarker1161)"></path></g><g id="SvgjsG1163"><path id="SvgjsPath1164" d="M250 357.5L250 446.5" stroke="#323232" stroke-width="2" fill="none" marker-start="url(#SvgjsMarker1165)" marker-end="url(#SvgjsMarker1167)"></path></g><g id="SvgjsG1169"><path id="SvgjsPath1170" d="M250 575.5L252 658.5" stroke="#323232" stroke-width="2" fill="none" marker-start="url(#SvgjsMarker1171)" marker-end="url(#SvgjsMarker1173)"></path></g><g id="SvgjsG1175"><path id="SvgjsPath1176" d="M722 159.5L724 228.5" stroke="#323232" stroke-width="2" fill="none" marker-start="url(#SvgjsMarker1177)" marker-end="url(#SvgjsMarker1179)"></path></g><g id="SvgjsG1181"><path id="SvgjsPath1182" d="M724 357.5L724 448.5" stroke="#323232" stroke-width="2" fill="none" marker-start="url(#SvgjsMarker1183)" marker-end="url(#SvgjsMarker1185)"></path></g><g id="SvgjsG1187"><path id="SvgjsPath1188" d="M724 577.5L726 664.5" stroke="#323232" stroke-width="2" fill="none" marker-start="url(#SvgjsMarker1189)" marker-end="url(#SvgjsMarker1191)"></path></g><g id="SvgjsG1193" transform="translate(39,899)"><path id="SvgjsPath1194" d="M 0 11L 936 11" stroke="rgba(136,136,136,1)" stroke-width="6" fill="none"></path><path id="SvgjsPath1195" d="M 0 0L 936 0L 936 21L 0 21Z" stroke="none" fill="none"></path></g><g id="SvgjsG1196"><path id="SvgjsPath1197" d="M252 787.5L252 849.5L252 849.5L252 911.5" stroke="#323232" stroke-width="5" fill="none"></path></g><g id="SvgjsG1198"><path id="SvgjsPath1199" d="M726 793.5L726 851.5L726 851.5L726 909.5" stroke="#323232" stroke-width="5" fill="none"></path></g></svg>