<svg id="SvgjsSvg1198" width="866" height="370.5" xmlns="http://www.w3.org/2000/svg" version="1.1" xmlns:xlink="http://www.w3.org/1999/xlink" xmlns:svgjs="http://svgjs.com/svgjs"><defs id="SvgjsDefs1199"></defs><g id="SvgjsG1200" transform="translate(295,129.5)"><path id="SvgjsPath1201" d="M 0 0L 455 0L 455 137L 0 137Z" stroke="rgba(50,50,50,1)" stroke-width="2" fill-opacity="1" fill="#ffffff"></path><g id="SvgjsG1202"><text id="SvgjsText1203" font-family="微软雅黑" text-anchor="middle" font-size="13px" width="435px" fill="#323232" font-weight="400" align="middle" anchor="middle" family="微软雅黑" size="13px" weight="400" font-style="" opacity="1" y="58.55" transform="rotate(0)"></text></g></g><g id="SvgjsG1204" transform="translate(25,158.5)"><path id="SvgjsPath1205" d="M 0 0L 91 0L 91 62L 0 62Z" stroke="rgba(102,255,102,1)" stroke-width="2" fill-opacity="1" fill="#66ff66"></path><g id="SvgjsG1206"><text id="SvgjsText1207" font-family="微软雅黑" text-anchor="middle" font-size="13px" width="71px" fill="#323232" font-weight="400" align="middle" anchor="middle" family="微软雅黑" size="13px" weight="400" font-style="" opacity="1" y="21.05" transform="rotate(0)"><tspan id="SvgjsTspan1208" dy="16" x="45.5"><tspan id="SvgjsTspan1209" style="text-decoration:;">已确认数据</tspan></tspan></text></g></g><g id="SvgjsG1210" transform="translate(113,158.5)"><path id="SvgjsPath1211" d="M 0 0L 91 0L 91 62L 0 62Z" stroke="rgba(102,255,102,1)" stroke-width="2" fill-opacity="1" fill="#66ff66"></path><g id="SvgjsG1212"><text id="SvgjsText1213" font-family="微软雅黑" text-anchor="middle" font-size="13px" width="71px" fill="#323232" font-weight="400" align="middle" anchor="middle" family="微软雅黑" size="13px" weight="400" font-style="" opacity="1" y="21.05" transform="rotate(0)"><tspan id="SvgjsTspan1214" dy="16" x="45.5"><tspan id="SvgjsTspan1215" style="text-decoration:;">已确认数据</tspan></tspan></text></g></g><g id="SvgjsG1216" transform="translate(204,158.5)"><path id="SvgjsPath1217" d="M 0 0L 91 0L 91 62L 0 62Z" stroke="rgba(102,255,102,1)" stroke-width="2" fill-opacity="1" fill="#66ff66"></path><g id="SvgjsG1218"><text id="SvgjsText1219" font-family="微软雅黑" text-anchor="middle" font-size="13px" width="71px" fill="#323232" font-weight="400" align="middle" anchor="middle" family="微软雅黑" size="13px" weight="400" font-style="" opacity="1" y="13.05" transform="rotate(0)"><tspan id="SvgjsTspan1220" dy="16" x="45.5"><tspan id="SvgjsTspan1221" style="text-decoration:;">已发送数据</tspan></tspan><tspan id="SvgjsTspan1222" dy="16" x="45.5"><tspan id="SvgjsTspan1223" style="text-decoration:;">为确认数据</tspan></tspan></text></g></g><g id="SvgjsG1224" transform="translate(295,158.5)"><path id="SvgjsPath1225" d="M 0 0L 91 0L 91 62L 0 62Z" stroke="rgba(255,255,102,1)" stroke-width="2" fill-opacity="1" fill="#ffff66"></path><g id="SvgjsG1226"><text id="SvgjsText1227" font-family="微软雅黑" text-anchor="middle" font-size="13px" width="71px" fill="#323232" font-weight="400" align="middle" anchor="middle" family="微软雅黑" size="13px" weight="400" font-style="" opacity="1" y="13.05" transform="rotate(0)"><tspan id="SvgjsTspan1228" dy="16" x="45.5"><tspan id="SvgjsTspan1229" style="text-decoration:;">已发送数据</tspan></tspan><tspan id="SvgjsTspan1230" dy="16" x="45.5"><tspan id="SvgjsTspan1231" style="text-decoration:;">为确认数据</tspan></tspan></text></g></g><g id="SvgjsG1232" transform="translate(386,158.5)"><path id="SvgjsPath1233" d="M 0 0L 91 0L 91 62L 0 62Z" stroke="rgba(255,255,102,1)" stroke-width="2" fill-opacity="1" fill="#ffff66"></path><g id="SvgjsG1234"><text id="SvgjsText1235" font-family="微软雅黑" text-anchor="middle" font-size="13px" width="71px" fill="#323232" font-weight="400" align="middle" anchor="middle" family="微软雅黑" size="13px" weight="400" font-style="" opacity="1" y="13.05" transform="rotate(0)"><tspan id="SvgjsTspan1236" dy="16" x="45.5"><tspan id="SvgjsTspan1237" style="text-decoration:;">已发送数据</tspan></tspan><tspan id="SvgjsTspan1238" dy="16" x="45.5"><tspan id="SvgjsTspan1239" style="text-decoration:;">为确认数据</tspan></tspan></text></g></g><g id="SvgjsG1240" transform="translate(477,158.5)"><path id="SvgjsPath1241" d="M 0 0L 91 0L 91 62L 0 62Z" stroke="rgba(255,255,102,1)" stroke-width="2" fill-opacity="1" fill="#ffff66"></path><g id="SvgjsG1242"><text id="SvgjsText1243" font-family="微软雅黑" text-anchor="middle" font-size="13px" width="71px" fill="#323232" font-weight="400" align="middle" anchor="middle" family="微软雅黑" size="13px" weight="400" font-style="" opacity="1" y="13.05" transform="rotate(0)"><tspan id="SvgjsTspan1244" dy="16" x="45.5"><tspan id="SvgjsTspan1245" style="text-decoration:;">已发送数据</tspan></tspan><tspan id="SvgjsTspan1246" dy="16" x="45.5"><tspan id="SvgjsTspan1247" style="text-decoration:;">为确认数据</tspan></tspan></text></g></g><g id="SvgjsG1248" transform="translate(568,158.5)"><path id="SvgjsPath1249" d="M 0 0L 91 0L 91 62L 0 62Z" stroke="rgba(255,255,102,1)" stroke-width="2" fill-opacity="1" fill="#ffff66"></path><g id="SvgjsG1250"><text id="SvgjsText1251" font-family="微软雅黑" text-anchor="middle" font-size="13px" width="71px" fill="#323232" font-weight="400" align="middle" anchor="middle" family="微软雅黑" size="13px" weight="400" font-style="" opacity="1" y="13.05" transform="rotate(0)"><tspan id="SvgjsTspan1252" dy="16" x="45.5"><tspan id="SvgjsTspan1253" style="text-decoration:;">已发送数据</tspan></tspan><tspan id="SvgjsTspan1254" dy="16" x="45.5"><tspan id="SvgjsTspan1255" style="text-decoration:;">为确认数据</tspan></tspan></text></g></g><g id="SvgjsG1256" transform="translate(659,158.5)"><path id="SvgjsPath1257" d="M 0 0L 91 0L 91 62L 0 62Z" stroke="rgba(255,102,102,1)" stroke-width="2" fill-opacity="1" fill="#ff6666"></path><g id="SvgjsG1258"><text id="SvgjsText1259" font-family="微软雅黑" text-anchor="middle" font-size="13px" width="71px" fill="#323232" font-weight="400" align="middle" anchor="middle" family="微软雅黑" size="13px" weight="400" font-style="" opacity="1" y="21.05" transform="rotate(0)"><tspan id="SvgjsTspan1260" dy="16" x="45.5"><tspan id="SvgjsTspan1261" style="text-decoration:;">未发送数据</tspan></tspan></text></g></g><g id="SvgjsG1262" transform="translate(750,158.5)"><path id="SvgjsPath1263" d="M 0 0L 91 0L 91 62L 0 62Z" stroke="rgba(255,102,102,1)" stroke-width="2" fill-opacity="1" fill="#ff6666"></path><g id="SvgjsG1264"><text id="SvgjsText1265" font-family="微软雅黑" text-anchor="middle" font-size="13px" width="71px" fill="#323232" font-weight="400" align="middle" anchor="middle" family="微软雅黑" size="13px" weight="400" font-style="" opacity="1" y="21.05" transform="rotate(0)"><tspan id="SvgjsTspan1266" dy="16" x="45.5"><tspan id="SvgjsTspan1267" style="text-decoration:;">未发送数据</tspan></tspan></text></g></g><g id="SvgjsG1268" transform="translate(340,305.5)"><path id="SvgjsPath1269" d="M 0 0L 120 0L 120 40L 0 40Z" stroke="none" fill="none"></path><g id="SvgjsG1270"><text id="SvgjsText1271" font-family="微软雅黑" text-anchor="middle" font-size="13px" width="120px" fill="#323232" font-weight="400" align="middle" anchor="middle" family="微软雅黑" size="13px" weight="400" font-style="" opacity="1" y="10.05" transform="rotate(0)"><tspan id="SvgjsTspan1272" dy="16" x="60"><tspan id="SvgjsTspan1273" style="text-decoration:;">内核中的数据</tspan></tspan></text></g></g><g id="SvgjsG1274" transform="matrix(6.123233995736766e-17,1,-1,6.123233995736766e-17,290,51.500000000000064)"><path id="SvgjsPath1275" d="M 106.99999999999991 0Q 97.99999999999991 0 97.99999999999991 9L 97.99999999999991 122.50000000000003Q 97.99999999999991 131.50000000000003 84.99999999999991 131.50000000000003Q 97.99999999999991 131.50000000000003 97.99999999999991 140.50000000000003L 97.99999999999991 254.00000000000006Q 97.99999999999991 263.00000000000006 106.99999999999991 263.00000000000006" stroke="rgba(50,50,50,1)" stroke-width="2" fill="none"></path><path id="SvgjsPath1276" d="M 0 0L 106.99999999999991 0L 106.99999999999991 263.00000000000006L 0 263.00000000000006Z" stroke="none" fill="none"></path><g id="SvgjsG1277"><text id="SvgjsText1278" font-family="微软雅黑" text-anchor="end" font-size="13px" width="80px" fill="#323232" font-weight="400" align="middle" anchor="end" family="微软雅黑" size="13px" weight="400" font-style="" opacity="1" y="121.55000000000003" transform="rotate(0)"></text></g></g><g id="SvgjsG1279" transform="translate(37,77.5)"><path id="SvgjsPath1280" d="M 0 0L 120 0L 120 40L 0 40Z" stroke="none" fill="none"></path><g id="SvgjsG1281"><text id="SvgjsText1282" font-family="微软雅黑" text-anchor="middle" font-size="13px" width="120px" fill="#323232" font-weight="400" align="middle" anchor="middle" family="微软雅黑" size="13px" weight="400" font-style="" opacity="1" y="2.05" transform="rotate(0)"><tspan id="SvgjsTspan1283" dy="16" x="60"><tspan id="SvgjsTspan1284" style="text-decoration:;">这部分数据，会逐渐</tspan></tspan><tspan id="SvgjsTspan1285" dy="16" x="60"><tspan id="SvgjsTspan1286" style="text-decoration:;">淘汰掉</tspan></tspan></text></g></g><g id="SvgjsG1287" transform="matrix(6.123233995736766e-17,1,-1,6.123233995736766e-17,747.25,24.999999999999986)"><path id="SvgjsPath1288" d="M 95.5 0Q 86.5 0 86.5 9L 86.5 215.75Q 86.5 224.75 73.5 224.75Q 86.5 224.75 86.5 233.75L 86.5 440.5Q 86.5 449.5 95.5 449.5" stroke="rgba(50,50,50,1)" stroke-width="2" fill="none"></path><path id="SvgjsPath1289" d="M 0 0L 95.5 0L 95.5 449.5L 0 449.5Z" stroke="none" fill="none"></path><g id="SvgjsG1290"><text id="SvgjsText1291" font-family="微软雅黑" text-anchor="end" font-size="13px" width="69px" fill="#323232" font-weight="400" align="middle" anchor="end" family="微软雅黑" size="13px" weight="400" font-style="" opacity="1" y="214.8" transform="rotate(0)"></text></g></g><g id="SvgjsG1292" transform="translate(352,37.5)"><path id="SvgjsPath1293" d="M 0 0L 120 0L 120 40L 0 40Z" stroke="none" fill="none"></path><g id="SvgjsG1294"><text id="SvgjsText1295" font-family="微软雅黑" text-anchor="middle" font-size="13px" width="120px" fill="#323232" font-weight="400" align="middle" anchor="middle" family="微软雅黑" size="13px" weight="400" font-style="" opacity="1" y="10.05" transform="rotate(0)"><tspan id="SvgjsTspan1296" dy="16" x="60"><tspan id="SvgjsTspan1297" style="text-decoration:;">窗口大小</tspan></tspan></text></g></g></svg>