<svg id="SvgjsSvg1006" width="1046" height="616" xmlns="http://www.w3.org/2000/svg" version="1.1" xmlns:xlink="http://www.w3.org/1999/xlink" xmlns:svgjs="http://svgjs.com/svgjs"><defs id="SvgjsDefs1007"><marker id="SvgjsMarker1076" markerWidth="16" markerHeight="12" refX="0" refY="6" viewBox="0 0 16 12" orient="auto" markerUnits="userSpaceOnUse" stroke-dasharray="0,0"><path id="SvgjsPath1077" d="M10,3 L0,6 L10,9" fill="#3333ff" stroke="#3333ff" stroke-width="1"></path></marker><marker id="SvgjsMarker1080" markerWidth="16" markerHeight="12" refX="10" refY="6" viewBox="0 0 16 12" orient="auto" markerUnits="userSpaceOnUse" stroke-dasharray="0,0"><path id="SvgjsPath1081" d="M0,3 L10,6 L0,9 L0,3" fill="#6666ff" stroke="#6666ff" stroke-width="1"></path></marker><marker id="SvgjsMarker1084" markerWidth="16" markerHeight="16" refX="3" refY="8" viewBox="0 0 16 16" orient="auto" markerUnits="userSpaceOnUse" stroke-dasharray="0,0"><circle id="SvgjsCircle1085" r="4" cx="8" cy="8" fill="#00ff00" stroke="#00ff00" stroke-width="2"></circle></marker><marker id="SvgjsMarker1086" markerWidth="16" markerHeight="16" refX="13" refY="8" viewBox="0 0 16 16" orient="auto" markerUnits="userSpaceOnUse" stroke-dasharray="0,0"><circle id="SvgjsCircle1087" r="4" cx="8" cy="8" fill="#00ff00" stroke="#00ff00" stroke-width="2"></circle></marker><marker id="SvgjsMarker1102" markerWidth="16" markerHeight="12" refX="10" refY="6" viewBox="0 0 16 12" orient="auto" markerUnits="userSpaceOnUse" stroke-dasharray="0,0"><path id="SvgjsPath1103" d="M0,3 L10,6 L0,9 L0,3" fill="#6666ff" stroke="#6666ff" stroke-width="1"></path></marker><marker id="SvgjsMarker1106" markerWidth="16" markerHeight="12" refX="10" refY="6" viewBox="0 0 16 12" orient="auto" markerUnits="userSpaceOnUse" stroke-dasharray="0,0"><path id="SvgjsPath1107" d="M0,3 L10,6 L0,9 L0,3" fill="#6666ff" stroke="#6666ff" stroke-width="1"></path></marker><marker id="SvgjsMarker1110" markerWidth="16" markerHeight="12" refX="10" refY="6" viewBox="0 0 16 12" orient="auto" markerUnits="userSpaceOnUse" stroke-dasharray="0,0"><path id="SvgjsPath1111" d="M0,3 L10,6 L0,9 L0,3" fill="#b266ff" stroke="#b266ff" stroke-width="1"></path></marker><marker id="SvgjsMarker1114" markerWidth="16" markerHeight="12" refX="10" refY="6" viewBox="0 0 16 12" orient="auto" markerUnits="userSpaceOnUse" stroke-dasharray="0,0"><path id="SvgjsPath1115" d="M0,3 L10,6 L0,9 L0,3" fill="#b266ff" stroke="#b266ff" stroke-width="1"></path></marker><marker id="SvgjsMarker1118" markerWidth="16" markerHeight="12" refX="10" refY="6" viewBox="0 0 16 12" orient="auto" markerUnits="userSpaceOnUse" stroke-dasharray="0,0"><path id="SvgjsPath1119" d="M0,3 L10,6 L0,9 L0,3" fill="#b266ff" stroke="#b266ff" stroke-width="1"></path></marker><marker id="SvgjsMarker1122" markerWidth="16" markerHeight="12" refX="10" refY="6" viewBox="0 0 16 12" orient="auto" markerUnits="userSpaceOnUse" stroke-dasharray="0,0"><path id="SvgjsPath1123" d="M0,3 L10,6 L0,9 L0,3" fill="#b266ff" stroke="#b266ff" stroke-width="1"></path></marker></defs><g id="SvgjsG1008" transform="translate(567,25)"><path id="SvgjsPath1009" d="M 0 0L 454 0L 454 566L 0 566Z" stroke="rgba(255,153,153,1)" stroke-width="2" fill-opacity="1" fill="#ff9999"></path><g id="SvgjsG1010"><text id="SvgjsText1011" font-family="微软雅黑" text-anchor="middle" font-size="13px" width="434px" fill="#323232" font-weight="400" align="middle" anchor="middle" family="微软雅黑" size="13px" weight="400" font-style="" opacity="1" y="273.05" transform="rotate(0)"></text></g></g><g id="SvgjsG1012" transform="translate(25,25)"><path id="SvgjsPath1013" d="M 0 0L 456 0L 456 566L 0 566Z" stroke="rgba(255,153,153,1)" stroke-width="2" fill-opacity="1" fill="#ff9999"></path><g id="SvgjsG1014"><text id="SvgjsText1015" font-family="微软雅黑" text-anchor="middle" font-size="13px" width="436px" fill="#323232" font-weight="400" align="middle" anchor="middle" family="微软雅黑" size="13px" weight="400" font-style="" opacity="1" y="273.05" transform="rotate(0)"></text></g></g><g id="SvgjsG1016" transform="translate(54,176)"><path id="SvgjsPath1017" d="M 0 0L 90 0L 90 184L 0 184Z" stroke="rgba(255,204,153,1)" stroke-width="2" fill-opacity="1" fill="#ffcc99"></path><g id="SvgjsG1018"><text id="SvgjsText1019" font-family="微软雅黑" text-anchor="middle" font-size="13px" width="70px" fill="#323232" font-weight="400" align="middle" anchor="middle" family="微软雅黑" size="13px" weight="400" font-style="" opacity="1" y="74.05" transform="rotate(0)"><tspan id="SvgjsTspan1020" dy="16" x="45"><tspan id="SvgjsTspan1021" style="text-decoration:;">服务端</tspan></tspan><tspan id="SvgjsTspan1022" dy="16" x="45"><tspan id="SvgjsTspan1023" style="text-decoration:;">应用程序</tspan></tspan></text></g></g><g id="SvgjsG1024" transform="translate(213,90)"><path id="SvgjsPath1025" d="M 0 0L 141 0L 141 372L 0 372Z" stroke="rgba(255,204,153,1)" stroke-width="2" fill-opacity="1" fill="#ffcc99"></path><g id="SvgjsG1026"><text id="SvgjsText1027" font-family="微软雅黑" text-anchor="middle" font-size="13px" width="121px" fill="#323232" font-weight="400" align="middle" anchor="middle" family="微软雅黑" size="13px" weight="400" font-style="" opacity="1" y="176.05" transform="rotate(0)"><tspan id="SvgjsTspan1028" dy="16" x="70.5"><tspan id="SvgjsTspan1029" style="text-decoration:;">内核</tspan></tspan></text></g></g><g id="SvgjsG1030" transform="translate(924,176)"><path id="SvgjsPath1031" d="M 0 0L 76 0L 76 184L 0 184Z" stroke="rgba(255,204,153,1)" stroke-width="2" fill-opacity="1" fill="#ffcc99"></path><g id="SvgjsG1032"><text id="SvgjsText1033" font-family="微软雅黑" text-anchor="middle" font-size="13px" width="56px" fill="#323232" font-weight="400" align="middle" anchor="middle" family="微软雅黑" size="13px" weight="400" font-style="" opacity="1" y="74.05" transform="rotate(0)"><tspan id="SvgjsTspan1034" dy="16" x="38"><tspan id="SvgjsTspan1035" style="text-decoration:;">客户端</tspan></tspan><tspan id="SvgjsTspan1036" dy="16" x="38"><tspan id="SvgjsTspan1037" style="text-decoration:;">应用程序</tspan></tspan></text></g></g><g id="SvgjsG1038" transform="translate(716,90)"><path id="SvgjsPath1039" d="M 0 0L 147 0L 147 372L 0 372Z" stroke="rgba(255,204,153,1)" stroke-width="2" fill-opacity="1" fill="#ffcc99"></path><g id="SvgjsG1040"><text id="SvgjsText1041" font-family="微软雅黑" text-anchor="middle" font-size="13px" width="127px" fill="#323232" font-weight="400" align="middle" anchor="middle" family="微软雅黑" size="13px" weight="400" font-style="" opacity="1" y="176.05" transform="rotate(0)"><tspan id="SvgjsTspan1042" dy="16" x="73.5"><tspan id="SvgjsTspan1043" style="text-decoration:;">内核</tspan></tspan></text></g></g><g id="SvgjsG1044" transform="translate(390,245)"><path id="SvgjsPath1045" d="M 0 35C 0 -11.666666666666666 70 -11.666666666666666 70 35C 70 81.66666666666667 0 81.66666666666667 0 35Z" stroke="rgba(255,204,153,1)" stroke-width="2" fill-opacity="1" fill="#ffcc99"></path><g id="SvgjsG1046"><text id="SvgjsText1047" font-family="微软雅黑" text-anchor="middle" font-size="13px" width="50px" fill="#323232" font-weight="400" align="middle" anchor="middle" family="微软雅黑" size="13px" weight="400" font-style="" opacity="1" y="25.05" transform="rotate(0)"><tspan id="SvgjsTspan1048" dy="16" x="35"><tspan id="SvgjsTspan1049" style="text-decoration:;">网卡</tspan></tspan></text></g></g><g id="SvgjsG1050" transform="translate(589,245)"><path id="SvgjsPath1051" d="M 0 35C 0 -11.666666666666666 70 -11.666666666666666 70 35C 70 81.66666666666667 0 81.66666666666667 0 35Z" stroke="rgba(255,204,153,1)" stroke-width="2" fill-opacity="1" fill="#ffcc99"></path><g id="SvgjsG1052"><text id="SvgjsText1053" font-family="微软雅黑" text-anchor="middle" font-size="13px" width="50px" fill="#323232" font-weight="400" align="middle" anchor="middle" family="微软雅黑" size="13px" weight="400" font-style="" opacity="1" y="25.05" transform="rotate(0)"><tspan id="SvgjsTspan1054" dy="16" x="35"><tspan id="SvgjsTspan1055" style="text-decoration:;">网卡</tspan></tspan></text></g></g><g id="SvgjsG1056" transform="translate(32,539)"><path id="SvgjsPath1057" d="M 0 0L 120 0L 120 40L 0 40Z" stroke="none" fill="none"></path><g id="SvgjsG1058"><text id="SvgjsText1059" font-family="微软雅黑" text-anchor="middle" font-size="16px" width="120px" fill="#323232" font-weight="400" align="middle" anchor="middle" family="微软雅黑" size="16px" weight="400" font-style="" opacity="1" y="7.6" transform="rotate(0)"><tspan id="SvgjsTspan1060" dy="20" x="60"><tspan id="SvgjsTspan1061" style="text-decoration:;">电脑 A</tspan></tspan></text></g></g><g id="SvgjsG1062" transform="translate(889,539)"><path id="SvgjsPath1063" d="M 0 0L 120 0L 120 40L 0 40Z" stroke="none" fill="none"></path><g id="SvgjsG1064"><text id="SvgjsText1065" font-family="微软雅黑" text-anchor="middle" font-size="16px" width="120px" fill="#323232" font-weight="400" align="middle" anchor="middle" family="微软雅黑" size="16px" weight="400" font-style="" opacity="1" y="7.6" transform="rotate(0)"><tspan id="SvgjsTspan1066" dy="20" x="60"><tspan id="SvgjsTspan1067" style="text-decoration:;">电脑 B</tspan></tspan></text></g></g><g id="SvgjsG1068" transform="translate(734,143)"><path id="SvgjsPath1069" d="M 0 0L 100 0L 100 70L 0 70Z" stroke="rgba(255,153,51,1)" stroke-width="2" fill-opacity="1" fill="#ff9933"></path><g id="SvgjsG1070"><text id="SvgjsText1071" font-family="微软雅黑" text-anchor="middle" font-size="13px" width="80px" fill="#323232" font-weight="400" align="middle" anchor="middle" family="微软雅黑" size="13px" weight="400" font-style="" opacity="1" y="25.05" transform="rotate(0)"><tspan id="SvgjsTspan1072" dy="16" x="50"><tspan id="SvgjsTspan1073" style="text-decoration:;">缓冲区 fd</tspan></tspan></text></g></g><g id="SvgjsG1074"><path id="SvgjsPath1075" d="M834 178C 884.9116882454314 178 873.0883117545686 268 924 268" stroke="#3333ff" stroke-width="1" fill="none" marker-start="url(#SvgjsMarker1076)"></path></g><g id="SvgjsG1078"><path id="SvgjsPath1079" d="M734 178C 682.480683234344 178 628.4902043185626 193.67672978874435 624 245" stroke="#6666ff" stroke-width="1" fill="none" marker-end="url(#SvgjsMarker1080)"></path></g><g id="SvgjsG1082"><path id="SvgjsPath1083" d="M589 280L460 280" stroke="#00ff00" stroke-width="2" fill="none" marker-start="url(#SvgjsMarker1084)" marker-end="url(#SvgjsMarker1086)"></path></g><g id="SvgjsG1088" transform="translate(499,267)"><path id="SvgjsPath1089" d="M 0 0L 48 0L 48 31L 0 31Z" stroke="rgba(255,153,204,1)" stroke-width="2" fill-opacity="1" fill="#ff99cc"></path><g id="SvgjsG1090"><text id="SvgjsText1091" font-family="微软雅黑" text-anchor="middle" font-size="13px" width="28px" fill="#323232" font-weight="400" align="middle" anchor="middle" family="微软雅黑" size="13px" weight="400" font-style="" opacity="1" y="5.55" transform="rotate(0)"><tspan id="SvgjsTspan1092" dy="16" x="24"><tspan id="SvgjsTspan1093" style="text-decoration:;">网线</tspan></tspan></text></g></g><g id="SvgjsG1094" transform="translate(229,131)"><path id="SvgjsPath1095" d="M 0 0L 100 0L 100 70L 0 70Z" stroke="rgba(255,153,51,1)" stroke-width="2" fill-opacity="1" fill="#ff9933"></path><g id="SvgjsG1096"><text id="SvgjsText1097" font-family="微软雅黑" text-anchor="middle" font-size="13px" width="80px" fill="#323232" font-weight="400" align="middle" anchor="middle" family="微软雅黑" size="13px" weight="400" font-style="" opacity="1" y="25.05" transform="rotate(0)"><tspan id="SvgjsTspan1098" dy="16" x="50"><tspan id="SvgjsTspan1099" style="text-decoration:;">缓冲区 fd</tspan></tspan></text></g></g><g id="SvgjsG1100"><path id="SvgjsPath1101" d="M390 280C 338.4791062134166 284.5074941410493 380.7176952309362 166 329 166" stroke="#6666ff" stroke-width="1" fill="none" marker-end="url(#SvgjsMarker1102)"></path></g><g id="SvgjsG1104"><path id="SvgjsPath1105" d="M229 166C 176.8463807583788 166 99.00000000000001 123.84638075837881 99 176" stroke="#6666ff" stroke-width="1" fill="none" marker-end="url(#SvgjsMarker1106)"></path></g><g id="SvgjsG1108"><path id="SvgjsPath1109" d="M99 360C 99.00000000000001 451.36213657746845 262 291.36213657746845 262 200" stroke="#b266ff" stroke-width="1" fill="none" marker-end="url(#SvgjsMarker1110)"></path></g><g id="SvgjsG1112"><path id="SvgjsPath1113" d="M279 201C 279 275.09399435851736 431.4577171114574 388.81204434039466 425 315" stroke="#b266ff" stroke-width="1" fill="none" marker-end="url(#SvgjsMarker1114)"></path></g><g id="SvgjsG1116"><path id="SvgjsPath1117" d="M624 315C 630.3526911540205 387.6115921537438 775 285.8889566395349 775 213" stroke="#b266ff" stroke-width="1" fill="none" marker-end="url(#SvgjsMarker1118)"></path></g><g id="SvgjsG1120"><path id="SvgjsPath1121" d="M784 213C 784 305.34110677266113 962 452.34110677266113 962 360" stroke="#b266ff" stroke-width="1" fill="none" marker-end="url(#SvgjsMarker1122)"></path></g><g id="SvgjsG1124" transform="translate(152,147)"><path id="SvgjsPath1125" d="M 0 4Q 0 0 4 0L 43 0Q 47 0 47 4L 47 18Q 47 22 43 22L 4 22Q 0 22 0 18Z" stroke="rgba(51,255,51,1)" stroke-width="2" fill-opacity="1" fill="#33ff33"></path><g id="SvgjsG1126"><text id="SvgjsText1127" font-family="微软雅黑" text-anchor="middle" font-size="13px" width="27px" fill="#323232" font-weight="400" align="middle" anchor="middle" family="微软雅黑" size="13px" weight="400" font-style="" opacity="1" y="1.05" transform="rotate(0)"><tspan id="SvgjsTspan1128" dy="16" x="23.5"><tspan id="SvgjsTspan1129" style="text-decoration:;">read</tspan></tspan></text></g></g><g id="SvgjsG1130" transform="translate(869,206)"><path id="SvgjsPath1131" d="M 0 4Q 0 0 4 0L 46 0Q 50 0 50 4L 50 18Q 50 22 46 22L 4 22Q 0 22 0 18Z" stroke="rgba(51,255,51,1)" stroke-width="2" fill-opacity="1" fill="#33ff33"></path><g id="SvgjsG1132"><text id="SvgjsText1133" font-family="微软雅黑" text-anchor="middle" font-size="13px" width="30px" fill="#323232" font-weight="400" align="middle" anchor="middle" family="微软雅黑" size="13px" weight="400" font-style="" opacity="1" y="1.05" transform="rotate(0)"><tspan id="SvgjsTspan1134" dy="16" x="25"><tspan id="SvgjsTspan1135" style="text-decoration:;">write</tspan></tspan></text></g></g><g id="SvgjsG1136" transform="translate(880,373)"><path id="SvgjsPath1137" d="M 0 4Q 0 0 4 0L 54 0Q 58 0 58 4L 58 18Q 58 22 54 22L 4 22Q 0 22 0 18Z" stroke="rgba(51,255,51,1)" stroke-width="2" fill-opacity="1" fill="#33ff33"></path><g id="SvgjsG1138"><text id="SvgjsText1139" font-family="微软雅黑" text-anchor="middle" font-size="13px" width="38px" fill="#323232" font-weight="400" align="middle" anchor="middle" family="微软雅黑" size="13px" weight="400" font-style="" opacity="1" y="1.05" transform="rotate(0)"><tspan id="SvgjsTspan1140" dy="16" x="29"><tspan id="SvgjsTspan1141" style="text-decoration:;">read</tspan></tspan></text></g></g><g id="SvgjsG1142" transform="translate(144,365)"><path id="SvgjsPath1143" d="M 0 4Q 0 0 4 0L 46 0Q 50 0 50 4L 50 18Q 50 22 46 22L 4 22Q 0 22 0 18Z" stroke="rgba(51,255,51,1)" stroke-width="2" fill-opacity="1" fill="#33ff33"></path><g id="SvgjsG1144"><text id="SvgjsText1145" font-family="微软雅黑" text-anchor="middle" font-size="13px" width="30px" fill="#323232" font-weight="400" align="middle" anchor="middle" family="微软雅黑" size="13px" weight="400" font-style="" opacity="1" y="1.05" transform="rotate(0)"><tspan id="SvgjsTspan1146" dy="16" x="25"><tspan id="SvgjsTspan1147" style="text-decoration:;">write</tspan></tspan></text></g></g></svg>