<svg id="SvgjsSvg1006" width="1212" height="891" xmlns="http://www.w3.org/2000/svg" version="1.1" xmlns:xlink="http://www.w3.org/1999/xlink" xmlns:svgjs="http://svgjs.com/svgjs"><defs id="SvgjsDefs1007"><marker id="SvgjsMarker1092" markerWidth="16" markerHeight="12" refX="10" refY="6" viewBox="0 0 16 12" orient="auto" markerUnits="userSpaceOnUse" stroke-dasharray="0,0"><path id="SvgjsPath1093" d="M0,3 L10,6 L0,9 L0,3" fill="#ff9933" stroke="#ff9933" stroke-width="1"></path></marker><marker id="SvgjsMarker1096" markerWidth="16" markerHeight="12" refX="10" refY="6" viewBox="0 0 16 12" orient="auto" markerUnits="userSpaceOnUse" stroke-dasharray="0,0"><path id="SvgjsPath1097" d="M0,3 L10,6 L0,9 L0,3" fill="#ffb366" stroke="#ffb366" stroke-width="1"></path></marker><marker id="SvgjsMarker1136" markerWidth="16" markerHeight="12" refX="10" refY="6" viewBox="0 0 16 12" orient="auto" markerUnits="userSpaceOnUse" stroke-dasharray="0,0"><path id="SvgjsPath1137" d="M0,3 L10,6 L0,9 L0,3" fill="#ffb366" stroke="#ffb366" stroke-width="1"></path></marker><marker id="SvgjsMarker1140" markerWidth="16" markerHeight="12" refX="10" refY="6" viewBox="0 0 16 12" orient="auto" markerUnits="userSpaceOnUse" stroke-dasharray="0,0"><path id="SvgjsPath1141" d="M0,3 L10,6 L0,9 L0,3" fill="#ffb366" stroke="#ffb366" stroke-width="1"></path></marker><marker id="SvgjsMarker1156" markerWidth="16" markerHeight="12" refX="10" refY="6" viewBox="0 0 16 12" orient="auto" markerUnits="userSpaceOnUse" stroke-dasharray="0,0"><path id="SvgjsPath1157" d="M0,3 L10,6 L0,9 L0,3" fill="#ffb366" stroke="#ffb366" stroke-width="1"></path></marker><marker id="SvgjsMarker1216" markerWidth="16" markerHeight="12" refX="10" refY="6" viewBox="0 0 16 12" orient="auto" markerUnits="userSpaceOnUse" stroke-dasharray="0,0"><path id="SvgjsPath1217" d="M0,3 L10,6 L0,9 L0,3" fill="#ff9933" stroke="#ff9933" stroke-width="1"></path></marker><marker id="SvgjsMarker1232" markerWidth="16" markerHeight="12" refX="10" refY="6" viewBox="0 0 16 12" orient="auto" markerUnits="userSpaceOnUse" stroke-dasharray="0,0"><path id="SvgjsPath1233" d="M0,3 L10,6 L0,9 L0,3" fill="#ffb366" stroke="#ffb366" stroke-width="1"></path></marker></defs><g id="SvgjsG1008"><path id="SvgjsPath1009" d="M185 92L178 832.5" stroke-dasharray="10,5,3,5" stroke="#ff9933" stroke-width="1" fill="none"></path></g><g id="SvgjsG1010" transform="translate(25,202)"><path id="SvgjsPath1011" d="M 0 0L 1162 0L 1162 501L 0 501Z" stroke="rgba(102,255,255,1)" stroke-width="2" fill-opacity="1" fill="#99ffff"></path><g id="SvgjsG1012"><text id="SvgjsText1013" font-family="微软雅黑" text-anchor="middle" font-size="13px" width="1142px" fill="#323232" font-weight="400" align="middle" anchor="middle" family="微软雅黑" size="13px" weight="400" font-style="" opacity="1" y="240.55" transform="rotate(0)"></text></g></g><g id="SvgjsG1014" transform="translate(115,25)"><path id="SvgjsPath1015" d="M 0 4Q 0 0 4 0L 136 0Q 140 0 140 4L 140 63Q 140 67 136 67L 4 67Q 0 67 0 63Z" stroke="rgba(255,153,153,1)" stroke-width="2" fill-opacity="1" fill="#ff9999"></path><g id="SvgjsG1016"><text id="SvgjsText1017" font-family="微软雅黑" text-anchor="middle" font-size="13px" width="120px" fill="#323232" font-weight="400" align="middle" anchor="middle" family="微软雅黑" size="13px" weight="400" font-style="" opacity="1" y="23.55" transform="rotate(0)"><tspan id="SvgjsTspan1018" dy="16" x="70"><tspan id="SvgjsTspan1019" style="text-decoration:;">Client</tspan></tspan></text></g></g><g id="SvgjsG1020" transform="translate(611,25)"><path id="SvgjsPath1021" d="M 0 4Q 0 0 4 0L 136 0Q 140 0 140 4L 140 63Q 140 67 136 67L 4 67Q 0 67 0 63Z" stroke="rgba(255,153,153,1)" stroke-width="2" fill-opacity="1" fill="#ff9999"></path><g id="SvgjsG1022"><text id="SvgjsText1023" font-family="微软雅黑" text-anchor="middle" font-size="13px" width="120px" fill="#323232" font-weight="400" align="middle" anchor="middle" family="微软雅黑" size="13px" weight="400" font-style="" opacity="1" y="23.55" transform="rotate(0)"><tspan id="SvgjsTspan1024" dy="16" x="70"><tspan id="SvgjsTspan1025" style="text-decoration:;">Server</tspan></tspan></text></g></g><g id="SvgjsG1026"><path id="SvgjsPath1027" d="M681 92L681 866" stroke-dasharray="10,5,3,5" stroke="#ff9933" stroke-width="1" fill="none"></path></g><g id="SvgjsG1028" transform="translate(116.5,103)"><path id="SvgjsPath1029" d="M 0 0L 206 0L 206 28L 0 28Z" stroke="rgba(153,204,255,1)" stroke-width="2" fill-opacity="1" fill="#99ccff"></path><g id="SvgjsG1030"><text id="SvgjsText1031" font-family="微软雅黑" text-anchor="middle" font-size="13px" width="186px" fill="#323232" font-weight="400" align="middle" anchor="middle" family="微软雅黑" size="13px" weight="400" font-style="" opacity="1" y="4.05" transform="rotate(0)"><tspan id="SvgjsTspan1032" dy="16" x="103"><tspan id="SvgjsTspan1033" style="text-decoration:;">Socket.bind(clientIp,clientPort)</tspan></tspan></text></g></g><g id="SvgjsG1034" transform="translate(119,157)"><path id="SvgjsPath1035" d="M 0 0L 245 0L 245 35L 0 35Z" stroke="rgba(153,204,255,1)" stroke-width="2" fill-opacity="1" fill="#99ccff"></path><g id="SvgjsG1036"><text id="SvgjsText1037" font-family="微软雅黑" text-anchor="middle" font-size="13px" width="225px" fill="#323232" font-weight="400" align="middle" anchor="middle" family="微软雅黑" size="13px" weight="400" font-style="" opacity="1" y="7.55" transform="rotate(0)"><tspan id="SvgjsTspan1038" dy="16" x="122.5"><tspan id="SvgjsTspan1039" style="text-decoration:;">Socket.connect(serverIp,serverPort)</tspan></tspan></text></g></g><g id="SvgjsG1040" transform="translate(558,103)"><path id="SvgjsPath1041" d="M 0 0L 314 0L 314 35L 0 35Z" stroke="rgba(153,204,255,1)" stroke-width="2" fill-opacity="1" fill="#99ccff"></path><g id="SvgjsG1042"><text id="SvgjsText1043" font-family="微软雅黑" text-anchor="middle" font-size="13px" width="294px" fill="#323232" font-weight="400" align="middle" anchor="middle" family="微软雅黑" size="13px" weight="400" font-style="" opacity="1" y="7.55" transform="rotate(0)"><tspan id="SvgjsTspan1044" dy="16" x="157"><tspan id="SvgjsTspan1045" style="text-decoration:;">ServerSocket.bind(serverIp,serverPort,backlog)</tspan></tspan></text></g></g><g id="SvgjsG1046" transform="translate(558,147)"><path id="SvgjsPath1047" d="M 0 0L 157 0L 157 27L 0 27Z" stroke="rgba(153,204,255,1)" stroke-width="2" fill-opacity="1" fill="#99ccff"></path><g id="SvgjsG1048"><text id="SvgjsText1049" font-family="微软雅黑" text-anchor="middle" font-size="13px" width="137px" fill="#323232" font-weight="400" align="middle" anchor="middle" family="微软雅黑" size="13px" weight="400" font-style="" opacity="1" y="3.55" transform="rotate(0)"><tspan id="SvgjsTspan1050" dy="16" x="78.5"><tspan id="SvgjsTspan1051" style="text-decoration:;">ServerSocket.listen</tspan></tspan></text></g></g><g id="SvgjsG1052" transform="translate(197,280)"><path id="SvgjsPath1053" d="M 0 19C 0 -6.333333333333333 89 -6.333333333333333 89 19Q 87.22 37.24 44.5 38Q 29.666666666666668 38 14.833333333333334 34.2L 0 38L 10.413 32.566Q 0 26.599999999999998 0 19" stroke="rgba(153,204,255,1)" stroke-width="2" fill-opacity="1" fill="#99ccff"></path><g id="SvgjsG1054"><text id="SvgjsText1055" font-family="微软雅黑" text-anchor="middle" font-size="13px" width="69px" fill="#323232" font-weight="400" align="middle" anchor="middle" family="微软雅黑" size="13px" weight="400" font-style="" opacity="1" y="9.05" transform="rotate(0)"><tspan id="SvgjsTspan1056" dy="16" x="44.5"><tspan id="SvgjsTspan1057" style="text-decoration:;">SYN_SENT</tspan></tspan></text></g></g><g id="SvgjsG1058" transform="translate(196.94166666666666,460.99999999999966)"><path id="SvgjsPath1059" d="M 0 27.500000000000057C 0 -9.166666666666686 105.11666666666666 -9.166666666666686 105.11666666666666 27.500000000000057Q 103.01433333333333 53.90000000000011 52.55833333333333 55.000000000000114Q 35.038888888888884 55.000000000000114 17.519444444444442 49.50000000000011L 0 55.000000000000114L 12.29865 47.1350000000001Q 0 38.50000000000008 0 27.500000000000057" stroke="rgba(102,178,255,1)" stroke-width="2" fill-opacity="1" fill="#99ccff"></path><g id="SvgjsG1060"><text id="SvgjsText1061" font-family="微软雅黑" text-anchor="middle" font-size="13px" width="86px" fill="#323232" font-weight="400" align="middle" anchor="middle" family="微软雅黑" size="13px" weight="400" font-style="" opacity="1" y="17.550000000000058" transform="rotate(0)"></text></g></g><g id="SvgjsG1062" transform="matrix(-1,1.2246467991473532e-16,-1.2246467991473532e-16,-1,668,421)"><path id="SvgjsPath1063" d="M 0 19C 0 -6.333333333333333 89 -6.333333333333333 89 19Q 87.22 37.24 44.5 38Q 29.666666666666668 38 14.833333333333334 34.2L 0 38L 10.413 32.566Q 0 26.599999999999998 0 19" stroke="rgba(153,204,255,1)" stroke-width="2" fill-opacity="1" fill="#99ccff"></path><g id="SvgjsG1064"><text id="SvgjsText1065" font-family="微软雅黑" text-anchor="middle" font-size="13px" width="69px" fill="#323232" font-weight="400" align="middle" anchor="middle" family="微软雅黑" size="13px" weight="400" font-style="" opacity="1" y="9.05" transform="rotate(0)"><tspan id="SvgjsTspan1066" dy="16" x="44.5"><tspan id="SvgjsTspan1067" style="text-decoration:;"> </tspan></tspan></text></g></g><g id="SvgjsG1068" transform="matrix(-1,1.2246467991473532e-16,-1.2246467991473532e-16,-1,668,637)"><path id="SvgjsPath1069" d="M 0 24.99999999999997C 0 -8.333333333333323 120 -8.333333333333323 120 24.99999999999997Q 117.6 48.99999999999994 60 49.99999999999994Q 40 49.99999999999994 20 44.99999999999995L 0 49.99999999999994L 14.040000000000001 42.84999999999995Q 0 34.99999999999996 0 24.99999999999997" stroke="rgba(102,178,255,1)" stroke-width="2" fill-opacity="1" fill="#66b2ff"></path><g id="SvgjsG1070"><text id="SvgjsText1071" font-family="微软雅黑" text-anchor="middle" font-size="13px" width="100px" fill="#323232" font-weight="400" align="middle" anchor="middle" family="微软雅黑" size="13px" weight="400" font-style="" opacity="1" y="15.049999999999972" transform="rotate(0)"></text></g></g><g id="SvgjsG1072" transform="translate(548,592)"><path id="SvgjsPath1073" d="M 0 0L 120 0L 120 40L 0 40Z" stroke="none" fill="none"></path><g id="SvgjsG1074"><text id="SvgjsText1075" font-family="微软雅黑" text-anchor="middle" font-size="13px" width="120px" fill="#323232" font-weight="400" align="middle" anchor="middle" family="微软雅黑" size="13px" weight="400" font-style="" opacity="1" y="10.05" transform="rotate(0)"><tspan id="SvgjsTspan1076" dy="16" x="60"><tspan id="SvgjsTspan1077" style="text-decoration:;">ESTABLISHED</tspan></tspan></text></g></g><g id="SvgjsG1078" transform="translate(190,467.3461538461536)"><path id="SvgjsPath1079" d="M 0 0L 119 0L 119 42.3076923076924L 0 42.3076923076924Z" stroke="none" fill="none"></path><g id="SvgjsG1080"><text id="SvgjsText1081" font-family="微软雅黑" text-anchor="middle" font-size="13px" width="119px" fill="#323232" font-weight="400" align="middle" anchor="middle" family="微软雅黑" size="13px" weight="400" font-style="" opacity="1" y="11.2038461538462" transform="rotate(0)"><tspan id="SvgjsTspan1082" dy="16" x="59.5"><tspan id="SvgjsTspan1083" style="text-decoration:;">ESTABLISHED</tspan></tspan></text></g></g><g id="SvgjsG1084" transform="translate(579,386.99999999999983)"><path id="SvgjsPath1085" d="M 0 0L 84 0L 84 30.000000000000114L 0 30.000000000000114Z" stroke="none" fill="none"></path><g id="SvgjsG1086"><text id="SvgjsText1087" font-family="微软雅黑" text-anchor="middle" font-size="13px" width="84px" fill="#323232" font-weight="400" align="middle" anchor="middle" family="微软雅黑" size="13px" weight="400" font-style="" opacity="1" y="5.050000000000057" transform="rotate(0)"><tspan id="SvgjsTspan1088" dy="16" x="42"><tspan id="SvgjsTspan1089" style="text-decoration:;">SYN_RCVD</tspan></tspan></text></g></g><g id="SvgjsG1090"><path id="SvgjsPath1091" d="M185 247C 321 185 518 237 681 295.9999999999999" stroke="#ff9933" stroke-width="1" fill="none" marker-end="url(#SvgjsMarker1092)"></path></g><g id="SvgjsG1094"><path id="SvgjsPath1095" d="M681 342.9999999999999C 379 259 195 426 185 382.9999999999999" stroke="#ffb366" stroke-width="1" fill="none" marker-end="url(#SvgjsMarker1096)"></path></g><g id="SvgjsG1098" transform="translate(775,247)"><path id="SvgjsPath1099" d="M 0 0L 114.5 0L 114.5 135.9999999999999L 0 135.9999999999999Z" stroke="rgba(153,204,255,1)" stroke-width="2" fill-opacity="1" fill="#ffffff"></path><g id="SvgjsG1100"><text id="SvgjsText1101" font-family="微软雅黑" text-anchor="middle" font-size="13px" width="95px" fill="#323232" font-weight="400" align="middle" anchor="middle" family="微软雅黑" size="13px" weight="400" font-style="" opacity="1" y="58.04999999999994" transform="rotate(0)"></text></g></g><g id="SvgjsG1102" transform="translate(774.5,335.9999999999999)"><path id="SvgjsPath1103" d="M 0 0L 115.5 0L 115.5 47L 0 47Z" stroke="rgba(153,204,255,1)" stroke-width="2" fill-opacity="1" fill="#66b2ff"></path><g id="SvgjsG1104"><text id="SvgjsText1105" font-family="微软雅黑" text-anchor="middle" font-size="13px" width="96px" fill="#323232" font-weight="400" align="middle" anchor="middle" family="微软雅黑" size="13px" weight="400" font-style="" opacity="1" y="13.55" transform="rotate(0)"></text></g></g><g id="SvgjsG1106" transform="translate(774.5,288.9999999999999)"><path id="SvgjsPath1107" d="M 0 0L 115.5 0L 115.5 47L 0 47Z" stroke="rgba(153,204,255,1)" stroke-width="2" fill-opacity="1" fill="#66b2ff"></path><g id="SvgjsG1108"><text id="SvgjsText1109" font-family="微软雅黑" text-anchor="middle" font-size="13px" width="96px" fill="#323232" font-weight="400" align="middle" anchor="middle" family="微软雅黑" size="13px" weight="400" font-style="" opacity="1" y="13.55" transform="rotate(0)"></text></g></g><g id="SvgjsG1110" transform="translate(811,485.9999999999999)"><path id="SvgjsPath1111" d="M 0 0L 114.5 0L 114.5 135.9999999999999L 0 135.9999999999999Z" stroke="rgba(153,204,255,1)" stroke-width="2" fill-opacity="1" fill="#ffffff"></path><g id="SvgjsG1112"><text id="SvgjsText1113" font-family="微软雅黑" text-anchor="middle" font-size="13px" width="95px" fill="#323232" font-weight="400" align="middle" anchor="middle" family="微软雅黑" size="13px" weight="400" font-style="" opacity="1" y="58.04999999999994" transform="rotate(0)"></text></g></g><g id="SvgjsG1114" transform="translate(810.5,574.9999999999998)"><path id="SvgjsPath1115" d="M 0 0L 115.5 0L 115.5 47L 0 47Z" stroke="rgba(153,204,255,1)" stroke-width="2" fill-opacity="1" fill="#66b2ff"></path><g id="SvgjsG1116"><text id="SvgjsText1117" font-family="微软雅黑" text-anchor="middle" font-size="13px" width="96px" fill="#323232" font-weight="400" align="middle" anchor="middle" family="微软雅黑" size="13px" weight="400" font-style="" opacity="1" y="13.55" transform="rotate(0)"></text></g></g><g id="SvgjsG1118" transform="translate(810.5,527.9999999999998)"><path id="SvgjsPath1119" d="M 0 0L 115.5 0L 115.5 47L 0 47Z" stroke="rgba(153,204,255,1)" stroke-width="2" fill-opacity="1" fill="#66b2ff"></path><g id="SvgjsG1120"><text id="SvgjsText1121" font-family="微软雅黑" text-anchor="middle" font-size="13px" width="96px" fill="#323232" font-weight="400" align="middle" anchor="middle" family="微软雅黑" size="13px" weight="400" font-style="" opacity="1" y="13.55" transform="rotate(0)"></text></g></g><g id="SvgjsG1122" transform="translate(890,250.9999999999999)"><path id="SvgjsPath1123" d="M 0 19C 0 -6.333333333333333 172 -6.333333333333333 172 19Q 168.56 37.24 86 38Q 57.333333333333336 38 28.666666666666668 34.2L 0 38L 20.124000000000002 32.566Q 0 26.599999999999998 0 19" stroke="rgba(153,204,255,1)" stroke-width="2" fill-opacity="1" fill="#99ccff"></path><g id="SvgjsG1124"><text id="SvgjsText1125" font-family="微软雅黑" text-anchor="middle" font-size="13px" width="152px" fill="#323232" font-weight="400" align="middle" anchor="middle" family="微软雅黑" size="13px" weight="400" font-style="" opacity="1" y="9.05" transform="rotate(0)"><tspan id="SvgjsTspan1126" dy="16" x="86"><tspan id="SvgjsTspan1127" style="text-decoration:;">syns queue(半连接队列）</tspan></tspan></text></g></g><g id="SvgjsG1128" transform="translate(926,466)"><path id="SvgjsPath1129" d="M 0 22C 0 -7.333333333333333 217 -7.333333333333333 217 22Q 212.66 43.12 108.5 44Q 72.33333333333333 44 36.166666666666664 39.6L 0 44L 25.389000000000003 37.708Q 0 30.799999999999997 0 22" stroke="rgba(153,204,255,1)" stroke-width="2" fill-opacity="1" fill="#99ccff"></path><g id="SvgjsG1130"><text id="SvgjsText1131" font-family="微软雅黑" text-anchor="middle" font-size="13px" width="197px" fill="#323232" font-weight="400" align="middle" anchor="middle" family="微软雅黑" size="13px" weight="400" font-style="" opacity="1" y="12.05" transform="rotate(0)"><tspan id="SvgjsTspan1132" dy="16" x="108.5"><tspan id="SvgjsTspan1133" style="text-decoration:;">accept queue（全连接队列）</tspan></tspan></text></g></g><g id="SvgjsG1134"><path id="SvgjsPath1135" d="M832.25 382.9999999999999C 832.25 457.5265724423174 765.5265724423175 504.4999999999998 691 504.4999999999998" stroke="#ffb366" stroke-width="1" fill="none" marker-end="url(#SvgjsMarker1136)"></path></g><g id="SvgjsG1138"><path id="SvgjsPath1139" d="M681 546C 724 517 822 456 868.25 485.9999999999999" stroke="#ffb366" stroke-width="1" fill="none" marker-end="url(#SvgjsMarker1140)"></path></g><g id="SvgjsG1142" transform="translate(571,723)"><path id="SvgjsPath1143" d="M 0 0L 235 0L 235 34L 0 34Z" stroke="rgba(102,178,255,1)" stroke-width="2" fill-opacity="1" fill="#66b2ff"></path><g id="SvgjsG1144"><text id="SvgjsText1145" font-family="微软雅黑" text-anchor="middle" font-size="13px" width="215px" fill="#323232" font-weight="400" align="middle" anchor="middle" family="微软雅黑" size="13px" weight="400" font-style="" opacity="1" y="7.05" transform="rotate(0)"><tspan id="SvgjsTspan1146" dy="16" x="117.5"><tspan id="SvgjsTspan1147" style="text-decoration:;">ServerSocket.accept</tspan></tspan></text></g></g><g id="SvgjsG1148" transform="translate(45,608)"><path id="SvgjsPath1149" d="M 0 0L 250 0L 250 60L 0 60Z" stroke="none" fill="none"></path><g id="SvgjsG1150"><text id="SvgjsText1151" font-family="微软雅黑" text-anchor="middle" font-size="22px" width="250px" fill="#ff3333" font-weight="400" align="middle" anchor="middle" family="微软雅黑" size="22px" weight="400" font-style="" opacity="1" y="10.7" transform="rotate(0)"><tspan id="SvgjsTspan1152" dy="27" x="125"><tspan id="SvgjsTspan1153" style="text-decoration:;">内核完成 TCP 三次握手</tspan></tspan></text></g></g><g id="SvgjsG1154"><path id="SvgjsPath1155" d="M868.25 621.9999999999998C 868.25 675.3652508660831 859.3652508660833 740 806 740" stroke="#ffb366" stroke-width="1" fill="none" marker-end="url(#SvgjsMarker1156)"></path></g><g id="SvgjsG1158" transform="translate(178,805)"><path id="SvgjsPath1159" d="M 0 27.5L 27.5 0L 27.5 18.150000000000002L 475.5 18.150000000000002L 475.5 0L 503 27.5L 475.5 55L 475.5 36.85L 27.5 36.85L 27.5 55L 0 27.5Z" stroke="rgba(153,204,255,1)" stroke-width="2" fill-opacity="1" fill="#99ccff"></path><g id="SvgjsG1160"><text id="SvgjsText1161" font-family="微软雅黑" text-anchor="middle" font-size="13px" width="503px" fill="#323232" font-weight="400" align="middle" anchor="middle" family="微软雅黑" size="13px" weight="400" font-style="" opacity="1" y="17.550000000000004" transform="rotate(0)"></text></g></g><g id="SvgjsG1162"><path id="SvgjsPath1163" d="M178 832.5L178 856" stroke-dasharray="10,5,3,5" stroke="#ffb366" stroke-width="1" fill="none"></path></g><g id="SvgjsG1164" transform="translate(25,805)"><path id="SvgjsPath1165" d="M 0 0L 120 0L 120 40L 0 40Z" stroke="none" fill="none"></path><g id="SvgjsG1166"><text id="SvgjsText1167" font-family="微软雅黑" text-anchor="middle" font-size="18px" width="120px" fill="#323232" font-weight="400" align="middle" anchor="middle" family="微软雅黑" size="18px" weight="400" font-style="" opacity="1" y="5.800000000000001" transform="rotate(0)"><tspan id="SvgjsTspan1168" dy="22" x="60"><tspan id="SvgjsTspan1169" style="text-decoration:;">read，write</tspan></tspan></text></g></g><g id="SvgjsG1170" transform="translate(709,812.5)"><path id="SvgjsPath1171" d="M 0 0L 120 0L 120 40L 0 40Z" stroke="none" fill="none"></path><g id="SvgjsG1172"><text id="SvgjsText1173" font-family="微软雅黑" text-anchor="middle" font-size="17px" width="120px" fill="#323232" font-weight="400" align="middle" anchor="middle" family="微软雅黑" size="17px" weight="400" font-style="" opacity="1" y="6.95" transform="rotate(0)"><tspan id="SvgjsTspan1174" dy="21" x="60"><tspan id="SvgjsTspan1175" style="text-decoration:;">read，write</tspan></tspan></text></g></g><g id="SvgjsG1176" transform="translate(354,208)"><path id="SvgjsPath1177" d="M 0 4Q 0 0 4 0L 49 0Q 53 0 53 4L 53 21Q 53 25 49 25L 4 25Q 0 25 0 21Z" stroke="rgba(128,255,0,1)" stroke-width="2" fill-opacity="1" fill="#66ff66"></path><g id="SvgjsG1178"><text id="SvgjsText1179" font-family="微软雅黑" text-anchor="middle" font-size="13px" width="33px" fill="#323232" font-weight="400" align="middle" anchor="middle" family="微软雅黑" size="13px" weight="400" font-style="" opacity="1" y="2.55" transform="rotate(0)"><tspan id="SvgjsTspan1180" dy="16" x="26.5"><tspan id="SvgjsTspan1181" style="text-decoration:;">SYN</tspan></tspan></text></g></g><g id="SvgjsG1182" transform="translate(342,322.9999999999999)"><path id="SvgjsPath1183" d="M 0 4Q 0 0 4 0L 92 0Q 96 0 96 4L 96 21Q 96 25 92 25L 4 25Q 0 25 0 21Z" stroke="rgba(128,255,0,1)" stroke-width="2" fill-opacity="1" fill="#66ff66"></path><g id="SvgjsG1184"><text id="SvgjsText1185" font-family="微软雅黑" text-anchor="middle" font-size="13px" width="76px" fill="#323232" font-weight="400" align="middle" anchor="middle" family="微软雅黑" size="13px" weight="400" font-style="" opacity="1" y="2.55" transform="rotate(0)"><tspan id="SvgjsTspan1186" dy="16" x="48"><tspan id="SvgjsTspan1187" style="text-decoration:;">SYN + ACK</tspan></tspan></text></g></g><g id="SvgjsG1188" transform="translate(354,391.99999999999994)"><path id="SvgjsPath1189" d="M 0 4Q 0 0 4 0L 92 0Q 96 0 96 4L 96 21Q 96 25 92 25L 4 25Q 0 25 0 21Z" stroke="rgba(128,255,0,1)" stroke-width="2" fill-opacity="1" fill="#66ff66"></path><g id="SvgjsG1190"><text id="SvgjsText1191" font-family="微软雅黑" text-anchor="middle" font-size="13px" width="76px" fill="#323232" font-weight="400" align="middle" anchor="middle" family="微软雅黑" size="13px" weight="400" font-style="" opacity="1" y="2.55" transform="rotate(0)"><tspan id="SvgjsTspan1192" dy="16" x="48"><tspan id="SvgjsTspan1193" style="text-decoration:;">ACK</tspan></tspan></text></g></g><g id="SvgjsG1194" transform="translate(900,302)"><path id="SvgjsPath1195" d="M 0 4Q 0 0 4 0L 274 0Q 278 0 278 4L 278 21.999999999999886Q 278 25.999999999999886 274 25.999999999999886L 4 25.999999999999886Q 0 25.999999999999886 0 21.999999999999886Z" stroke="rgba(153,204,255,1)" stroke-width="2" fill-opacity="1" fill="#99ccff"></path><g id="SvgjsG1196"><text id="SvgjsText1197" font-family="微软雅黑" text-anchor="middle" font-size="13px" width="258px" fill="#323232" font-weight="400" align="middle" anchor="middle" family="微软雅黑" size="13px" weight="400" font-style="" opacity="1" y="3.049999999999943" transform="rotate(0)"><tspan id="SvgjsTspan1198" dy="16" x="139"><tspan id="SvgjsTspan1199" style="text-decoration:;">博客中有计算公式</tspan></tspan></text></g></g><g id="SvgjsG1200" transform="translate(856,426)"><path id="SvgjsPath1201" d="M 0 4Q 0 0 4 0L 309 0Q 313 0 313 4L 313 20Q 313 24 309 24L 4 24Q 0 24 0 20Z" stroke="rgba(153,204,255,1)" stroke-width="2" fill-opacity="1" fill="#99ccff"></path><g id="SvgjsG1202"><text id="SvgjsText1203" font-family="微软雅黑" text-anchor="middle" font-size="13px" width="293px" fill="#323232" font-weight="400" align="middle" anchor="middle" family="微软雅黑" size="13px" weight="400" font-style="" opacity="1" y="2.05" transform="rotate(0)"><tspan id="SvgjsTspan1204" dy="16" x="156.5"><tspan id="SvgjsTspan1205" style="text-decoration:;">min(backlog，/proc/sys/net/core/somaxconn)</tspan></tspan></text></g></g><g id="SvgjsG1206" transform="translate(175,247)"><path id="SvgjsPath1207" d="M 0 0L 20 0L 20 135.9999999999999L 0 135.9999999999999Z" stroke="rgba(255,153,51,1)" stroke-width="2" fill-opacity="1" fill="#ff9933"></path><g id="SvgjsG1208"><text id="SvgjsText1209" font-family="微软雅黑" text-anchor="middle" font-size="13px" width="0px" fill="#323232" font-weight="400" align="middle" anchor="middle" family="微软雅黑" size="13px" weight="400" font-style="" opacity="1" y="58.04999999999994" transform="rotate(0)"></text></g></g><g id="SvgjsG1210" transform="translate(671,295.9999999999999)"><path id="SvgjsPath1211" d="M 0 0L 20 0L 20 47L 0 47Z" stroke="rgba(255,153,51,1)" stroke-width="1" fill-opacity="1" fill="#ff9933"></path><g id="SvgjsG1212"><text id="SvgjsText1213" font-family="微软雅黑" text-anchor="middle" font-size="13px" width="0px" fill="#323232" font-weight="400" align="middle" anchor="middle" family="微软雅黑" size="13px" weight="400" font-style="" opacity="1" y="13.55" transform="rotate(0)"></text></g></g><g id="SvgjsG1214"><path id="SvgjsPath1215" d="M689 314C 746.3 287.2 763 207 832.25 247" stroke="#ff9933" stroke-width="1" fill="none" marker-end="url(#SvgjsMarker1216)"></path></g><g id="SvgjsG1218" transform="translate(671,353.0000000000002)"><path id="SvgjsPath1219" d="M 0 0L 20 0L 20 112.99999999999977L 0 112.99999999999977Z" stroke="rgba(255,153,51,1)" stroke-width="2" fill-opacity="1" fill="#ff9933"></path><g id="SvgjsG1220"><text id="SvgjsText1221" font-family="微软雅黑" text-anchor="middle" font-size="13px" width="0px" fill="#323232" font-weight="400" align="middle" anchor="middle" family="微软雅黑" size="13px" weight="400" font-style="" opacity="1" y="46.54999999999988" transform="rotate(0)"></text></g></g><g id="SvgjsG1222" transform="translate(175,410.00000000000006)"><path id="SvgjsPath1223" d="M 0 0L 20 0L 20 135.9999999999999L 0 135.9999999999999Z" stroke="rgba(255,153,51,1)" stroke-width="2" fill-opacity="1" fill="#ff9933"></path><g id="SvgjsG1224"><text id="SvgjsText1225" font-family="微软雅黑" text-anchor="middle" font-size="13px" width="0px" fill="#323232" font-weight="400" align="middle" anchor="middle" family="微软雅黑" size="13px" weight="400" font-style="" opacity="1" y="58.04999999999994" transform="rotate(0)"></text></g></g><g id="SvgjsG1226" transform="translate(671,480.9999999999998)"><path id="SvgjsPath1227" d="M 0 0L 20 0L 20 47L 0 47Z" stroke="rgba(255,153,51,1)" stroke-width="1" fill-opacity="1" fill="#ff9933"></path><g id="SvgjsG1228"><text id="SvgjsText1229" font-family="微软雅黑" text-anchor="middle" font-size="13px" width="0px" fill="#323232" font-weight="400" align="middle" anchor="middle" family="微软雅黑" size="13px" weight="400" font-style="" opacity="1" y="13.55" transform="rotate(0)"></text></g></g><g id="SvgjsG1230"><path id="SvgjsPath1231" d="M185 410.00000000000006C 297 367 407 385 681 480.9999999999998" stroke="#ffb366" stroke-width="1" fill="none" marker-end="url(#SvgjsMarker1232)"></path></g><g id="SvgjsG1234" transform="translate(671,546)"><path id="SvgjsPath1235" d="M 0 0L 20 0L 20 112.99999999999977L 0 112.99999999999977Z" stroke="rgba(255,153,51,1)" stroke-width="2" fill-opacity="1" fill="#ff9933"></path><g id="SvgjsG1236"><text id="SvgjsText1237" font-family="微软雅黑" text-anchor="middle" font-size="13px" width="0px" fill="#323232" font-weight="400" align="middle" anchor="middle" family="微软雅黑" size="13px" weight="400" font-style="" opacity="1" y="46.54999999999988" transform="rotate(0)"></text></g></g></svg>