<svg id="SvgjsSvg1006" width="1212" height="891" xmlns="http://www.w3.org/2000/svg" version="1.1" xmlns:xlink="http://www.w3.org/1999/xlink" xmlns:svgjs="http://svgjs.com/svgjs"><defs id="SvgjsDefs1007"><marker id="SvgjsMarker1090" markerWidth="16" markerHeight="12" refX="10" refY="6" viewBox="0 0 16 12" orient="auto" markerUnits="userSpaceOnUse" stroke-dasharray="0,0"><path id="SvgjsPath1091" d="M0,3 L10,6 L0,9 L0,3" fill="#ff9933" stroke="#ff9933" stroke-width="1"></path></marker><marker id="SvgjsMarker1094" markerWidth="16" markerHeight="12" refX="10" refY="6" viewBox="0 0 16 12" orient="auto" markerUnits="userSpaceOnUse" stroke-dasharray="0,0"><path id="SvgjsPath1095" d="M0,3 L10,6 L0,9 L0,3" fill="#ffb366" stroke="#ffb366" stroke-width="1"></path></marker><marker id="SvgjsMarker1098" markerWidth="16" markerHeight="12" refX="10" refY="6" viewBox="0 0 16 12" orient="auto" markerUnits="userSpaceOnUse" stroke-dasharray="0,0"><path id="SvgjsPath1099" d="M0,3 L10,6 L0,9 L0,3" fill="#ffb366" stroke="#ffb366" stroke-width="1"></path></marker><marker id="SvgjsMarker1138" markerWidth="16" markerHeight="12" refX="0" refY="6" viewBox="0 0 16 12" orient="auto" markerUnits="userSpaceOnUse" stroke-dasharray="0,0"><path id="SvgjsPath1139" d="M10,3 L0,6 L10,9" fill="#ffb366" stroke="#ffb366" stroke-width="1"></path></marker><marker id="SvgjsMarker1142" markerWidth="16" markerHeight="12" refX="10" refY="6" viewBox="0 0 16 12" orient="auto" markerUnits="userSpaceOnUse" stroke-dasharray="0,0"><path id="SvgjsPath1143" d="M0,3 L10,6 L0,9 L0,3" fill="#ffb366" stroke="#ffb366" stroke-width="1"></path></marker><marker id="SvgjsMarker1146" markerWidth="16" markerHeight="12" refX="10" refY="6" viewBox="0 0 16 12" orient="auto" markerUnits="userSpaceOnUse" stroke-dasharray="0,0"><path id="SvgjsPath1147" d="M0,3 L10,6 L0,9 L0,3" fill="#ffb366" stroke="#ffb366" stroke-width="1"></path></marker><marker id="SvgjsMarker1164" markerWidth="16" markerHeight="12" refX="10" refY="6" viewBox="0 0 16 12" orient="auto" markerUnits="userSpaceOnUse" stroke-dasharray="0,0"><path id="SvgjsPath1165" d="M0,3 L10,6 L0,9 L0,3" fill="#ffb366" stroke="#ffb366" stroke-width="1"></path></marker></defs><g id="SvgjsG1008" transform="translate(25,202)"><path id="SvgjsPath1009" d="M 0 0L 1162 0L 1162 501L 0 501Z" stroke="rgba(102,255,255,1)" stroke-width="2" fill-opacity="1" fill="#99ffff"></path><g id="SvgjsG1010"><text id="SvgjsText1011" font-family="微软雅黑" text-anchor="middle" font-size="13px" width="1142px" fill="#323232" font-weight="400" align="middle" anchor="middle" family="微软雅黑" size="13px" weight="400" font-style="" opacity="1" y="240.55" transform="rotate(0)"></text></g></g><g id="SvgjsG1012" transform="translate(115,25)"><path id="SvgjsPath1013" d="M 0 4Q 0 0 4 0L 136 0Q 140 0 140 4L 140 63Q 140 67 136 67L 4 67Q 0 67 0 63Z" stroke="rgba(255,153,153,1)" stroke-width="2" fill-opacity="1" fill="#ff9999"></path><g id="SvgjsG1014"><text id="SvgjsText1015" font-family="微软雅黑" text-anchor="middle" font-size="13px" width="120px" fill="#323232" font-weight="400" align="middle" anchor="middle" family="微软雅黑" size="13px" weight="400" font-style="" opacity="1" y="23.55" transform="rotate(0)"><tspan id="SvgjsTspan1016" dy="16" x="70"><tspan id="SvgjsTspan1017" style="text-decoration:;">Client</tspan></tspan></text></g></g><g id="SvgjsG1018" transform="translate(611,25)"><path id="SvgjsPath1019" d="M 0 4Q 0 0 4 0L 136 0Q 140 0 140 4L 140 63Q 140 67 136 67L 4 67Q 0 67 0 63Z" stroke="rgba(255,153,153,1)" stroke-width="2" fill-opacity="1" fill="#ff9999"></path><g id="SvgjsG1020"><text id="SvgjsText1021" font-family="微软雅黑" text-anchor="middle" font-size="13px" width="120px" fill="#323232" font-weight="400" align="middle" anchor="middle" family="微软雅黑" size="13px" weight="400" font-style="" opacity="1" y="23.55" transform="rotate(0)"><tspan id="SvgjsTspan1022" dy="16" x="70"><tspan id="SvgjsTspan1023" style="text-decoration:;">Server</tspan></tspan></text></g></g><g id="SvgjsG1024"><path id="SvgjsPath1025" d="M681 92L681 866" stroke-dasharray="10,5,3,5" stroke="#ff9933" stroke-width="1" fill="none"></path></g><g id="SvgjsG1026" transform="translate(116.5,103)"><path id="SvgjsPath1027" d="M 0 0L 206 0L 206 28L 0 28Z" stroke="rgba(153,204,255,1)" stroke-width="2" fill-opacity="1" fill="#99ccff"></path><g id="SvgjsG1028"><text id="SvgjsText1029" font-family="微软雅黑" text-anchor="middle" font-size="13px" width="186px" fill="#323232" font-weight="400" align="middle" anchor="middle" family="微软雅黑" size="13px" weight="400" font-style="" opacity="1" y="4.05" transform="rotate(0)"><tspan id="SvgjsTspan1030" dy="16" x="103"><tspan id="SvgjsTspan1031" style="text-decoration:;">Socket.bind(clientIp,clientPort)</tspan></tspan></text></g></g><g id="SvgjsG1032" transform="translate(119,157)"><path id="SvgjsPath1033" d="M 0 0L 245 0L 245 35L 0 35Z" stroke="rgba(153,204,255,1)" stroke-width="2" fill-opacity="1" fill="#99ccff"></path><g id="SvgjsG1034"><text id="SvgjsText1035" font-family="微软雅黑" text-anchor="middle" font-size="13px" width="225px" fill="#323232" font-weight="400" align="middle" anchor="middle" family="微软雅黑" size="13px" weight="400" font-style="" opacity="1" y="7.55" transform="rotate(0)"><tspan id="SvgjsTspan1036" dy="16" x="122.5"><tspan id="SvgjsTspan1037" style="text-decoration:;">Socket.connect(serverIp,serverPort)</tspan></tspan></text></g></g><g id="SvgjsG1038" transform="translate(558,103)"><path id="SvgjsPath1039" d="M 0 0L 314 0L 314 35L 0 35Z" stroke="rgba(153,204,255,1)" stroke-width="2" fill-opacity="1" fill="#99ccff"></path><g id="SvgjsG1040"><text id="SvgjsText1041" font-family="微软雅黑" text-anchor="middle" font-size="13px" width="294px" fill="#323232" font-weight="400" align="middle" anchor="middle" family="微软雅黑" size="13px" weight="400" font-style="" opacity="1" y="7.55" transform="rotate(0)"><tspan id="SvgjsTspan1042" dy="16" x="157"><tspan id="SvgjsTspan1043" style="text-decoration:;">ServerSocket.bind(clientIp,clientPort,backlog)</tspan></tspan></text></g></g><g id="SvgjsG1044" transform="translate(558,147)"><path id="SvgjsPath1045" d="M 0 0L 157 0L 157 27L 0 27Z" stroke="rgba(153,204,255,1)" stroke-width="2" fill-opacity="1" fill="#99ccff"></path><g id="SvgjsG1046"><text id="SvgjsText1047" font-family="微软雅黑" text-anchor="middle" font-size="13px" width="137px" fill="#323232" font-weight="400" align="middle" anchor="middle" family="微软雅黑" size="13px" weight="400" font-style="" opacity="1" y="3.55" transform="rotate(0)"><tspan id="SvgjsTspan1048" dy="16" x="78.5"><tspan id="SvgjsTspan1049" style="text-decoration:;">ServerSocket.listen</tspan></tspan></text></g></g><g id="SvgjsG1050" transform="translate(186,309)"><path id="SvgjsPath1051" d="M 0 19C 0 -6.333333333333333 89 -6.333333333333333 89 19Q 87.22 37.24 44.5 38Q 29.666666666666668 38 14.833333333333334 34.2L 0 38L 10.413 32.566Q 0 26.599999999999998 0 19" stroke="rgba(153,204,255,1)" stroke-width="2" fill-opacity="1" fill="#99ccff"></path><g id="SvgjsG1052"><text id="SvgjsText1053" font-family="微软雅黑" text-anchor="middle" font-size="13px" width="69px" fill="#323232" font-weight="400" align="middle" anchor="middle" family="微软雅黑" size="13px" weight="400" font-style="" opacity="1" y="9.05" transform="rotate(0)"><tspan id="SvgjsTspan1054" dy="16" x="44.5"><tspan id="SvgjsTspan1055" style="text-decoration:;">SYN_SENT</tspan></tspan></text></g></g><g id="SvgjsG1056" transform="translate(184.94166666666666,454.9999999999999)"><path id="SvgjsPath1057" d="M 0 27.500000000000057C 0 -9.166666666666686 105.11666666666666 -9.166666666666686 105.11666666666666 27.500000000000057Q 103.01433333333333 53.90000000000011 52.55833333333333 55.000000000000114Q 35.038888888888884 55.000000000000114 17.519444444444442 49.50000000000011L 0 55.000000000000114L 12.29865 47.1350000000001Q 0 38.50000000000008 0 27.500000000000057" stroke="rgba(102,178,255,1)" stroke-width="2" fill-opacity="1" fill="#99ccff"></path><g id="SvgjsG1058"><text id="SvgjsText1059" font-family="微软雅黑" text-anchor="middle" font-size="13px" width="86px" fill="#323232" font-weight="400" align="middle" anchor="middle" family="微软雅黑" size="13px" weight="400" font-style="" opacity="1" y="17.550000000000058" transform="rotate(0)"></text></g></g><g id="SvgjsG1060" transform="matrix(-1,1.2246467991473532e-16,-1.2246467991473532e-16,-1,681,341)"><path id="SvgjsPath1061" d="M 0 19C 0 -6.333333333333333 89 -6.333333333333333 89 19Q 87.22 37.24 44.5 38Q 29.666666666666668 38 14.833333333333334 34.2L 0 38L 10.413 32.566Q 0 26.599999999999998 0 19" stroke="rgba(153,204,255,1)" stroke-width="2" fill-opacity="1" fill="#99ccff"></path><g id="SvgjsG1062"><text id="SvgjsText1063" font-family="微软雅黑" text-anchor="middle" font-size="13px" width="69px" fill="#323232" font-weight="400" align="middle" anchor="middle" family="微软雅黑" size="13px" weight="400" font-style="" opacity="1" y="9.05" transform="rotate(0)"><tspan id="SvgjsTspan1064" dy="16" x="44.5"><tspan id="SvgjsTspan1065" style="text-decoration:;"> </tspan></tspan></text></g></g><g id="SvgjsG1066" transform="matrix(-1,1.2246467991473532e-16,-1.2246467991473532e-16,-1,686,560)"><path id="SvgjsPath1067" d="M 0 24.99999999999997C 0 -8.333333333333323 120 -8.333333333333323 120 24.99999999999997Q 117.6 48.99999999999994 60 49.99999999999994Q 40 49.99999999999994 20 44.99999999999995L 0 49.99999999999994L 14.040000000000001 42.84999999999995Q 0 34.99999999999996 0 24.99999999999997" stroke="rgba(102,178,255,1)" stroke-width="2" fill-opacity="1" fill="#66b2ff"></path><g id="SvgjsG1068"><text id="SvgjsText1069" font-family="微软雅黑" text-anchor="middle" font-size="13px" width="100px" fill="#323232" font-weight="400" align="middle" anchor="middle" family="微软雅黑" size="13px" weight="400" font-style="" opacity="1" y="15.049999999999972" transform="rotate(0)"></text></g></g><g id="SvgjsG1070" transform="translate(566,515)"><path id="SvgjsPath1071" d="M 0 0L 120 0L 120 40L 0 40Z" stroke="none" fill="none"></path><g id="SvgjsG1072"><text id="SvgjsText1073" font-family="微软雅黑" text-anchor="middle" font-size="13px" width="120px" fill="#323232" font-weight="400" align="middle" anchor="middle" family="微软雅黑" size="13px" weight="400" font-style="" opacity="1" y="10.05" transform="rotate(0)"><tspan id="SvgjsTspan1074" dy="16" x="60"><tspan id="SvgjsTspan1075" style="text-decoration:;">ESTABLISHED</tspan></tspan></text></g></g><g id="SvgjsG1076" transform="translate(178,461.3461538461538)"><path id="SvgjsPath1077" d="M 0 0L 119 0L 119 42.3076923076924L 0 42.3076923076924Z" stroke="none" fill="none"></path><g id="SvgjsG1078"><text id="SvgjsText1079" font-family="微软雅黑" text-anchor="middle" font-size="13px" width="119px" fill="#323232" font-weight="400" align="middle" anchor="middle" family="微软雅黑" size="13px" weight="400" font-style="" opacity="1" y="11.2038461538462" transform="rotate(0)"><tspan id="SvgjsTspan1080" dy="16" x="59.5"><tspan id="SvgjsTspan1081" style="text-decoration:;">ESTABLISHED</tspan></tspan></text></g></g><g id="SvgjsG1082" transform="translate(579.5,302)"><path id="SvgjsPath1083" d="M 0 0L 120 0L 120 40L 0 40Z" stroke="none" fill="none"></path><g id="SvgjsG1084"><text id="SvgjsText1085" font-family="微软雅黑" text-anchor="middle" font-size="13px" width="120px" fill="#323232" font-weight="400" align="middle" anchor="middle" family="微软雅黑" size="13px" weight="400" font-style="" opacity="1" y="10.05" transform="rotate(0)"><tspan id="SvgjsTspan1086" dy="16" x="60"><tspan id="SvgjsTspan1087" style="text-decoration:;">SYN_RCVD</tspan></tspan></text></g></g><g id="SvgjsG1088"><path id="SvgjsPath1089" d="M275 328C 435.82727741168765 356.3581882415656 518.6 302.2 681 285" stroke="#ff9933" stroke-width="1" fill="none" marker-end="url(#SvgjsMarker1090)"></path></g><g id="SvgjsG1092"><path id="SvgjsPath1093" d="M639.5 342C 639.5 525.4279149966003 367.4 382.8 186 410" stroke="#ffb366" stroke-width="1" fill="none" marker-end="url(#SvgjsMarker1094)"></path></g><g id="SvgjsG1096"><path id="SvgjsPath1097" d="M233.34862297099062 509.015221207633C 217.8093903510008 686.6294627988924 500.13944918839616 490.40608848305317 678 478" stroke="#ffb366" stroke-width="1" fill="none" marker-end="url(#SvgjsMarker1098)"></path></g><g id="SvgjsG1100" transform="translate(775,247)"><path id="SvgjsPath1101" d="M 0 0L 114.5 0L 114.5 135.9999999999999L 0 135.9999999999999Z" stroke="rgba(153,204,255,1)" stroke-width="2" fill-opacity="1" fill="#ffffff"></path><g id="SvgjsG1102"><text id="SvgjsText1103" font-family="微软雅黑" text-anchor="middle" font-size="13px" width="95px" fill="#323232" font-weight="400" align="middle" anchor="middle" family="微软雅黑" size="13px" weight="400" font-style="" opacity="1" y="58.04999999999994" transform="rotate(0)"></text></g></g><g id="SvgjsG1104" transform="translate(774.5,335.9999999999999)"><path id="SvgjsPath1105" d="M 0 0L 115.5 0L 115.5 47L 0 47Z" stroke="rgba(153,204,255,1)" stroke-width="2" fill-opacity="1" fill="#66b2ff"></path><g id="SvgjsG1106"><text id="SvgjsText1107" font-family="微软雅黑" text-anchor="middle" font-size="13px" width="96px" fill="#323232" font-weight="400" align="middle" anchor="middle" family="微软雅黑" size="13px" weight="400" font-style="" opacity="1" y="13.55" transform="rotate(0)"></text></g></g><g id="SvgjsG1108" transform="translate(774.5,288.9999999999999)"><path id="SvgjsPath1109" d="M 0 0L 115.5 0L 115.5 47L 0 47Z" stroke="rgba(153,204,255,1)" stroke-width="2" fill-opacity="1" fill="#66b2ff"></path><g id="SvgjsG1110"><text id="SvgjsText1111" font-family="微软雅黑" text-anchor="middle" font-size="13px" width="96px" fill="#323232" font-weight="400" align="middle" anchor="middle" family="微软雅黑" size="13px" weight="400" font-style="" opacity="1" y="13.55" transform="rotate(0)"></text></g></g><g id="SvgjsG1112" transform="translate(811,485.9999999999999)"><path id="SvgjsPath1113" d="M 0 0L 114.5 0L 114.5 135.9999999999999L 0 135.9999999999999Z" stroke="rgba(153,204,255,1)" stroke-width="2" fill-opacity="1" fill="#ffffff"></path><g id="SvgjsG1114"><text id="SvgjsText1115" font-family="微软雅黑" text-anchor="middle" font-size="13px" width="95px" fill="#323232" font-weight="400" align="middle" anchor="middle" family="微软雅黑" size="13px" weight="400" font-style="" opacity="1" y="58.04999999999994" transform="rotate(0)"></text></g></g><g id="SvgjsG1116" transform="translate(810.5,574.9999999999998)"><path id="SvgjsPath1117" d="M 0 0L 115.5 0L 115.5 47L 0 47Z" stroke="rgba(153,204,255,1)" stroke-width="2" fill-opacity="1" fill="#66b2ff"></path><g id="SvgjsG1118"><text id="SvgjsText1119" font-family="微软雅黑" text-anchor="middle" font-size="13px" width="96px" fill="#323232" font-weight="400" align="middle" anchor="middle" family="微软雅黑" size="13px" weight="400" font-style="" opacity="1" y="13.55" transform="rotate(0)"></text></g></g><g id="SvgjsG1120" transform="translate(810.5,527.9999999999998)"><path id="SvgjsPath1121" d="M 0 0L 115.5 0L 115.5 47L 0 47Z" stroke="rgba(153,204,255,1)" stroke-width="2" fill-opacity="1" fill="#66b2ff"></path><g id="SvgjsG1122"><text id="SvgjsText1123" font-family="微软雅黑" text-anchor="middle" font-size="13px" width="96px" fill="#323232" font-weight="400" align="middle" anchor="middle" family="微软雅黑" size="13px" weight="400" font-style="" opacity="1" y="13.55" transform="rotate(0)"></text></g></g><g id="SvgjsG1124" transform="translate(890,250.9999999999999)"><path id="SvgjsPath1125" d="M 0 19C 0 -6.333333333333333 172 -6.333333333333333 172 19Q 168.56 37.24 86 38Q 57.333333333333336 38 28.666666666666668 34.2L 0 38L 20.124000000000002 32.566Q 0 26.599999999999998 0 19" stroke="rgba(153,204,255,1)" stroke-width="2" fill-opacity="1" fill="#99ccff"></path><g id="SvgjsG1126"><text id="SvgjsText1127" font-family="微软雅黑" text-anchor="middle" font-size="13px" width="152px" fill="#323232" font-weight="400" align="middle" anchor="middle" family="微软雅黑" size="13px" weight="400" font-style="" opacity="1" y="9.05" transform="rotate(0)"><tspan id="SvgjsTspan1128" dy="16" x="86"><tspan id="SvgjsTspan1129" style="text-decoration:;">syns queue(半连接队列）</tspan></tspan></text></g></g><g id="SvgjsG1130" transform="translate(926,466)"><path id="SvgjsPath1131" d="M 0 22C 0 -7.333333333333333 217 -7.333333333333333 217 22Q 212.66 43.12 108.5 44Q 72.33333333333333 44 36.166666666666664 39.6L 0 44L 25.389000000000003 37.708Q 0 30.799999999999997 0 22" stroke="rgba(153,204,255,1)" stroke-width="2" fill-opacity="1" fill="#99ccff"></path><g id="SvgjsG1132"><text id="SvgjsText1133" font-family="微软雅黑" text-anchor="middle" font-size="13px" width="197px" fill="#323232" font-weight="400" align="middle" anchor="middle" family="微软雅黑" size="13px" weight="400" font-style="" opacity="1" y="12.05" transform="rotate(0)"><tspan id="SvgjsTspan1134" dy="16" x="108.5"><tspan id="SvgjsTspan1135" style="text-decoration:;">accept queue（全连接队列）</tspan></tspan></text></g></g><g id="SvgjsG1136"><path id="SvgjsPath1137" d="M832.25 247C 832.25 184.52112356964153 741.5 270.4 681 286" stroke="#ffb366" stroke-width="1" fill="none" marker-start="url(#SvgjsMarker1138)"></path></g><g id="SvgjsG1140"><path id="SvgjsPath1141" d="M832.25 382.9999999999999C 832.25 480.94942572572836 711 462 626 515" stroke="#ffb366" stroke-width="1" fill="none" marker-end="url(#SvgjsMarker1142)"></path></g><g id="SvgjsG1144"><path id="SvgjsPath1145" d="M605.3486229709906 558.015221207633C 595.8456361454867 666.6348576555961 868.25 376.96545418678807 868.25 485.9999999999999" stroke="#ffb366" stroke-width="1" fill="none" marker-end="url(#SvgjsMarker1146)"></path></g><g id="SvgjsG1148"><path id="SvgjsPath1149" d="M185 92L178 832.5" stroke-dasharray="10,5,3,5" stroke="#ff9933" stroke-width="1" fill="none"></path></g><g id="SvgjsG1150" transform="translate(571,723)"><path id="SvgjsPath1151" d="M 0 0L 235 0L 235 34L 0 34Z" stroke="rgba(102,178,255,1)" stroke-width="2" fill-opacity="1" fill="#66b2ff"></path><g id="SvgjsG1152"><text id="SvgjsText1153" font-family="微软雅黑" text-anchor="middle" font-size="13px" width="215px" fill="#323232" font-weight="400" align="middle" anchor="middle" family="微软雅黑" size="13px" weight="400" font-style="" opacity="1" y="7.05" transform="rotate(0)"><tspan id="SvgjsTspan1154" dy="16" x="117.5"><tspan id="SvgjsTspan1155" style="text-decoration:;">ServerSocket.accept</tspan></tspan></text></g></g><g id="SvgjsG1156" transform="translate(45,608)"><path id="SvgjsPath1157" d="M 0 0L 250 0L 250 60L 0 60Z" stroke="none" fill="none"></path><g id="SvgjsG1158"><text id="SvgjsText1159" font-family="微软雅黑" text-anchor="middle" font-size="22px" width="250px" fill="#ff3333" font-weight="400" align="middle" anchor="middle" family="微软雅黑" size="22px" weight="400" font-style="" opacity="1" y="10.7" transform="rotate(0)"><tspan id="SvgjsTspan1160" dy="27" x="125"><tspan id="SvgjsTspan1161" style="text-decoration:;">内核完成 TCP 三次握手</tspan></tspan></text></g></g><g id="SvgjsG1162"><path id="SvgjsPath1163" d="M868.25 621.9999999999998C 868.25 675.3652508660831 859.3652508660833 740 806 740" stroke="#ffb366" stroke-width="1" fill="none" marker-end="url(#SvgjsMarker1164)"></path></g><g id="SvgjsG1166" transform="translate(178,805)"><path id="SvgjsPath1167" d="M 0 27.5L 27.5 0L 27.5 18.150000000000002L 475.5 18.150000000000002L 475.5 0L 503 27.5L 475.5 55L 475.5 36.85L 27.5 36.85L 27.5 55L 0 27.5Z" stroke="rgba(153,204,255,1)" stroke-width="2" fill-opacity="1" fill="#99ccff"></path><g id="SvgjsG1168"><text id="SvgjsText1169" font-family="微软雅黑" text-anchor="middle" font-size="13px" width="503px" fill="#323232" font-weight="400" align="middle" anchor="middle" family="微软雅黑" size="13px" weight="400" font-style="" opacity="1" y="17.550000000000004" transform="rotate(0)"></text></g></g><g id="SvgjsG1170"><path id="SvgjsPath1171" d="M178 832.5L178 856" stroke-dasharray="10,5,3,5" stroke="#ffb366" stroke-width="1" fill="none"></path></g><g id="SvgjsG1172" transform="translate(25,805)"><path id="SvgjsPath1173" d="M 0 0L 120 0L 120 40L 0 40Z" stroke="none" fill="none"></path><g id="SvgjsG1174"><text id="SvgjsText1175" font-family="微软雅黑" text-anchor="middle" font-size="18px" width="120px" fill="#323232" font-weight="400" align="middle" anchor="middle" family="微软雅黑" size="18px" weight="400" font-style="" opacity="1" y="5.800000000000001" transform="rotate(0)"><tspan id="SvgjsTspan1176" dy="22" x="60"><tspan id="SvgjsTspan1177" style="text-decoration:;">read，write</tspan></tspan></text></g></g><g id="SvgjsG1178" transform="translate(709,812.5)"><path id="SvgjsPath1179" d="M 0 0L 120 0L 120 40L 0 40Z" stroke="none" fill="none"></path><g id="SvgjsG1180"><text id="SvgjsText1181" font-family="微软雅黑" text-anchor="middle" font-size="17px" width="120px" fill="#323232" font-weight="400" align="middle" anchor="middle" family="微软雅黑" size="17px" weight="400" font-style="" opacity="1" y="6.95" transform="rotate(0)"><tspan id="SvgjsTspan1182" dy="21" x="60"><tspan id="SvgjsTspan1183" style="text-decoration:;">read，write</tspan></tspan></text></g></g><g id="SvgjsG1184" transform="translate(415,322)"><path id="SvgjsPath1185" d="M 0 4Q 0 0 4 0L 49 0Q 53 0 53 4L 53 21Q 53 25 49 25L 4 25Q 0 25 0 21Z" stroke="rgba(128,255,0,1)" stroke-width="2" fill-opacity="1" fill="#66ff66"></path><g id="SvgjsG1186"><text id="SvgjsText1187" font-family="微软雅黑" text-anchor="middle" font-size="13px" width="33px" fill="#323232" font-weight="400" align="middle" anchor="middle" family="微软雅黑" size="13px" weight="400" font-style="" opacity="1" y="2.55" transform="rotate(0)"><tspan id="SvgjsTspan1188" dy="16" x="26.5"><tspan id="SvgjsTspan1189" style="text-decoration:;">SYN</tspan></tspan></text></g></g><g id="SvgjsG1190" transform="translate(367,394.9999999999999)"><path id="SvgjsPath1191" d="M 0 4Q 0 0 4 0L 92 0Q 96 0 96 4L 96 21Q 96 25 92 25L 4 25Q 0 25 0 21Z" stroke="rgba(128,255,0,1)" stroke-width="2" fill-opacity="1" fill="#66ff66"></path><g id="SvgjsG1192"><text id="SvgjsText1193" font-family="微软雅黑" text-anchor="middle" font-size="13px" width="76px" fill="#323232" font-weight="400" align="middle" anchor="middle" family="微软雅黑" size="13px" weight="400" font-style="" opacity="1" y="2.55" transform="rotate(0)"><tspan id="SvgjsTspan1194" dy="16" x="48"><tspan id="SvgjsTspan1195" style="text-decoration:;">SYN + ACK</tspan></tspan></text></g></g><g id="SvgjsG1196" transform="translate(367,510)"><path id="SvgjsPath1197" d="M 0 4Q 0 0 4 0L 92 0Q 96 0 96 4L 96 21Q 96 25 92 25L 4 25Q 0 25 0 21Z" stroke="rgba(128,255,0,1)" stroke-width="2" fill-opacity="1" fill="#66ff66"></path><g id="SvgjsG1198"><text id="SvgjsText1199" font-family="微软雅黑" text-anchor="middle" font-size="13px" width="76px" fill="#323232" font-weight="400" align="middle" anchor="middle" family="微软雅黑" size="13px" weight="400" font-style="" opacity="1" y="2.55" transform="rotate(0)"><tspan id="SvgjsTspan1200" dy="16" x="48"><tspan id="SvgjsTspan1201" style="text-decoration:;">ACK</tspan></tspan></text></g></g><g id="SvgjsG1202" transform="translate(900,302)"><path id="SvgjsPath1203" d="M 0 4Q 0 0 4 0L 274 0Q 278 0 278 4L 278 21.999999999999886Q 278 25.999999999999886 274 25.999999999999886L 4 25.999999999999886Q 0 25.999999999999886 0 21.999999999999886Z" stroke="rgba(153,204,255,1)" stroke-width="2" fill-opacity="1" fill="#99ccff"></path><g id="SvgjsG1204"><text id="SvgjsText1205" font-family="微软雅黑" text-anchor="middle" font-size="13px" width="258px" fill="#323232" font-weight="400" align="middle" anchor="middle" family="微软雅黑" size="13px" weight="400" font-style="" opacity="1" y="3.049999999999943" transform="rotate(0)"><tspan id="SvgjsTspan1206" dy="16" x="139"><tspan id="SvgjsTspan1207" style="text-decoration:;">/proc/sys/net/ipv4/tcp_max_syn_backlog</tspan></tspan></text></g></g><g id="SvgjsG1208" transform="translate(856,426)"><path id="SvgjsPath1209" d="M 0 4Q 0 0 4 0L 309 0Q 313 0 313 4L 313 20Q 313 24 309 24L 4 24Q 0 24 0 20Z" stroke="rgba(153,204,255,1)" stroke-width="2" fill-opacity="1" fill="#99ccff"></path><g id="SvgjsG1210"><text id="SvgjsText1211" font-family="微软雅黑" text-anchor="middle" font-size="13px" width="293px" fill="#323232" font-weight="400" align="middle" anchor="middle" family="微软雅黑" size="13px" weight="400" font-style="" opacity="1" y="2.05" transform="rotate(0)"><tspan id="SvgjsTspan1212" dy="16" x="156.5"><tspan id="SvgjsTspan1213" style="text-decoration:;">min(backlog，/proc/sys/net/core/somaxconn)</tspan></tspan></text></g></g></svg>