<svg id="SvgjsSvg1006" width="2337.546875" height="1055" xmlns="http://www.w3.org/2000/svg" version="1.1" xmlns:xlink="http://www.w3.org/1999/xlink" xmlns:svgjs="http://svgjs.com/svgjs"><defs id="SvgjsDefs1007"><marker id="SvgjsMarker1023" markerWidth="16" markerHeight="12" refX="16" refY="6" viewBox="0 0 16 12" orient="auto" markerUnits="userSpaceOnUse" stroke-dasharray="0,0"><path id="SvgjsPath1024" d="M0,2 L14,6 L0,11 L0,2" fill="#323232" stroke="#323232" stroke-width="2"></path></marker><marker id="SvgjsMarker1045" markerWidth="16" markerHeight="12" refX="16" refY="6" viewBox="0 0 16 12" orient="auto" markerUnits="userSpaceOnUse" stroke-dasharray="0,0"><path id="SvgjsPath1046" d="M0,2 L14,6 L0,11 L0,2" fill="#323232" stroke="#323232" stroke-width="2"></path></marker><marker id="SvgjsMarker1067" markerWidth="16" markerHeight="12" refX="16" refY="6" viewBox="0 0 16 12" orient="auto" markerUnits="userSpaceOnUse" stroke-dasharray="0,0"><path id="SvgjsPath1068" d="M0,2 L14,6 L0,11 L0,2" fill="#323232" stroke="#323232" stroke-width="2"></path></marker><marker id="SvgjsMarker1093" markerWidth="16" markerHeight="12" refX="16" refY="6" viewBox="0 0 16 12" orient="auto" markerUnits="userSpaceOnUse" stroke-dasharray="0,0"><path id="SvgjsPath1094" d="M0,2 L14,6 L0,11 L0,2" fill="#323232" stroke="#323232" stroke-width="2"></path></marker><marker id="SvgjsMarker1127" markerWidth="16" markerHeight="12" refX="0" refY="6" viewBox="0 0 16 12" orient="auto" markerUnits="userSpaceOnUse" stroke-dasharray="0,0"><path id="SvgjsPath1128" d="M15,1.5 L2,6 L15,10.5" fill="#323232" stroke="#323232" stroke-width="2"></path></marker><marker id="SvgjsMarker1134" markerWidth="16" markerHeight="12" refX="16" refY="6" viewBox="0 0 16 12" orient="auto" markerUnits="userSpaceOnUse" stroke-dasharray="0,0"><path id="SvgjsPath1135" d="M0,2 L14,6 L0,11 L0,2" fill="#323232" stroke="#323232" stroke-width="5"></path></marker><marker id="SvgjsMarker1138" markerWidth="16" markerHeight="12" refX="0" refY="6" viewBox="0 0 16 12" orient="auto" markerUnits="userSpaceOnUse" stroke-dasharray="0,0"><path id="SvgjsPath1139" d="M15,1.5 L2,6 L15,10.5" fill="#323232" stroke="#323232" stroke-width="5"></path></marker><marker id="SvgjsMarker1402" markerWidth="16" markerHeight="12" refX="16" refY="6" viewBox="0 0 16 12" orient="auto" markerUnits="userSpaceOnUse" stroke-dasharray="0,0"><path id="SvgjsPath1403" d="M0,2 L14,6 L0,11 L0,2" fill="#323232" stroke="#323232" stroke-width="2"></path></marker><marker id="SvgjsMarker1406" markerWidth="16" markerHeight="12" refX="16" refY="6" viewBox="0 0 16 12" orient="auto" markerUnits="userSpaceOnUse" stroke-dasharray="0,0"><path id="SvgjsPath1407" d="M0,2 L14,6 L0,11 L0,2" fill="#323232" stroke="#323232" stroke-width="2"></path></marker><marker id="SvgjsMarker1410" markerWidth="16" markerHeight="12" refX="16" refY="6" viewBox="0 0 16 12" orient="auto" markerUnits="userSpaceOnUse" stroke-dasharray="0,0"><path id="SvgjsPath1411" d="M0,2 L14,6 L0,11 L0,2" fill="#323232" stroke="#323232" stroke-width="2"></path></marker><marker id="SvgjsMarker1414" markerWidth="16" markerHeight="12" refX="0" refY="6" viewBox="0 0 16 12" orient="auto" markerUnits="userSpaceOnUse" stroke-dasharray="0,0"><path id="SvgjsPath1415" d="M15,1.5 L2,6 L15,10.5" fill="#323232" stroke="#323232" stroke-width="2"></path></marker><marker id="SvgjsMarker1418" markerWidth="16" markerHeight="12" refX="0" refY="6" viewBox="0 0 16 12" orient="auto" markerUnits="userSpaceOnUse" stroke-dasharray="0,0"><path id="SvgjsPath1419" d="M15,1.5 L2,6 L15,10.5" fill="#323232" stroke="#323232" stroke-width="2"></path></marker></defs><rect id="SvgjsRect1008" width="2337.546875" height="1055" fill="#ffffff"></rect><g id="SvgjsG1009" transform="translate(764.859375,116.5)"><path id="SvgjsPath1010" d="M 0 0L 154 0L 154 129L 0 129Z" stroke="rgba(50,50,50,1)" stroke-width="2" fill-opacity="1" fill="#ffffff"></path><g id="SvgjsG1011"><text id="SvgjsText1012" font-family="微软雅黑" text-anchor="middle" font-size="30px" width="134px" fill="#323232" font-weight="400" align="middle" anchor="middle" family="微软雅黑" size="30px" weight="400" font-style="" opacity="1" y="39" transform="rotate(0)"><tspan id="SvgjsTspan1013" dy="37" x="77"><tspan id="SvgjsTspan1014" style="text-decoration:;">HTTP</tspan></tspan></text></g></g><g id="SvgjsG1015" transform="translate(1238.859375,116.5)"><path id="SvgjsPath1016" d="M 0 0L 154 0L 154 129L 0 129Z" stroke="rgba(50,50,50,1)" stroke-width="2" fill-opacity="1" fill="#ffffff"></path><g id="SvgjsG1017"><text id="SvgjsText1018" font-family="微软雅黑" text-anchor="middle" font-size="30px" width="134px" fill="#323232" font-weight="400" align="middle" anchor="middle" family="微软雅黑" size="30px" weight="400" font-style="" opacity="1" y="39" transform="rotate(0)"><tspan id="SvgjsTspan1019" dy="37" x="77"><tspan id="SvgjsTspan1020" style="text-decoration:;">HTTP</tspan></tspan></text></g></g><g id="SvgjsG1021"><path id="SvgjsPath1022" d="M918.859375 181L1238.859375 181" stroke-dasharray="8,5" stroke="#323232" stroke-width="2" fill="none" marker-end="url(#SvgjsMarker1023)"></path></g><g id="SvgjsG1025" transform="translate(963.859375,120)"><path id="SvgjsPath1026" d="M 0 0L 216 0L 216 46L 0 46Z" stroke="rgba(255,255,255,1)" stroke-width="2" fill-opacity="1" fill="#ffffff"></path><g id="SvgjsG1027"><text id="SvgjsText1028" font-family="微软雅黑" text-anchor="middle" font-size="30px" width="196px" fill="#323232" font-weight="400" align="middle" anchor="middle" family="微软雅黑" size="30px" weight="400" font-style="" opacity="1" y="-2.5" transform="rotate(0)"><tspan id="SvgjsTspan1029" dy="37" x="108"><tspan id="SvgjsTspan1030" style="text-decoration:;">应用协议</tspan></tspan></text></g></g><g id="SvgjsG1031" transform="translate(764.859375,321.5)"><path id="SvgjsPath1032" d="M 0 0L 154 0L 154 129L 0 129Z" stroke="rgba(50,50,50,1)" stroke-width="2" fill-opacity="1" fill="#ffffff"></path><g id="SvgjsG1033"><text id="SvgjsText1034" font-family="微软雅黑" text-anchor="middle" font-size="30px" width="134px" fill="#323232" font-weight="400" align="middle" anchor="middle" family="微软雅黑" size="30px" weight="400" font-style="" opacity="1" y="39" transform="rotate(0)"><tspan id="SvgjsTspan1035" dy="37" x="77"><tspan id="SvgjsTspan1036" style="text-decoration:;">TCP</tspan></tspan></text></g></g><g id="SvgjsG1037" transform="translate(1238.859375,321.5)"><path id="SvgjsPath1038" d="M 0 0L 154 0L 154 129L 0 129Z" stroke="rgba(50,50,50,1)" stroke-width="2" fill-opacity="1" fill="#ffffff"></path><g id="SvgjsG1039"><text id="SvgjsText1040" font-family="微软雅黑" text-anchor="middle" font-size="30px" width="134px" fill="#323232" font-weight="400" align="middle" anchor="middle" family="微软雅黑" size="30px" weight="400" font-style="" opacity="1" y="39" transform="rotate(0)"><tspan id="SvgjsTspan1041" dy="37" x="77"><tspan id="SvgjsTspan1042" style="text-decoration:;">TCP</tspan></tspan></text></g></g><g id="SvgjsG1043"><path id="SvgjsPath1044" d="M918.859375 386L1238.859375 386" stroke-dasharray="8,5" stroke="#323232" stroke-width="2" fill="none" marker-end="url(#SvgjsMarker1045)"></path></g><g id="SvgjsG1047" transform="translate(963.859375,326)"><path id="SvgjsPath1048" d="M 0 0L 216 0L 216 46L 0 46Z" stroke="rgba(255,255,255,1)" stroke-width="2" fill-opacity="1" fill="#ffffff"></path><g id="SvgjsG1049"><text id="SvgjsText1050" font-family="微软雅黑" text-anchor="middle" font-size="30px" width="196px" fill="#323232" font-weight="400" align="middle" anchor="middle" family="微软雅黑" size="30px" weight="400" font-style="" opacity="1" y="-2.5" transform="rotate(0)"><tspan id="SvgjsTspan1051" dy="37" x="108"><tspan id="SvgjsTspan1052" style="text-decoration:;">TCP协议</tspan></tspan></text></g></g><g id="SvgjsG1053" transform="translate(764.859375,540.5)"><path id="SvgjsPath1054" d="M 0 0L 154 0L 154 129L 0 129Z" stroke="rgba(50,50,50,1)" stroke-width="2" fill-opacity="1" fill="#ffffff"></path><g id="SvgjsG1055"><text id="SvgjsText1056" font-family="微软雅黑" text-anchor="middle" font-size="30px" width="134px" fill="#323232" font-weight="400" align="middle" anchor="middle" family="微软雅黑" size="30px" weight="400" font-style="" opacity="1" y="39" transform="rotate(0)"><tspan id="SvgjsTspan1057" dy="37" x="77"><tspan id="SvgjsTspan1058" style="text-decoration:;">IP</tspan></tspan></text></g></g><g id="SvgjsG1059" transform="translate(1238.859375,540.5)"><path id="SvgjsPath1060" d="M 0 0L 154 0L 154 129L 0 129Z" stroke="rgba(50,50,50,1)" stroke-width="2" fill-opacity="1" fill="#ffffff"></path><g id="SvgjsG1061"><text id="SvgjsText1062" font-family="微软雅黑" text-anchor="middle" font-size="30px" width="134px" fill="#323232" font-weight="400" align="middle" anchor="middle" family="微软雅黑" size="30px" weight="400" font-style="" opacity="1" y="39" transform="rotate(0)"><tspan id="SvgjsTspan1063" dy="37" x="77"><tspan id="SvgjsTspan1064" style="text-decoration:;">IP</tspan></tspan></text></g></g><g id="SvgjsG1065"><path id="SvgjsPath1066" d="M918.859375 605L1238.859375 605" stroke-dasharray="8,5" stroke="#323232" stroke-width="2" fill="none" marker-end="url(#SvgjsMarker1067)"></path></g><g id="SvgjsG1069" transform="translate(963.859375,538)"><path id="SvgjsPath1070" d="M 0 0L 216 0L 216 46L 0 46Z" stroke="rgba(255,255,255,1)" stroke-width="2" fill-opacity="1" fill="#ffffff"></path><g id="SvgjsG1071"><text id="SvgjsText1072" font-family="微软雅黑" text-anchor="middle" font-size="30px" width="196px" fill="#323232" font-weight="400" align="middle" anchor="middle" family="微软雅黑" size="30px" weight="400" font-style="" opacity="1" y="-2.5" transform="rotate(0)"><tspan id="SvgjsTspan1073" dy="37" x="108"><tspan id="SvgjsTspan1074" style="text-decoration:;">IP协议</tspan></tspan></text></g></g><g id="SvgjsG1075" transform="translate(764.859375,747.5)"><path id="SvgjsPath1076" d="M 0 0L 154 0L 154 129L 0 129Z" stroke="rgba(50,50,50,1)" stroke-width="2" fill-opacity="1" fill="#ffffff"></path><g id="SvgjsG1077"><text id="SvgjsText1078" font-family="微软雅黑" text-anchor="middle" font-size="30px" width="134px" fill="#323232" font-weight="400" align="middle" anchor="middle" family="微软雅黑" size="30px" weight="400" font-style="" opacity="1" y="20" transform="rotate(0)"><tspan id="SvgjsTspan1079" dy="37" x="77"><tspan id="SvgjsTspan1080" style="text-decoration:;">以太网驱</tspan></tspan><tspan id="SvgjsTspan1081" dy="37" x="77"><tspan id="SvgjsTspan1082" style="text-decoration:;">动程序</tspan></tspan></text></g></g><g id="SvgjsG1083" transform="translate(1238.859375,754.5)"><path id="SvgjsPath1084" d="M 0 0L 154 0L 154 129L 0 129Z" stroke="rgba(50,50,50,1)" stroke-width="2" fill-opacity="1" fill="#ffffff"></path><g id="SvgjsG1085"><text id="SvgjsText1086" font-family="微软雅黑" text-anchor="middle" font-size="30px" width="134px" fill="#323232" font-weight="400" align="middle" anchor="middle" family="微软雅黑" size="30px" weight="400" font-style="" opacity="1" y="20" transform="rotate(0)"><tspan id="SvgjsTspan1087" dy="37" x="77"><tspan id="SvgjsTspan1088" style="text-decoration:;">以太网驱</tspan></tspan><tspan id="SvgjsTspan1089" dy="37" x="77"><tspan id="SvgjsTspan1090" style="text-decoration:;">动程序</tspan></tspan></text></g></g><g id="SvgjsG1091"><path id="SvgjsPath1092" d="M918.859375 812L1238.859375 819" stroke-dasharray="8,5" stroke="#323232" stroke-width="2" fill="none" marker-end="url(#SvgjsMarker1093)"></path></g><g id="SvgjsG1095" transform="translate(963.859375,748)"><path id="SvgjsPath1096" d="M 0 0L 216 0L 216 46L 0 46Z" stroke="rgba(255,255,255,1)" stroke-width="2" fill-opacity="1" fill="#ffffff"></path><g id="SvgjsG1097"><text id="SvgjsText1098" font-family="微软雅黑" text-anchor="middle" font-size="30px" width="196px" fill="#323232" font-weight="400" align="middle" anchor="middle" family="微软雅黑" size="30px" weight="400" font-style="" opacity="1" y="-2.5" transform="rotate(0)"><tspan id="SvgjsTspan1099" dy="37" x="108"><tspan id="SvgjsTspan1100" style="text-decoration:;">以太网协议</tspan></tspan></text></g></g><g id="SvgjsG1101" transform="translate(1416.859375,151.5)"><path id="SvgjsPath1102" d="M 0 0L 134 0L 134 59L 0 59Z" stroke="rgba(255,255,255,1)" stroke-width="2" fill-opacity="1" fill="#ffffff"></path><g id="SvgjsG1103"><text id="SvgjsText1104" font-family="微软雅黑" text-anchor="middle" font-size="30px" width="114px" fill="#323232" font-weight="400" align="middle" anchor="middle" family="微软雅黑" size="30px" weight="400" font-style="" opacity="1" y="4" transform="rotate(0)"><tspan id="SvgjsTspan1105" dy="37" x="67"><tspan id="SvgjsTspan1106" style="text-decoration:;">应用层</tspan></tspan></text></g></g><g id="SvgjsG1107" transform="translate(1428.359375,356.5)"><path id="SvgjsPath1108" d="M 0 0L 134 0L 134 59L 0 59Z" stroke="rgba(255,255,255,1)" stroke-width="2" fill-opacity="1" fill="#ffffff"></path><g id="SvgjsG1109"><text id="SvgjsText1110" font-family="微软雅黑" text-anchor="middle" font-size="30px" width="114px" fill="#323232" font-weight="400" align="middle" anchor="middle" family="微软雅黑" size="30px" weight="400" font-style="" opacity="1" y="4" transform="rotate(0)"><tspan id="SvgjsTspan1111" dy="37" x="67"><tspan id="SvgjsTspan1112" style="text-decoration:;">传输层</tspan></tspan></text></g></g><g id="SvgjsG1113" transform="translate(1416.859375,575.5)"><path id="SvgjsPath1114" d="M 0 0L 134 0L 134 59L 0 59Z" stroke="rgba(255,255,255,1)" stroke-width="2" fill-opacity="1" fill="#ffffff"></path><g id="SvgjsG1115"><text id="SvgjsText1116" font-family="微软雅黑" text-anchor="middle" font-size="30px" width="114px" fill="#323232" font-weight="400" align="middle" anchor="middle" family="微软雅黑" size="30px" weight="400" font-style="" opacity="1" y="4" transform="rotate(0)"><tspan id="SvgjsTspan1117" dy="37" x="67"><tspan id="SvgjsTspan1118" style="text-decoration:;">网络层</tspan></tspan></text></g></g><g id="SvgjsG1119" transform="translate(1424.359375,789)"><path id="SvgjsPath1120" d="M 0 0L 181 0L 181 46L 0 46Z" stroke="rgba(255,255,255,1)" stroke-width="2" fill-opacity="1" fill="#ffffff"></path><g id="SvgjsG1121"><text id="SvgjsText1122" font-family="微软雅黑" text-anchor="middle" font-size="30px" width="161px" fill="#323232" font-weight="400" align="middle" anchor="middle" family="微软雅黑" size="30px" weight="400" font-style="" opacity="1" y="-2.5" transform="rotate(0)"><tspan id="SvgjsTspan1123" dy="37" x="90.5"><tspan id="SvgjsTspan1124" style="text-decoration:;">数据链路层</tspan></tspan></text></g></g><g id="SvgjsG1125"><path id="SvgjsPath1126" d="M1315.859375 669.5L1315.859375 754.5" stroke="#323232" stroke-width="2" fill="none" marker-start="url(#SvgjsMarker1127)"></path></g><g id="SvgjsG1129" transform="translate(630.359375,989.5)"><path id="SvgjsPath1130" d="M 0 11L 936 11" stroke="rgba(136,136,136,1)" stroke-width="6" fill="none"></path><path id="SvgjsPath1131" d="M 0 0L 936 0L 936 21L 0 21Z" stroke="none" fill="none"></path></g><g id="SvgjsG1132"><path id="SvgjsPath1133" d="M843.359375 876.5L843.359375 940L843.359375 940L843.359375 1002" stroke="#323232" stroke-width="5" fill="none" marker-end="url(#SvgjsMarker1134)"></path></g><g id="SvgjsG1136"><path id="SvgjsPath1137" d="M1317.359375 883.5L1317.359375 942L1317.359375 942L1317.359375 1000" stroke="#323232" stroke-width="5" fill="none" marker-start="url(#SvgjsMarker1138)"></path></g><g id="SvgjsG1140" transform="translate(1011.859375,984)"><path id="SvgjsPath1141" d="M 0 0L 120 0L 120 46L 0 46Z" stroke="none" fill="none"></path><g id="SvgjsG1142"><text id="SvgjsText1143" font-family="微软雅黑" text-anchor="middle" font-size="30px" width="120px" fill="#323232" font-weight="400" align="middle" anchor="middle" family="微软雅黑" size="30px" weight="400" font-style="" opacity="1" y="-2.5" transform="rotate(0)"><tspan id="SvgjsTspan1144" dy="37" x="60"><tspan id="SvgjsTspan1145" style="text-decoration:;">物理层</tspan></tspan></text></g></g><g id="SvgjsG1146" transform="translate(582.359375,151.5)"><path id="SvgjsPath1147" d="M 0 0L 141 0L 141 59L 0 59Z" stroke="rgba(50,50,50,1)" stroke-width="2" fill-opacity="1" fill="#ffffff"></path><g id="SvgjsG1148"><text id="SvgjsText1149" font-family="微软雅黑" text-anchor="middle" font-size="25px" width="121px" fill="#323232" font-weight="400" align="middle" anchor="middle" family="微软雅黑" size="25px" weight="400" font-style="" opacity="1" y="8.25" transform="rotate(0)"><tspan id="SvgjsTspan1150" dy="31" x="70.5"><tspan id="SvgjsTspan1151" style="text-decoration:;">数据</tspan></tspan></text></g></g><g id="SvgjsG1152" transform="translate(441.359375,151.5)"><path id="SvgjsPath1153" d="M 0 0L 141 0L 141 59L 0 59Z" stroke="rgba(50,50,50,1)" stroke-width="2" fill-opacity="1" fill="#ffffff"></path><g id="SvgjsG1154"><text id="SvgjsText1155" font-family="微软雅黑" text-anchor="middle" font-size="19px" width="121px" fill="#323232" font-weight="400" align="middle" anchor="middle" family="微软雅黑" size="19px" weight="400" font-style="" opacity="1" y="14.65" transform="rotate(0)"><tspan id="SvgjsTspan1156" dy="23" x="70.5"><tspan id="SvgjsTspan1157" style="text-decoration:;">HTTP包首部</tspan></tspan></text></g></g><g id="SvgjsG1158" transform="translate(297.50048828125,343.5)"><path id="SvgjsPath1159" d="M 0 0L 141 0L 141 59L 0 59Z" stroke="rgba(50,50,50,1)" stroke-width="2" fill-opacity="1" fill="#ffffff"></path><g id="SvgjsG1160"><text id="SvgjsText1161" font-family="微软雅黑" text-anchor="middle" font-size="20px" width="121px" fill="#323232" font-weight="400" align="middle" anchor="middle" family="微软雅黑" size="20px" weight="400" font-style="" opacity="1" y="14" transform="rotate(0)"><tspan id="SvgjsTspan1162" dy="25" x="70.5"><tspan id="SvgjsTspan1163" style="text-decoration:;">TCP 包首部</tspan></tspan></text></g></g><g id="SvgjsG1164" transform="translate(582.359375,343.5)"><path id="SvgjsPath1165" d="M 0 0L 141 0L 141 59L 0 59Z" stroke="rgba(50,50,50,1)" stroke-width="2" fill-opacity="1" fill="#ffffff"></path><g id="SvgjsG1166"><text id="SvgjsText1167" font-family="微软雅黑" text-anchor="middle" font-size="25px" width="121px" fill="#323232" font-weight="400" align="middle" anchor="middle" family="微软雅黑" size="25px" weight="400" font-style="" opacity="1" y="8.25" transform="rotate(0)"><tspan id="SvgjsTspan1168" dy="31" x="70.5"><tspan id="SvgjsTspan1169" style="text-decoration:;">数据</tspan></tspan></text></g></g><g id="SvgjsG1170" transform="translate(441.359375,343.5)"><path id="SvgjsPath1171" d="M 0 0L 141 0L 141 59L 0 59Z" stroke="rgba(50,50,50,1)" stroke-width="2" fill-opacity="1" fill="#ffffff"></path><g id="SvgjsG1172"><text id="SvgjsText1173" font-family="微软雅黑" text-anchor="middle" font-size="19px" width="121px" fill="#323232" font-weight="400" align="middle" anchor="middle" family="微软雅黑" size="19px" weight="400" font-style="" opacity="1" y="14.65" transform="rotate(0)"><tspan id="SvgjsTspan1174" dy="23" x="70.5"><tspan id="SvgjsTspan1175" style="text-decoration:;">HTTP包首部</tspan></tspan></text></g></g><g id="SvgjsG1176" transform="matrix(6.123233995736766e-17,1,-1,6.123233995736766e-17,720.734375,408.75)"><path id="SvgjsPath1177" d="M 0 273.75Q 7.625 273.75 7.625 264.75L 7.625 145.875Q 7.625 136.875 22 136.875Q 7.625 136.875 7.625 127.875L 7.625 9Q 7.625 0 0 0" stroke="rgba(50,50,50,1)" stroke-width="2" fill="none"></path><path id="SvgjsPath1178" d="M 0 0L 76.25 0L 76.25 273.75L 0 273.75Z" stroke="none" fill="none"></path><g id="SvgjsG1179"><text id="SvgjsText1180" font-family="微软雅黑" text-anchor="start" font-size="13px" width="50px" fill="#323232" font-weight="400" align="middle" anchor="start" family="微软雅黑" size="13px" weight="400" font-style="" opacity="1" y="126.925" transform="rotate(0)"></text></g></g><g id="SvgjsG1181" transform="translate(523.859375,441.25)"><path id="SvgjsPath1182" d="M 0 0L 120 0L 120 46L 0 46Z" stroke="none" fill="none"></path><g id="SvgjsG1183"><text id="SvgjsText1184" font-family="微软雅黑" text-anchor="middle" font-size="25px" width="120px" fill="#323232" font-weight="400" align="middle" anchor="middle" family="微软雅黑" size="25px" weight="400" font-style="" opacity="1" y="1.75" transform="rotate(0)"><tspan id="SvgjsTspan1185" dy="31" x="60"><tspan id="SvgjsTspan1186" style="text-decoration:;">TCP 数据</tspan></tspan></text></g></g><g id="SvgjsG1187" transform="translate(311.359375,565.5)"><path id="SvgjsPath1188" d="M 0 0L 141 0L 141 59L 0 59Z" stroke="rgba(50,50,50,1)" stroke-width="2" fill-opacity="1" fill="#ffffff"></path><g id="SvgjsG1189"><text id="SvgjsText1190" font-family="微软雅黑" text-anchor="middle" font-size="20px" width="121px" fill="#323232" font-weight="400" align="middle" anchor="middle" family="微软雅黑" size="20px" weight="400" font-style="" opacity="1" y="14" transform="rotate(0)"><tspan id="SvgjsTspan1191" dy="25" x="70.5"><tspan id="SvgjsTspan1192" style="text-decoration:;">TCP 包首部</tspan></tspan></text></g></g><g id="SvgjsG1193" transform="translate(595.359375,565.5)"><path id="SvgjsPath1194" d="M 0 0L 141 0L 141 59L 0 59Z" stroke="rgba(50,50,50,1)" stroke-width="2" fill-opacity="1" fill="#ffffff"></path><g id="SvgjsG1195"><text id="SvgjsText1196" font-family="微软雅黑" text-anchor="middle" font-size="25px" width="121px" fill="#323232" font-weight="400" align="middle" anchor="middle" family="微软雅黑" size="25px" weight="400" font-style="" opacity="1" y="8.25" transform="rotate(0)"><tspan id="SvgjsTspan1197" dy="31" x="70.5"><tspan id="SvgjsTspan1198" style="text-decoration:;">数据</tspan></tspan></text></g></g><g id="SvgjsG1199" transform="translate(455.359375,565.5)"><path id="SvgjsPath1200" d="M 0 0L 141 0L 141 59L 0 59Z" stroke="rgba(50,50,50,1)" stroke-width="2" fill-opacity="1" fill="#ffffff"></path><g id="SvgjsG1201"><text id="SvgjsText1202" font-family="微软雅黑" text-anchor="middle" font-size="19px" width="121px" fill="#323232" font-weight="400" align="middle" anchor="middle" family="微软雅黑" size="19px" weight="400" font-style="" opacity="1" y="14.65" transform="rotate(0)"><tspan id="SvgjsTspan1203" dy="23" x="70.5"><tspan id="SvgjsTspan1204" style="text-decoration:;">HTTP包首部</tspan></tspan></text></g></g><g id="SvgjsG1205" transform="translate(169.359375,565.5)"><path id="SvgjsPath1206" d="M 0 0L 141 0L 141 59L 0 59Z" stroke="rgba(50,50,50,1)" stroke-width="2" fill-opacity="1" fill="#ffffff"></path><g id="SvgjsG1207"><text id="SvgjsText1208" font-family="微软雅黑" text-anchor="middle" font-size="20px" width="121px" fill="#323232" font-weight="400" align="middle" anchor="middle" family="微软雅黑" size="20px" weight="400" font-style="" opacity="1" y="14" transform="rotate(0)"><tspan id="SvgjsTspan1209" dy="25" x="70.5"><tspan id="SvgjsTspan1210" style="text-decoration:;">IP 包首部</tspan></tspan></text></g></g><g id="SvgjsG1211" transform="matrix(6.123233995736766e-17,1,-1,6.123233995736766e-17,738.171875,631.25)"><path id="SvgjsPath1212" d="M 0 424.625Q 8.875 424.625 8.875 415.625L 8.875 221.3125Q 8.875 212.3125 22 212.3125Q 8.875 212.3125 8.875 203.3125L 8.875 9Q 8.875 0 0 0" stroke="rgba(50,50,50,1)" stroke-width="2" fill="none"></path><path id="SvgjsPath1213" d="M 0 0L 88.75 0L 88.75 424.625L 0 424.625Z" stroke="none" fill="none"></path><g id="SvgjsG1214"><text id="SvgjsText1215" font-family="微软雅黑" text-anchor="start" font-size="13px" width="62px" fill="#323232" font-weight="400" align="middle" anchor="start" family="微软雅黑" size="13px" weight="400" font-style="" opacity="1" y="202.3625" transform="rotate(0)"></text></g></g><g id="SvgjsG1216" transform="translate(473.859375,660)"><path id="SvgjsPath1217" d="M 0 0L 120 0L 120 46L 0 46Z" stroke="none" fill="none"></path><g id="SvgjsG1218"><text id="SvgjsText1219" font-family="微软雅黑" text-anchor="middle" font-size="25px" width="120px" fill="#323232" font-weight="400" align="middle" anchor="middle" family="微软雅黑" size="25px" weight="400" font-style="" opacity="1" y="1.75" transform="rotate(0)"><tspan id="SvgjsTspan1220" dy="31" x="60"><tspan id="SvgjsTspan1221" style="text-decoration:;">IP 数据</tspan></tspan></text></g></g><g id="SvgjsG1222" transform="translate(311.359375,789.5)"><path id="SvgjsPath1223" d="M 0 0L 141 0L 141 59L 0 59Z" stroke="rgba(50,50,50,1)" stroke-width="2" fill-opacity="1" fill="#ffffff"></path><g id="SvgjsG1224"><text id="SvgjsText1225" font-family="微软雅黑" text-anchor="middle" font-size="20px" width="121px" fill="#323232" font-weight="400" align="middle" anchor="middle" family="微软雅黑" size="20px" weight="400" font-style="" opacity="1" y="14" transform="rotate(0)"><tspan id="SvgjsTspan1226" dy="25" x="70.5"><tspan id="SvgjsTspan1227" style="text-decoration:;">TCP 包首部</tspan></tspan></text></g></g><g id="SvgjsG1228" transform="translate(595.359375,789.5)"><path id="SvgjsPath1229" d="M 0 0L 141 0L 141 59L 0 59Z" stroke="rgba(50,50,50,1)" stroke-width="2" fill-opacity="1" fill="#ffffff"></path><g id="SvgjsG1230"><text id="SvgjsText1231" font-family="微软雅黑" text-anchor="middle" font-size="25px" width="121px" fill="#323232" font-weight="400" align="middle" anchor="middle" family="微软雅黑" size="25px" weight="400" font-style="" opacity="1" y="8.25" transform="rotate(0)"><tspan id="SvgjsTspan1232" dy="31" x="70.5"><tspan id="SvgjsTspan1233" style="text-decoration:;">数据</tspan></tspan></text></g></g><g id="SvgjsG1234" transform="translate(455.359375,789.5)"><path id="SvgjsPath1235" d="M 0 0L 141 0L 141 59L 0 59Z" stroke="rgba(50,50,50,1)" stroke-width="2" fill-opacity="1" fill="#ffffff"></path><g id="SvgjsG1236"><text id="SvgjsText1237" font-family="微软雅黑" text-anchor="middle" font-size="19px" width="121px" fill="#323232" font-weight="400" align="middle" anchor="middle" family="微软雅黑" size="19px" weight="400" font-style="" opacity="1" y="14.65" transform="rotate(0)"><tspan id="SvgjsTspan1238" dy="23" x="70.5"><tspan id="SvgjsTspan1239" style="text-decoration:;">HTTP包首部</tspan></tspan></text></g></g><g id="SvgjsG1240" transform="translate(169.359375,789.5)"><path id="SvgjsPath1241" d="M 0 0L 141 0L 141 59L 0 59Z" stroke="rgba(50,50,50,1)" stroke-width="2" fill-opacity="1" fill="#ffffff"></path><g id="SvgjsG1242"><text id="SvgjsText1243" font-family="微软雅黑" text-anchor="middle" font-size="20px" width="121px" fill="#323232" font-weight="400" align="middle" anchor="middle" family="微软雅黑" size="20px" weight="400" font-style="" opacity="1" y="14" transform="rotate(0)"><tspan id="SvgjsTspan1244" dy="25" x="70.5"><tspan id="SvgjsTspan1245" style="text-decoration:;">IP 包首部</tspan></tspan></text></g></g><g id="SvgjsG1246" transform="translate(25.00048828125,789.5)"><path id="SvgjsPath1247" d="M 0 0L 141 0L 141 59L 0 59Z" stroke="rgba(50,50,50,1)" stroke-width="2" fill-opacity="1" fill="#ffffff"></path><g id="SvgjsG1248"><text id="SvgjsText1249" font-family="微软雅黑" text-anchor="middle" font-size="20px" width="121px" fill="#323232" font-weight="400" align="middle" anchor="middle" family="微软雅黑" size="20px" weight="400" font-style="" opacity="1" y="14" transform="rotate(0)"><tspan id="SvgjsTspan1250" dy="25" x="70.5"><tspan id="SvgjsTspan1251" style="text-decoration:;">数据帧首部</tspan></tspan></text></g></g><g id="SvgjsG1252" transform="matrix(6.123233995736766e-17,1,-1,6.123233995736766e-17,735.359375,855)"><path id="SvgjsPath1253" d="M 0 565.5625Q 9 565.5625 9 556.5625L 9 291.78125Q 9 282.78125 22 282.78125Q 9 282.78125 9 273.78125L 9 9Q 9 0 0 0" stroke="rgba(50,50,50,1)" stroke-width="2" fill="none"></path><path id="SvgjsPath1254" d="M 0 0L 93.74999999999989 0L 93.74999999999989 565.5625L 0 565.5625Z" stroke="none" fill="none"></path><g id="SvgjsG1255"><text id="SvgjsText1256" font-family="微软雅黑" text-anchor="start" font-size="13px" width="67px" fill="#323232" font-weight="400" align="middle" anchor="start" family="微软雅黑" size="13px" weight="400" font-style="" opacity="1" y="272.83125" transform="rotate(0)"></text></g></g><g id="SvgjsG1257" transform="translate(383.6640625000001,886.25)"><path id="SvgjsPath1258" d="M 0 0L 120 0L 120 46L 0 46Z" stroke="none" fill="none"></path><g id="SvgjsG1259"><text id="SvgjsText1260" font-family="微软雅黑" text-anchor="middle" font-size="25px" width="120px" fill="#323232" font-weight="400" align="middle" anchor="middle" family="微软雅黑" size="25px" weight="400" font-style="" opacity="1" y="1.75" transform="rotate(0)"><tspan id="SvgjsTspan1261" dy="31" x="60"><tspan id="SvgjsTspan1262" style="text-decoration:;">帧上 数据</tspan></tspan></text></g></g><g id="SvgjsG1263" transform="translate(2157.359375,152.75)"><path id="SvgjsPath1264" d="M 0 0L 141 0L 141 59L 0 59Z" stroke="rgba(50,50,50,1)" stroke-width="2" fill-opacity="1" fill="#ffffff"></path><g id="SvgjsG1265"><text id="SvgjsText1266" font-family="微软雅黑" text-anchor="middle" font-size="25px" width="121px" fill="#323232" font-weight="400" align="middle" anchor="middle" family="微软雅黑" size="25px" weight="400" font-style="" opacity="1" y="8.25" transform="rotate(0)"><tspan id="SvgjsTspan1267" dy="31" x="70.5"><tspan id="SvgjsTspan1268" style="text-decoration:;">数据</tspan></tspan></text></g></g><g id="SvgjsG1269" transform="translate(2016.359375,152.75)"><path id="SvgjsPath1270" d="M 0 0L 141 0L 141 59L 0 59Z" stroke="rgba(50,50,50,1)" stroke-width="2" fill-opacity="1" fill="#ffffff"></path><g id="SvgjsG1271"><text id="SvgjsText1272" font-family="微软雅黑" text-anchor="middle" font-size="19px" width="121px" fill="#323232" font-weight="400" align="middle" anchor="middle" family="微软雅黑" size="19px" weight="400" font-style="" opacity="1" y="14.65" transform="rotate(0)"><tspan id="SvgjsTspan1273" dy="23" x="70.5"><tspan id="SvgjsTspan1274" style="text-decoration:;">HTTP包首部</tspan></tspan></text></g></g><g id="SvgjsG1275" transform="translate(1872.50048828125,344.75)"><path id="SvgjsPath1276" d="M 0 0L 141 0L 141 59L 0 59Z" stroke="rgba(50,50,50,1)" stroke-width="2" fill-opacity="1" fill="#ffffff"></path><g id="SvgjsG1277"><text id="SvgjsText1278" font-family="微软雅黑" text-anchor="middle" font-size="20px" width="121px" fill="#323232" font-weight="400" align="middle" anchor="middle" family="微软雅黑" size="20px" weight="400" font-style="" opacity="1" y="14" transform="rotate(0)"><tspan id="SvgjsTspan1279" dy="25" x="70.5"><tspan id="SvgjsTspan1280" style="text-decoration:;">TCP 包首部</tspan></tspan></text></g></g><g id="SvgjsG1281" transform="translate(2157.359375,344.75)"><path id="SvgjsPath1282" d="M 0 0L 141 0L 141 59L 0 59Z" stroke="rgba(50,50,50,1)" stroke-width="2" fill-opacity="1" fill="#ffffff"></path><g id="SvgjsG1283"><text id="SvgjsText1284" font-family="微软雅黑" text-anchor="middle" font-size="25px" width="121px" fill="#323232" font-weight="400" align="middle" anchor="middle" family="微软雅黑" size="25px" weight="400" font-style="" opacity="1" y="8.25" transform="rotate(0)"><tspan id="SvgjsTspan1285" dy="31" x="70.5"><tspan id="SvgjsTspan1286" style="text-decoration:;">数据</tspan></tspan></text></g></g><g id="SvgjsG1287" transform="translate(2016.359375,344.75)"><path id="SvgjsPath1288" d="M 0 0L 141 0L 141 59L 0 59Z" stroke="rgba(50,50,50,1)" stroke-width="2" fill-opacity="1" fill="#ffffff"></path><g id="SvgjsG1289"><text id="SvgjsText1290" font-family="微软雅黑" text-anchor="middle" font-size="19px" width="121px" fill="#323232" font-weight="400" align="middle" anchor="middle" family="微软雅黑" size="19px" weight="400" font-style="" opacity="1" y="14.65" transform="rotate(0)"><tspan id="SvgjsTspan1291" dy="23" x="70.5"><tspan id="SvgjsTspan1292" style="text-decoration:;">HTTP包首部</tspan></tspan></text></g></g><g id="SvgjsG1293" transform="matrix(6.123233995736766e-17,1,-1,6.123233995736766e-17,2295.734375,410)"><path id="SvgjsPath1294" d="M 0 273.75Q 7.625 273.75 7.625 264.75L 7.625 145.875Q 7.625 136.875 22 136.875Q 7.625 136.875 7.625 127.875L 7.625 9Q 7.625 0 0 0" stroke="rgba(50,50,50,1)" stroke-width="2" fill="none"></path><path id="SvgjsPath1295" d="M 0 0L 76.25 0L 76.25 273.75L 0 273.75Z" stroke="none" fill="none"></path><g id="SvgjsG1296"><text id="SvgjsText1297" font-family="微软雅黑" text-anchor="start" font-size="13px" width="50px" fill="#323232" font-weight="400" align="middle" anchor="start" family="微软雅黑" size="13px" weight="400" font-style="" opacity="1" y="126.925" transform="rotate(0)"></text></g></g><g id="SvgjsG1298" transform="translate(2098.859375,442.5)"><path id="SvgjsPath1299" d="M 0 0L 120 0L 120 46L 0 46Z" stroke="none" fill="none"></path><g id="SvgjsG1300"><text id="SvgjsText1301" font-family="微软雅黑" text-anchor="middle" font-size="25px" width="120px" fill="#323232" font-weight="400" align="middle" anchor="middle" family="微软雅黑" size="25px" weight="400" font-style="" opacity="1" y="1.75" transform="rotate(0)"><tspan id="SvgjsTspan1302" dy="31" x="60"><tspan id="SvgjsTspan1303" style="text-decoration:;">TCP 数据</tspan></tspan></text></g></g><g id="SvgjsG1304" transform="translate(1886.359375,566.75)"><path id="SvgjsPath1305" d="M 0 0L 141 0L 141 59L 0 59Z" stroke="rgba(50,50,50,1)" stroke-width="2" fill-opacity="1" fill="#ffffff"></path><g id="SvgjsG1306"><text id="SvgjsText1307" font-family="微软雅黑" text-anchor="middle" font-size="20px" width="121px" fill="#323232" font-weight="400" align="middle" anchor="middle" family="微软雅黑" size="20px" weight="400" font-style="" opacity="1" y="14" transform="rotate(0)"><tspan id="SvgjsTspan1308" dy="25" x="70.5"><tspan id="SvgjsTspan1309" style="text-decoration:;">TCP 包首部</tspan></tspan></text></g></g><g id="SvgjsG1310" transform="translate(2170.359375,566.75)"><path id="SvgjsPath1311" d="M 0 0L 141 0L 141 59L 0 59Z" stroke="rgba(50,50,50,1)" stroke-width="2" fill-opacity="1" fill="#ffffff"></path><g id="SvgjsG1312"><text id="SvgjsText1313" font-family="微软雅黑" text-anchor="middle" font-size="25px" width="121px" fill="#323232" font-weight="400" align="middle" anchor="middle" family="微软雅黑" size="25px" weight="400" font-style="" opacity="1" y="8.25" transform="rotate(0)"><tspan id="SvgjsTspan1314" dy="31" x="70.5"><tspan id="SvgjsTspan1315" style="text-decoration:;">数据</tspan></tspan></text></g></g><g id="SvgjsG1316" transform="translate(2030.359375,566.75)"><path id="SvgjsPath1317" d="M 0 0L 141 0L 141 59L 0 59Z" stroke="rgba(50,50,50,1)" stroke-width="2" fill-opacity="1" fill="#ffffff"></path><g id="SvgjsG1318"><text id="SvgjsText1319" font-family="微软雅黑" text-anchor="middle" font-size="19px" width="121px" fill="#323232" font-weight="400" align="middle" anchor="middle" family="微软雅黑" size="19px" weight="400" font-style="" opacity="1" y="14.65" transform="rotate(0)"><tspan id="SvgjsTspan1320" dy="23" x="70.5"><tspan id="SvgjsTspan1321" style="text-decoration:;">HTTP包首部</tspan></tspan></text></g></g><g id="SvgjsG1322" transform="translate(1744.359375,566.75)"><path id="SvgjsPath1323" d="M 0 0L 141 0L 141 59L 0 59Z" stroke="rgba(50,50,50,1)" stroke-width="2" fill-opacity="1" fill="#ffffff"></path><g id="SvgjsG1324"><text id="SvgjsText1325" font-family="微软雅黑" text-anchor="middle" font-size="20px" width="121px" fill="#323232" font-weight="400" align="middle" anchor="middle" family="微软雅黑" size="20px" weight="400" font-style="" opacity="1" y="14" transform="rotate(0)"><tspan id="SvgjsTspan1326" dy="25" x="70.5"><tspan id="SvgjsTspan1327" style="text-decoration:;">IP 包首部</tspan></tspan></text></g></g><g id="SvgjsG1328" transform="matrix(6.123233995736766e-17,1,-1,6.123233995736766e-17,2313.171875,632.5)"><path id="SvgjsPath1329" d="M 0 424.625Q 8.875 424.625 8.875 415.625L 8.875 221.3125Q 8.875 212.3125 22 212.3125Q 8.875 212.3125 8.875 203.3125L 8.875 9Q 8.875 0 0 0" stroke="rgba(50,50,50,1)" stroke-width="2" fill="none"></path><path id="SvgjsPath1330" d="M 0 0L 88.75 0L 88.75 424.625L 0 424.625Z" stroke="none" fill="none"></path><g id="SvgjsG1331"><text id="SvgjsText1332" font-family="微软雅黑" text-anchor="start" font-size="13px" width="62px" fill="#323232" font-weight="400" align="middle" anchor="start" family="微软雅黑" size="13px" weight="400" font-style="" opacity="1" y="202.3625" transform="rotate(0)"></text></g></g><g id="SvgjsG1333" transform="translate(2048.859375,661.25)"><path id="SvgjsPath1334" d="M 0 0L 120 0L 120 46L 0 46Z" stroke="none" fill="none"></path><g id="SvgjsG1335"><text id="SvgjsText1336" font-family="微软雅黑" text-anchor="middle" font-size="25px" width="120px" fill="#323232" font-weight="400" align="middle" anchor="middle" family="微软雅黑" size="25px" weight="400" font-style="" opacity="1" y="1.75" transform="rotate(0)"><tspan id="SvgjsTspan1337" dy="31" x="60"><tspan id="SvgjsTspan1338" style="text-decoration:;">IP 数据</tspan></tspan></text></g></g><g id="SvgjsG1339" transform="translate(1886.359375,790.75)"><path id="SvgjsPath1340" d="M 0 0L 141 0L 141 59L 0 59Z" stroke="rgba(50,50,50,1)" stroke-width="2" fill-opacity="1" fill="#ffffff"></path><g id="SvgjsG1341"><text id="SvgjsText1342" font-family="微软雅黑" text-anchor="middle" font-size="20px" width="121px" fill="#323232" font-weight="400" align="middle" anchor="middle" family="微软雅黑" size="20px" weight="400" font-style="" opacity="1" y="14" transform="rotate(0)"><tspan id="SvgjsTspan1343" dy="25" x="70.5"><tspan id="SvgjsTspan1344" style="text-decoration:;">TCP 包首部</tspan></tspan></text></g></g><g id="SvgjsG1345" transform="translate(2170.359375,790.75)"><path id="SvgjsPath1346" d="M 0 0L 141 0L 141 59L 0 59Z" stroke="rgba(50,50,50,1)" stroke-width="2" fill-opacity="1" fill="#ffffff"></path><g id="SvgjsG1347"><text id="SvgjsText1348" font-family="微软雅黑" text-anchor="middle" font-size="25px" width="121px" fill="#323232" font-weight="400" align="middle" anchor="middle" family="微软雅黑" size="25px" weight="400" font-style="" opacity="1" y="8.25" transform="rotate(0)"><tspan id="SvgjsTspan1349" dy="31" x="70.5"><tspan id="SvgjsTspan1350" style="text-decoration:;">数据</tspan></tspan></text></g></g><g id="SvgjsG1351" transform="translate(2030.359375,790.75)"><path id="SvgjsPath1352" d="M 0 0L 141 0L 141 59L 0 59Z" stroke="rgba(50,50,50,1)" stroke-width="2" fill-opacity="1" fill="#ffffff"></path><g id="SvgjsG1353"><text id="SvgjsText1354" font-family="微软雅黑" text-anchor="middle" font-size="19px" width="121px" fill="#323232" font-weight="400" align="middle" anchor="middle" family="微软雅黑" size="19px" weight="400" font-style="" opacity="1" y="14.65" transform="rotate(0)"><tspan id="SvgjsTspan1355" dy="23" x="70.5"><tspan id="SvgjsTspan1356" style="text-decoration:;">HTTP包首部</tspan></tspan></text></g></g><g id="SvgjsG1357" transform="translate(1744.359375,790.75)"><path id="SvgjsPath1358" d="M 0 0L 141 0L 141 59L 0 59Z" stroke="rgba(50,50,50,1)" stroke-width="2" fill-opacity="1" fill="#ffffff"></path><g id="SvgjsG1359"><text id="SvgjsText1360" font-family="微软雅黑" text-anchor="middle" font-size="20px" width="121px" fill="#323232" font-weight="400" align="middle" anchor="middle" family="微软雅黑" size="20px" weight="400" font-style="" opacity="1" y="14" transform="rotate(0)"><tspan id="SvgjsTspan1361" dy="25" x="70.5"><tspan id="SvgjsTspan1362" style="text-decoration:;">IP 包首部</tspan></tspan></text></g></g><g id="SvgjsG1363" transform="translate(1600.00048828125,790.75)"><path id="SvgjsPath1364" d="M 0 0L 141 0L 141 59L 0 59Z" stroke="rgba(50,50,50,1)" stroke-width="2" fill-opacity="1" fill="#ffffff"></path><g id="SvgjsG1365"><text id="SvgjsText1366" font-family="微软雅黑" text-anchor="middle" font-size="20px" width="121px" fill="#323232" font-weight="400" align="middle" anchor="middle" family="微软雅黑" size="20px" weight="400" font-style="" opacity="1" y="14" transform="rotate(0)"><tspan id="SvgjsTspan1367" dy="25" x="70.5"><tspan id="SvgjsTspan1368" style="text-decoration:;">数据帧首部</tspan></tspan></text></g></g><g id="SvgjsG1369" transform="matrix(6.123233995736766e-17,1,-1,6.123233995736766e-17,2310.359375,856.25)"><path id="SvgjsPath1370" d="M 0 565.5625Q 9 565.5625 9 556.5625L 9 291.78125Q 9 282.78125 22 282.78125Q 9 282.78125 9 273.78125L 9 9Q 9 0 0 0" stroke="rgba(50,50,50,1)" stroke-width="2" fill="none"></path><path id="SvgjsPath1371" d="M 0 0L 93.74999999999989 0L 93.74999999999989 565.5625L 0 565.5625Z" stroke="none" fill="none"></path><g id="SvgjsG1372"><text id="SvgjsText1373" font-family="微软雅黑" text-anchor="start" font-size="13px" width="67px" fill="#323232" font-weight="400" align="middle" anchor="start" family="微软雅黑" size="13px" weight="400" font-style="" opacity="1" y="272.83125" transform="rotate(0)"></text></g></g><g id="SvgjsG1374" transform="translate(1958.6640625,887.5)"><path id="SvgjsPath1375" d="M 0 0L 120 0L 120 46L 0 46Z" stroke="none" fill="none"></path><g id="SvgjsG1376"><text id="SvgjsText1377" font-family="微软雅黑" text-anchor="middle" font-size="25px" width="120px" fill="#323232" font-weight="400" align="middle" anchor="middle" family="微软雅黑" size="25px" weight="400" font-style="" opacity="1" y="1.75" transform="rotate(0)"><tspan id="SvgjsTspan1378" dy="31" x="60"><tspan id="SvgjsTspan1379" style="text-decoration:;">帧上 数据</tspan></tspan></text></g></g><g id="SvgjsG1380" transform="translate(735.671875,119.5625)"><path id="SvgjsPath1381" d="M 8.559375000000001 0L 17.378125 0L 17.378125 836.21875L 25.9375 836.21875L 12.96875 849.1875L 0 836.21875L 8.559375000000001 836.21875L 8.559375000000001 0Z" stroke="rgba(50,50,50,1)" stroke-width="2" fill-opacity="1" fill="#ffffff"></path><g id="SvgjsG1382"><text id="SvgjsText1383" font-family="微软雅黑" text-anchor="middle" font-size="25px" width="37px" fill="#323232" font-weight="400" align="middle" anchor="middle" family="微软雅黑" size="25px" weight="400" font-style="" opacity="1" y="360.884375" transform="rotate(0)"></text></g></g><g id="SvgjsG1384" transform="matrix(-1,1.2246467991473532e-16,-1.2246467991473532e-16,-1,1435.6328125,967.1875)"><path id="SvgjsPath1385" d="M 8.559375000000001 0L 17.378125 0L 17.378125 836.21875L 25.9375 836.21875L 12.96875 849.1875L 0 836.21875L 8.559375000000001 836.21875L 8.559375000000001 0Z" stroke="rgba(50,50,50,1)" stroke-width="2" fill-opacity="1" fill="#ffffff"></path><g id="SvgjsG1386"><text id="SvgjsText1387" font-family="微软雅黑" text-anchor="middle" font-size="25px" width="37px" fill="#323232" font-weight="400" align="middle" anchor="middle" family="微软雅黑" size="25px" weight="400" font-style="" opacity="1" y="360.884375" transform="rotate(0)"></text></g></g><g id="SvgjsG1388" transform="translate(643.859375,902.5)"><path id="SvgjsPath1389" d="M 0 0L 120 0L 120 40L 0 40Z" stroke="none" fill="none"></path><g id="SvgjsG1390"><text id="SvgjsText1391" font-family="微软雅黑" text-anchor="middle" font-size="25px" width="120px" fill="#ff6666" font-weight="400" align="middle" anchor="middle" family="微软雅黑" size="25px" weight="400" font-style="" opacity="1" y="-1.25" transform="rotate(0)"><tspan id="SvgjsTspan1392" dy="31" x="60"><tspan id="SvgjsTspan1393" style="text-decoration:;">封包</tspan></tspan></text></g></g><g id="SvgjsG1394" transform="translate(1411.984375,910)"><path id="SvgjsPath1395" d="M 0 0L 120 0L 120 40L 0 40Z" stroke="none" fill="none"></path><g id="SvgjsG1396"><text id="SvgjsText1397" font-family="微软雅黑" text-anchor="middle" font-size="25px" width="120px" fill="#ff6666" font-weight="400" align="middle" anchor="middle" family="微软雅黑" size="25px" weight="400" font-style="" opacity="1" y="-1.25" transform="rotate(0)"><tspan id="SvgjsTspan1398" dy="31" x="60"><tspan id="SvgjsTspan1399" style="text-decoration:;">拆包</tspan></tspan></text></g></g><g id="SvgjsG1400"><path id="SvgjsPath1401" d="M841.859375 245.5L841.859375 283.5L841.859375 283.5L841.859375 321.5" stroke="#323232" stroke-width="2" fill="none" marker-end="url(#SvgjsMarker1402)"></path></g><g id="SvgjsG1404"><path id="SvgjsPath1405" d="M841.859375 450.5L841.859375 495.5L841.859375 495.5L841.859375 540.5" stroke="#323232" stroke-width="2" fill="none" marker-end="url(#SvgjsMarker1406)"></path></g><g id="SvgjsG1408"><path id="SvgjsPath1409" d="M841.859375 669.5L841.859375 708.5L841.859375 708.5L841.859375 747.5" stroke="#323232" stroke-width="2" fill="none" marker-end="url(#SvgjsMarker1410)"></path></g><g id="SvgjsG1412"><path id="SvgjsPath1413" d="M1315.859375 450.5L1315.859375 495.5L1315.859375 495.5L1315.859375 540.5" stroke="#323232" stroke-width="2" fill="none" marker-start="url(#SvgjsMarker1414)"></path></g><g id="SvgjsG1416"><path id="SvgjsPath1417" d="M1315.859375 245.5L1315.859375 283.5L1315.859375 283.5L1315.859375 321.5" stroke="#323232" stroke-width="2" fill="none" marker-start="url(#SvgjsMarker1418)"></path></g><g id="SvgjsG1420" transform="translate(798.609375,25)"><path id="SvgjsPath1421" d="M 0 0L 100 0L 100 70L 0 70Z" stroke="rgba(50,50,50,1)" stroke-width="2" fill-opacity="1" fill="#ffffff"></path><g id="SvgjsG1422"><text id="SvgjsText1423" font-family="微软雅黑" text-anchor="middle" font-size="25px" width="80px" fill="#323232" font-weight="400" align="middle" anchor="middle" family="微软雅黑" size="25px" weight="400" font-style="" opacity="1" y="13.75" transform="rotate(0)"><tspan id="SvgjsTspan1424" dy="31" x="50"><tspan id="SvgjsTspan1425" style="text-decoration:;">发送端</tspan></tspan></text></g></g><g id="SvgjsG1426" transform="translate(1274.859375,26.875)"><path id="SvgjsPath1427" d="M 0 0L 100 0L 100 70L 0 70Z" stroke="rgba(50,50,50,1)" stroke-width="2" fill-opacity="1" fill="#ffffff"></path><g id="SvgjsG1428"><text id="SvgjsText1429" font-family="微软雅黑" text-anchor="middle" font-size="25px" width="80px" fill="#323232" font-weight="400" align="middle" anchor="middle" family="微软雅黑" size="25px" weight="400" font-style="" opacity="1" y="13.75" transform="rotate(0)"><tspan id="SvgjsTspan1430" dy="31" x="50"><tspan id="SvgjsTspan1431" style="text-decoration:;">接受端</tspan></tspan></text></g></g></svg>