<svg id="SvgjsSvg1200" width="1039" height="945" xmlns="http://www.w3.org/2000/svg" version="1.1" xmlns:xlink="http://www.w3.org/1999/xlink" xmlns:svgjs="http://svgjs.com/svgjs"><defs id="SvgjsDefs1201"><marker id="SvgjsMarker1219" markerWidth="16" markerHeight="12" refX="0" refY="6" viewBox="0 0 16 12" orient="auto" markerUnits="userSpaceOnUse" stroke-dasharray="0,0"><path id="SvgjsPath1220" d="M15,1.5 L2,6 L15,10.5" fill="#323232" stroke="#323232" stroke-width="2"></path></marker><marker id="SvgjsMarker1221" markerWidth="16" markerHeight="12" refX="16" refY="6" viewBox="0 0 16 12" orient="auto" markerUnits="userSpaceOnUse" stroke-dasharray="0,0"><path id="SvgjsPath1222" d="M0,2 L14,6 L0,11 L0,2" fill="#323232" stroke="#323232" stroke-width="2"></path></marker><marker id="SvgjsMarker1252" markerWidth="16" markerHeight="12" refX="0" refY="6" viewBox="0 0 16 12" orient="auto" markerUnits="userSpaceOnUse" stroke-dasharray="0,0"><path id="SvgjsPath1253" d="M15,1.5 L2,6 L15,10.5" fill="#323232" stroke="#323232" stroke-width="2"></path></marker><marker id="SvgjsMarker1254" markerWidth="16" markerHeight="12" refX="16" refY="6" viewBox="0 0 16 12" orient="auto" markerUnits="userSpaceOnUse" stroke-dasharray="0,0"><path id="SvgjsPath1255" d="M0,2 L14,6 L0,11 L0,2" fill="#323232" stroke="#323232" stroke-width="2"></path></marker><marker id="SvgjsMarker1276" markerWidth="16" markerHeight="12" refX="0" refY="6" viewBox="0 0 16 12" orient="auto" markerUnits="userSpaceOnUse" stroke-dasharray="0,0"><path id="SvgjsPath1277" d="M15,1.5 L2,6 L15,10.5" fill="#323232" stroke="#323232" stroke-width="2"></path></marker><marker id="SvgjsMarker1278" markerWidth="16" markerHeight="12" refX="16" refY="6" viewBox="0 0 16 12" orient="auto" markerUnits="userSpaceOnUse" stroke-dasharray="0,0"><path id="SvgjsPath1279" d="M0,2 L14,6 L0,11 L0,2" fill="#323232" stroke="#323232" stroke-width="2"></path></marker><marker id="SvgjsMarker1304" markerWidth="16" markerHeight="12" refX="0" refY="6" viewBox="0 0 16 12" orient="auto" markerUnits="userSpaceOnUse" stroke-dasharray="0,0"><path id="SvgjsPath1305" d="M15,1.5 L2,6 L15,10.5" fill="#323232" stroke="#323232" stroke-width="2"></path></marker><marker id="SvgjsMarker1306" markerWidth="16" markerHeight="12" refX="16" refY="6" viewBox="0 0 16 12" orient="auto" markerUnits="userSpaceOnUse" stroke-dasharray="0,0"><path id="SvgjsPath1307" d="M0,2 L14,6 L0,11 L0,2" fill="#323232" stroke="#323232" stroke-width="2"></path></marker><marker id="SvgjsMarker1353" markerWidth="16" markerHeight="12" refX="0" refY="6" viewBox="0 0 16 12" orient="auto" markerUnits="userSpaceOnUse" stroke-dasharray="0,0"><path id="SvgjsPath1354" d="M15,1.5 L2,6 L15,10.5" fill="#323232" stroke="#323232" stroke-width="2"></path></marker><marker id="SvgjsMarker1355" markerWidth="16" markerHeight="12" refX="16" refY="6" viewBox="0 0 16 12" orient="auto" markerUnits="userSpaceOnUse" stroke-dasharray="0,0"><path id="SvgjsPath1356" d="M0,2 L14,6 L0,11 L0,2" fill="#323232" stroke="#323232" stroke-width="2"></path></marker><marker id="SvgjsMarker1359" markerWidth="16" markerHeight="12" refX="0" refY="6" viewBox="0 0 16 12" orient="auto" markerUnits="userSpaceOnUse" stroke-dasharray="0,0"><path id="SvgjsPath1360" d="M15,1.5 L2,6 L15,10.5" fill="#323232" stroke="#323232" stroke-width="2"></path></marker><marker id="SvgjsMarker1361" markerWidth="16" markerHeight="12" refX="16" refY="6" viewBox="0 0 16 12" orient="auto" markerUnits="userSpaceOnUse" stroke-dasharray="0,0"><path id="SvgjsPath1362" d="M0,2 L14,6 L0,11 L0,2" fill="#323232" stroke="#323232" stroke-width="2"></path></marker><marker id="SvgjsMarker1365" markerWidth="16" markerHeight="12" refX="0" refY="6" viewBox="0 0 16 12" orient="auto" markerUnits="userSpaceOnUse" stroke-dasharray="0,0"><path id="SvgjsPath1366" d="M15,1.5 L2,6 L15,10.5" fill="#323232" stroke="#323232" stroke-width="2"></path></marker><marker id="SvgjsMarker1367" markerWidth="16" markerHeight="12" refX="16" refY="6" viewBox="0 0 16 12" orient="auto" markerUnits="userSpaceOnUse" stroke-dasharray="0,0"><path id="SvgjsPath1368" d="M0,2 L14,6 L0,11 L0,2" fill="#323232" stroke="#323232" stroke-width="2"></path></marker><marker id="SvgjsMarker1371" markerWidth="16" markerHeight="12" refX="0" refY="6" viewBox="0 0 16 12" orient="auto" markerUnits="userSpaceOnUse" stroke-dasharray="0,0"><path id="SvgjsPath1372" d="M15,1.5 L2,6 L15,10.5" fill="#323232" stroke="#323232" stroke-width="2"></path></marker><marker id="SvgjsMarker1373" markerWidth="16" markerHeight="12" refX="16" refY="6" viewBox="0 0 16 12" orient="auto" markerUnits="userSpaceOnUse" stroke-dasharray="0,0"><path id="SvgjsPath1374" d="M0,2 L14,6 L0,11 L0,2" fill="#323232" stroke="#323232" stroke-width="2"></path></marker><marker id="SvgjsMarker1377" markerWidth="16" markerHeight="12" refX="0" refY="6" viewBox="0 0 16 12" orient="auto" markerUnits="userSpaceOnUse" stroke-dasharray="0,0"><path id="SvgjsPath1378" d="M15,1.5 L2,6 L15,10.5" fill="#323232" stroke="#323232" stroke-width="2"></path></marker><marker id="SvgjsMarker1379" markerWidth="16" markerHeight="12" refX="16" refY="6" viewBox="0 0 16 12" orient="auto" markerUnits="userSpaceOnUse" stroke-dasharray="0,0"><path id="SvgjsPath1380" d="M0,2 L14,6 L0,11 L0,2" fill="#323232" stroke="#323232" stroke-width="2"></path></marker><marker id="SvgjsMarker1383" markerWidth="16" markerHeight="12" refX="0" refY="6" viewBox="0 0 16 12" orient="auto" markerUnits="userSpaceOnUse" stroke-dasharray="0,0"><path id="SvgjsPath1384" d="M15,1.5 L2,6 L15,10.5" fill="#323232" stroke="#323232" stroke-width="2"></path></marker><marker id="SvgjsMarker1385" markerWidth="16" markerHeight="12" refX="16" refY="6" viewBox="0 0 16 12" orient="auto" markerUnits="userSpaceOnUse" stroke-dasharray="0,0"><path id="SvgjsPath1386" d="M0,2 L14,6 L0,11 L0,2" fill="#323232" stroke="#323232" stroke-width="2"></path></marker></defs><rect id="SvgjsRect1202" width="1039" height="945" fill="#ffffff"></rect><g id="SvgjsG1203" transform="translate(171,28.5)"><path id="SvgjsPath1204" d="M 0 0L 154 0L 154 129L 0 129Z" stroke="rgba(50,50,50,1)" stroke-width="2" fill-opacity="1" fill="#ffffff"></path><g id="SvgjsG1205"><text id="SvgjsText1206" font-family="微软雅黑" text-anchor="middle" font-size="30px" width="134px" fill="#323232" font-weight="400" align="middle" anchor="middle" family="微软雅黑" size="30px" weight="400" font-style="" opacity="1" y="39" transform="rotate(0)"><tspan id="SvgjsTspan1207" dy="37" x="77"><tspan id="SvgjsTspan1208" style="text-decoration:;">Web客户</tspan></tspan></text></g></g><g id="SvgjsG1209" transform="translate(645,30.5)"><path id="SvgjsPath1210" d="M 0 0L 154 0L 154 129L 0 129Z" stroke="rgba(50,50,50,1)" stroke-width="2" fill-opacity="1" fill="#ffffff"></path><g id="SvgjsG1211"><text id="SvgjsText1212" font-family="微软雅黑" text-anchor="middle" font-size="30px" width="134px" fill="#323232" font-weight="400" align="middle" anchor="middle" family="微软雅黑" size="30px" weight="400" font-style="" opacity="1" y="20" transform="rotate(0)"><tspan id="SvgjsTspan1213" dy="37" x="77"><tspan id="SvgjsTspan1214" style="text-decoration:;">Web服务</tspan></tspan><tspan id="SvgjsTspan1215" dy="37" x="77"><tspan id="SvgjsTspan1216" style="text-decoration:;">器</tspan></tspan></text></g></g><g id="SvgjsG1217"><path id="SvgjsPath1218" d="M325 93L645 95" stroke-dasharray="8,5" stroke="#323232" stroke-width="2" fill="none" marker-start="url(#SvgjsMarker1219)" marker-end="url(#SvgjsMarker1221)"></path></g><g id="SvgjsG1223" transform="translate(39,25)"><path id="SvgjsPath1224" d="M 100 0Q 91 0 91 9L 91 61Q 91 70 78 70Q 91 70 91 79L 91 131Q 91 140 100 140" stroke="rgba(50,50,50,1)" stroke-width="4" fill="none"></path><path id="SvgjsPath1225" d="M 0 0L 100 0L 100 140L 0 140Z" stroke="none" fill="none"></path><g id="SvgjsG1226"><text id="SvgjsText1227" font-family="微软雅黑" text-anchor="end" font-size="30px" width="73px" fill="#323232" font-weight="400" align="middle" anchor="end" family="微软雅黑" size="30px" weight="400" font-style="" opacity="1" y="25.5" transform="rotate(0)"><tspan id="SvgjsTspan1228" dy="37" x="73"><tspan id="SvgjsTspan1229" style="text-decoration:;">用户</tspan></tspan><tspan id="SvgjsTspan1230" dy="37" x="73"><tspan id="SvgjsTspan1231" style="text-decoration:;">进程</tspan></tspan></text></g></g><g id="SvgjsG1232" transform="translate(371,29.5)"><path id="SvgjsPath1233" d="M 0 0L 216 0L 216 46L 0 46Z" stroke="rgba(255,255,255,1)" stroke-width="2" fill-opacity="1" fill="#ffffff"></path><g id="SvgjsG1234"><text id="SvgjsText1235" font-family="微软雅黑" text-anchor="middle" font-size="30px" width="196px" fill="#323232" font-weight="400" align="middle" anchor="middle" family="微软雅黑" size="30px" weight="400" font-style="" opacity="1" y="-2.5" transform="rotate(0)"><tspan id="SvgjsTspan1236" dy="37" x="108"><tspan id="SvgjsTspan1237" style="text-decoration:;">应用协议</tspan></tspan></text></g></g><g id="SvgjsG1238" transform="translate(173,228.5)"><path id="SvgjsPath1239" d="M 0 0L 154 0L 154 129L 0 129Z" stroke="rgba(50,50,50,1)" stroke-width="2" fill-opacity="1" fill="#ffffff"></path><g id="SvgjsG1240"><text id="SvgjsText1241" font-family="微软雅黑" text-anchor="middle" font-size="30px" width="134px" fill="#323232" font-weight="400" align="middle" anchor="middle" family="微软雅黑" size="30px" weight="400" font-style="" opacity="1" y="39" transform="rotate(0)"><tspan id="SvgjsTspan1242" dy="37" x="77"><tspan id="SvgjsTspan1243" style="text-decoration:;">TCP</tspan></tspan></text></g></g><g id="SvgjsG1244" transform="translate(647,228.5)"><path id="SvgjsPath1245" d="M 0 0L 154 0L 154 129L 0 129Z" stroke="rgba(50,50,50,1)" stroke-width="2" fill-opacity="1" fill="#ffffff"></path><g id="SvgjsG1246"><text id="SvgjsText1247" font-family="微软雅黑" text-anchor="middle" font-size="30px" width="134px" fill="#323232" font-weight="400" align="middle" anchor="middle" family="微软雅黑" size="30px" weight="400" font-style="" opacity="1" y="39" transform="rotate(0)"><tspan id="SvgjsTspan1248" dy="37" x="77"><tspan id="SvgjsTspan1249" style="text-decoration:;">TCP</tspan></tspan></text></g></g><g id="SvgjsG1250"><path id="SvgjsPath1251" d="M327 293L647 293" stroke-dasharray="8,5" stroke="#323232" stroke-width="2" fill="none" marker-start="url(#SvgjsMarker1252)" marker-end="url(#SvgjsMarker1254)"></path></g><g id="SvgjsG1256" transform="translate(373,235.5)"><path id="SvgjsPath1257" d="M 0 0L 216 0L 216 46L 0 46Z" stroke="rgba(255,255,255,1)" stroke-width="2" fill-opacity="1" fill="#ffffff"></path><g id="SvgjsG1258"><text id="SvgjsText1259" font-family="微软雅黑" text-anchor="middle" font-size="30px" width="196px" fill="#323232" font-weight="400" align="middle" anchor="middle" family="微软雅黑" size="30px" weight="400" font-style="" opacity="1" y="-2.5" transform="rotate(0)"><tspan id="SvgjsTspan1260" dy="37" x="108"><tspan id="SvgjsTspan1261" style="text-decoration:;">TCP协议</tspan></tspan></text></g></g><g id="SvgjsG1262" transform="translate(173,446.5)"><path id="SvgjsPath1263" d="M 0 0L 154 0L 154 129L 0 129Z" stroke="rgba(50,50,50,1)" stroke-width="2" fill-opacity="1" fill="#ffffff"></path><g id="SvgjsG1264"><text id="SvgjsText1265" font-family="微软雅黑" text-anchor="middle" font-size="30px" width="134px" fill="#323232" font-weight="400" align="middle" anchor="middle" family="微软雅黑" size="30px" weight="400" font-style="" opacity="1" y="39" transform="rotate(0)"><tspan id="SvgjsTspan1266" dy="37" x="77"><tspan id="SvgjsTspan1267" style="text-decoration:;">IP</tspan></tspan></text></g></g><g id="SvgjsG1268" transform="translate(647,448.5)"><path id="SvgjsPath1269" d="M 0 0L 154 0L 154 129L 0 129Z" stroke="rgba(50,50,50,1)" stroke-width="2" fill-opacity="1" fill="#ffffff"></path><g id="SvgjsG1270"><text id="SvgjsText1271" font-family="微软雅黑" text-anchor="middle" font-size="30px" width="134px" fill="#323232" font-weight="400" align="middle" anchor="middle" family="微软雅黑" size="30px" weight="400" font-style="" opacity="1" y="39" transform="rotate(0)"><tspan id="SvgjsTspan1272" dy="37" x="77"><tspan id="SvgjsTspan1273" style="text-decoration:;">IP</tspan></tspan></text></g></g><g id="SvgjsG1274"><path id="SvgjsPath1275" d="M327 511L647 513" stroke-dasharray="8,5" stroke="#323232" stroke-width="2" fill="none" marker-start="url(#SvgjsMarker1276)" marker-end="url(#SvgjsMarker1278)"></path></g><g id="SvgjsG1280" transform="translate(373,447.5)"><path id="SvgjsPath1281" d="M 0 0L 216 0L 216 46L 0 46Z" stroke="rgba(255,255,255,1)" stroke-width="2" fill-opacity="1" fill="#ffffff"></path><g id="SvgjsG1282"><text id="SvgjsText1283" font-family="微软雅黑" text-anchor="middle" font-size="30px" width="196px" fill="#323232" font-weight="400" align="middle" anchor="middle" family="微软雅黑" size="30px" weight="400" font-style="" opacity="1" y="-2.5" transform="rotate(0)"><tspan id="SvgjsTspan1284" dy="37" x="108"><tspan id="SvgjsTspan1285" style="text-decoration:;">IP协议</tspan></tspan></text></g></g><g id="SvgjsG1286" transform="translate(175,658.5)"><path id="SvgjsPath1287" d="M 0 0L 154 0L 154 129L 0 129Z" stroke="rgba(50,50,50,1)" stroke-width="2" fill-opacity="1" fill="#ffffff"></path><g id="SvgjsG1288"><text id="SvgjsText1289" font-family="微软雅黑" text-anchor="middle" font-size="30px" width="134px" fill="#323232" font-weight="400" align="middle" anchor="middle" family="微软雅黑" size="30px" weight="400" font-style="" opacity="1" y="20" transform="rotate(0)"><tspan id="SvgjsTspan1290" dy="37" x="77"><tspan id="SvgjsTspan1291" style="text-decoration:;">以太网驱</tspan></tspan><tspan id="SvgjsTspan1292" dy="37" x="77"><tspan id="SvgjsTspan1293" style="text-decoration:;">动程序</tspan></tspan></text></g></g><g id="SvgjsG1294" transform="translate(649,664.5)"><path id="SvgjsPath1295" d="M 0 0L 154 0L 154 129L 0 129Z" stroke="rgba(50,50,50,1)" stroke-width="2" fill-opacity="1" fill="#ffffff"></path><g id="SvgjsG1296"><text id="SvgjsText1297" font-family="微软雅黑" text-anchor="middle" font-size="30px" width="134px" fill="#323232" font-weight="400" align="middle" anchor="middle" family="微软雅黑" size="30px" weight="400" font-style="" opacity="1" y="20" transform="rotate(0)"><tspan id="SvgjsTspan1298" dy="37" x="77"><tspan id="SvgjsTspan1299" style="text-decoration:;">以太网驱</tspan></tspan><tspan id="SvgjsTspan1300" dy="37" x="77"><tspan id="SvgjsTspan1301" style="text-decoration:;">动程序</tspan></tspan></text></g></g><g id="SvgjsG1302"><path id="SvgjsPath1303" d="M329 723L649 729" stroke-dasharray="8,5" stroke="#323232" stroke-width="2" fill="none" marker-start="url(#SvgjsMarker1304)" marker-end="url(#SvgjsMarker1306)"></path></g><g id="SvgjsG1308" transform="translate(371,657.5)"><path id="SvgjsPath1309" d="M 0 0L 216 0L 216 46L 0 46Z" stroke="rgba(255,255,255,1)" stroke-width="2" fill-opacity="1" fill="#ffffff"></path><g id="SvgjsG1310"><text id="SvgjsText1311" font-family="微软雅黑" text-anchor="middle" font-size="30px" width="196px" fill="#323232" font-weight="400" align="middle" anchor="middle" family="微软雅黑" size="30px" weight="400" font-style="" opacity="1" y="-2.5" transform="rotate(0)"><tspan id="SvgjsTspan1312" dy="37" x="108"><tspan id="SvgjsTspan1313" style="text-decoration:;">以太网协议</tspan></tspan></text></g></g><g id="SvgjsG1314" transform="translate(825,57.5)"><path id="SvgjsPath1315" d="M 0 0L 134 0L 134 61L 0 61Z" stroke="rgba(255,255,255,1)" stroke-width="2" fill-opacity="1" fill="#ffffff"></path><g id="SvgjsG1316"><text id="SvgjsText1317" font-family="微软雅黑" text-anchor="middle" font-size="30px" width="114px" fill="#323232" font-weight="400" align="middle" anchor="middle" family="微软雅黑" size="30px" weight="400" font-style="" opacity="1" y="5" transform="rotate(0)"><tspan id="SvgjsTspan1318" dy="37" x="67"><tspan id="SvgjsTspan1319" style="text-decoration:;">应用层</tspan></tspan></text></g></g><g id="SvgjsG1320" transform="translate(837,269.5)"><path id="SvgjsPath1321" d="M 0 0L 134 0L 134 61L 0 61Z" stroke="rgba(255,255,255,1)" stroke-width="2" fill-opacity="1" fill="#ffffff"></path><g id="SvgjsG1322"><text id="SvgjsText1323" font-family="微软雅黑" text-anchor="middle" font-size="30px" width="114px" fill="#323232" font-weight="400" align="middle" anchor="middle" family="微软雅黑" size="30px" weight="400" font-style="" opacity="1" y="5" transform="rotate(0)"><tspan id="SvgjsTspan1324" dy="37" x="67"><tspan id="SvgjsTspan1325" style="text-decoration:;">传输层</tspan></tspan></text></g></g><g id="SvgjsG1326" transform="translate(825,487.5)"><path id="SvgjsPath1327" d="M 0 0L 134 0L 134 61L 0 61Z" stroke="rgba(255,255,255,1)" stroke-width="2" fill-opacity="1" fill="#ffffff"></path><g id="SvgjsG1328"><text id="SvgjsText1329" font-family="微软雅黑" text-anchor="middle" font-size="30px" width="114px" fill="#323232" font-weight="400" align="middle" anchor="middle" family="微软雅黑" size="30px" weight="400" font-style="" opacity="1" y="5" transform="rotate(0)"><tspan id="SvgjsTspan1330" dy="37" x="67"><tspan id="SvgjsTspan1331" style="text-decoration:;">网络层</tspan></tspan></text></g></g><g id="SvgjsG1332" transform="translate(833,695.5)"><path id="SvgjsPath1333" d="M 0 0L 181 0L 181 48L 0 48Z" stroke="rgba(255,255,255,1)" stroke-width="2" fill-opacity="1" fill="#ffffff"></path><g id="SvgjsG1334"><text id="SvgjsText1335" font-family="微软雅黑" text-anchor="middle" font-size="30px" width="161px" fill="#323232" font-weight="400" align="middle" anchor="middle" family="微软雅黑" size="30px" weight="400" font-style="" opacity="1" y="-1.5" transform="rotate(0)"><tspan id="SvgjsTspan1336" dy="37" x="90.5"><tspan id="SvgjsTspan1337" style="text-decoration:;">数据链路层</tspan></tspan></text></g></g><g id="SvgjsG1338" transform="translate(25,283.5)"><path id="SvgjsPath1339" d="M 110 0Q 101 0 101 9L 101 113Q 101 122 88 122Q 101 122 101 131L 101 235Q 101 244 110 244" stroke="rgba(50,50,50,1)" stroke-width="5" fill="none"></path><path id="SvgjsPath1340" d="M 0 0L 110 0L 110 244L 0 244Z" stroke="none" fill="none"></path><g id="SvgjsG1341"><text id="SvgjsText1342" font-family="微软雅黑" text-anchor="end" font-size="30px" width="83px" fill="#323232" font-weight="400" align="middle" anchor="end" family="微软雅黑" size="30px" weight="400" font-style="" opacity="1" y="39.5" transform="rotate(0)"><tspan id="SvgjsTspan1343" dy="37" x="83"><tspan id="SvgjsTspan1344" style="text-decoration:;">内核</tspan></tspan><tspan id="SvgjsTspan1345" dy="37" x="83"><tspan id="SvgjsTspan1346" style="text-decoration:;">中的</tspan></tspan><tspan id="SvgjsTspan1347" dy="37" x="83"><tspan id="SvgjsTspan1348" style="text-decoration:;">协议</tspan></tspan><tspan id="SvgjsTspan1349" dy="37" x="83"><tspan id="SvgjsTspan1350" style="text-decoration:;">栈</tspan></tspan></text></g></g><g id="SvgjsG1351"><path id="SvgjsPath1352" d="M248 157.5L250 228.5" stroke="#323232" stroke-width="2" fill="none" marker-start="url(#SvgjsMarker1353)" marker-end="url(#SvgjsMarker1355)"></path></g><g id="SvgjsG1357"><path id="SvgjsPath1358" d="M250 357.5L250 446.5" stroke="#323232" stroke-width="2" fill="none" marker-start="url(#SvgjsMarker1359)" marker-end="url(#SvgjsMarker1361)"></path></g><g id="SvgjsG1363"><path id="SvgjsPath1364" d="M250 575.5L252 658.5" stroke="#323232" stroke-width="2" fill="none" marker-start="url(#SvgjsMarker1365)" marker-end="url(#SvgjsMarker1367)"></path></g><g id="SvgjsG1369"><path id="SvgjsPath1370" d="M722 159.5L724 228.5" stroke="#323232" stroke-width="2" fill="none" marker-start="url(#SvgjsMarker1371)" marker-end="url(#SvgjsMarker1373)"></path></g><g id="SvgjsG1375"><path id="SvgjsPath1376" d="M724 357.5L724 448.5" stroke="#323232" stroke-width="2" fill="none" marker-start="url(#SvgjsMarker1377)" marker-end="url(#SvgjsMarker1379)"></path></g><g id="SvgjsG1381"><path id="SvgjsPath1382" d="M724 577.5L726 664.5" stroke="#323232" stroke-width="2" fill="none" marker-start="url(#SvgjsMarker1383)" marker-end="url(#SvgjsMarker1385)"></path></g><g id="SvgjsG1387" transform="translate(39,899)"><path id="SvgjsPath1388" d="M 0 11L 936 11" stroke="rgba(136,136,136,1)" stroke-width="6" fill="none"></path><path id="SvgjsPath1389" d="M 0 0L 936 0L 936 21L 0 21Z" stroke="none" fill="none"></path></g><g id="SvgjsG1390"><path id="SvgjsPath1391" d="M252 787.5L252 849.5L252 849.5L252 911.5" stroke="#323232" stroke-width="5" fill="none"></path></g><g id="SvgjsG1392"><path id="SvgjsPath1393" d="M726 793.5L726 851.5L726 851.5L726 909.5" stroke="#323232" stroke-width="5" fill="none"></path></g><g id="SvgjsG1394" transform="translate(173,178.5)"><path id="SvgjsPath1395" d="M 0 4Q 0 0 4 0L 622 0Q 626 0 626 4L 626 22Q 626 26 622 26L 4 26Q 0 26 0 22Z" stroke="rgba(50,50,50,1)" stroke-width="2" fill-opacity="1" fill="#ffffff"></path><g id="SvgjsG1396"><text id="SvgjsText1397" font-family="微软雅黑" text-anchor="middle" font-size="13px" width="606px" fill="#323232" font-weight="400" align="middle" anchor="middle" family="微软雅黑" size="13px" weight="400" font-style="" opacity="1" y="3.05" transform="rotate(0)"><tspan id="SvgjsTspan1398" dy="16" x="313"><tspan id="SvgjsTspan1399" style="text-decoration:;">Socket</tspan></tspan></text></g></g></svg>