<svg id="SvgjsSvg1138" width="818" height="631" xmlns="http://www.w3.org/2000/svg" version="1.1" xmlns:xlink="http://www.w3.org/1999/xlink" xmlns:svgjs="http://svgjs.com/svgjs"><defs id="SvgjsDefs1139"><marker id="SvgjsMarker1194" markerWidth="16" markerHeight="12" refX="16" refY="6" viewBox="0 0 16 12" orient="auto" markerUnits="userSpaceOnUse" stroke-dasharray="0,0"><path id="SvgjsPath1195" d="M0,2 L14,6 L0,11 L0,2" fill="#323232" stroke="#323232" stroke-width="2"></path></marker><marker id="SvgjsMarker1198" markerWidth="16" markerHeight="12" refX="16" refY="6" viewBox="0 0 16 12" orient="auto" markerUnits="userSpaceOnUse" stroke-dasharray="0,0"><path id="SvgjsPath1199" d="M0,2 L14,6 L0,11 L0,2" fill="#323232" stroke="#323232" stroke-width="2"></path></marker><marker id="SvgjsMarker1202" markerWidth="16" markerHeight="12" refX="16" refY="6" viewBox="0 0 16 12" orient="auto" markerUnits="userSpaceOnUse" stroke-dasharray="0,0"><path id="SvgjsPath1203" d="M0,2 L14,6 L0,11 L0,2" fill="#323232" stroke="#323232" stroke-width="2"></path></marker><marker id="SvgjsMarker1224" markerWidth="16" markerHeight="12" refX="16" refY="6" viewBox="0 0 16 12" orient="auto" markerUnits="userSpaceOnUse" stroke-dasharray="0,0"><path id="SvgjsPath1225" d="M0,2 L14,6 L0,11 L0,2" fill="#323232" stroke="#323232" stroke-width="2"></path></marker><marker id="SvgjsMarker1228" markerWidth="16" markerHeight="12" refX="16" refY="6" viewBox="0 0 16 12" orient="auto" markerUnits="userSpaceOnUse" stroke-dasharray="0,0"><path id="SvgjsPath1229" d="M0,2 L14,6 L0,11 L0,2" fill="#323232" stroke="#323232" stroke-width="2"></path></marker><marker id="SvgjsMarker1232" markerWidth="16" markerHeight="12" refX="16" refY="6" viewBox="0 0 16 12" orient="auto" markerUnits="userSpaceOnUse" stroke-dasharray="0,0"><path id="SvgjsPath1233" d="M0,2 L14,6 L0,11 L0,2" fill="#323232" stroke="#323232" stroke-width="2"></path></marker><marker id="SvgjsMarker1242" markerWidth="16" markerHeight="12" refX="10" refY="6" viewBox="0 0 16 12" orient="auto" markerUnits="userSpaceOnUse" stroke-dasharray="0,0"><path id="SvgjsPath1243" d="M0,3 L10,6 L0,9 L0,3" fill="#000000" stroke="#000000" stroke-width="1"></path></marker><marker id="SvgjsMarker1246" markerWidth="16" markerHeight="12" refX="0" refY="6" viewBox="0 0 16 12" orient="auto" markerUnits="userSpaceOnUse" stroke-dasharray="0,0"><path id="SvgjsPath1247" d="M10,3 L0,6 L10,9" fill="#323232" stroke="#323232" stroke-width="1"></path></marker><marker id="SvgjsMarker1250" markerWidth="16" markerHeight="12" refX="0" refY="6" viewBox="0 0 16 12" orient="auto" markerUnits="userSpaceOnUse" stroke-dasharray="0,0"><path id="SvgjsPath1251" d="M10,3 L0,6 L10,9" fill="#323232" stroke="#323232" stroke-width="1"></path></marker></defs><g id="SvgjsG1140" transform="translate(157,25)"><path id="SvgjsPath1141" d="M 0 4Q 0 0 4 0L 632 0Q 636 0 636 4L 636 577Q 636 581 632 581L 4 581Q 0 581 0 577Z" stroke="rgba(102,178,255,1)" stroke-width="2" fill-opacity="1" fill="#99ccff"></path><g id="SvgjsG1142"><text id="SvgjsText1143" font-family="微软雅黑" text-anchor="middle" font-size="13px" width="616px" fill="#3399ff" font-weight="400" align="middle" anchor="middle" family="微软雅黑" size="13px" weight="400" font-style="" opacity="1" y="280.55" transform="rotate(0)"></text></g></g><g id="SvgjsG1144" transform="translate(308,537)"><path id="SvgjsPath1145" d="M 0 0L 120 0L 120 40L 0 40Z" stroke="none" fill="none"></path><g id="SvgjsG1146"><text id="SvgjsText1147" font-family="微软雅黑" text-anchor="middle" font-size="26px" width="120px" fill="#323232" font-weight="400" align="middle" anchor="middle" family="微软雅黑" size="26px" weight="400" font-style="" opacity="1" y="-2.4" transform="rotate(0)"><tspan id="SvgjsTspan1148" dy="32" x="60"><tspan id="SvgjsTspan1149" style="text-decoration:;">Server</tspan></tspan></text></g></g><g id="SvgjsG1150" transform="translate(357,207)"><path id="SvgjsPath1151" d="M 0 4Q 0 0 4 0L 155 0Q 159 0 159 4L 159 163Q 159 167 155 167L 4 167Q 0 167 0 163Z" stroke="rgba(102,255,102,1)" stroke-width="2" fill-opacity="1" fill="#33ff33"></path><g id="SvgjsG1152"><text id="SvgjsText1153" font-family="微软雅黑" text-anchor="middle" font-size="13px" width="139px" fill="#323232" font-weight="400" align="middle" anchor="middle" family="微软雅黑" size="13px" weight="400" font-style="" opacity="1" y="73.55" transform="rotate(0)"><tspan id="SvgjsTspan1154" dy="16" x="79.5"><tspan id="SvgjsTspan1155" style="text-decoration:;">Acceptor</tspan></tspan></text></g></g><g id="SvgjsG1156" transform="translate(627,84)"><path id="SvgjsPath1157" d="M 0 0L 100 0L 100 70L 0 70Z" stroke="rgba(255,51,51,1)" stroke-width="2" fill-opacity="1" fill="#ff6666"></path><g id="SvgjsG1158"><text id="SvgjsText1159" font-family="微软雅黑" text-anchor="middle" font-size="13px" width="80px" fill="#323232" font-weight="400" align="middle" anchor="middle" family="微软雅黑" size="13px" weight="400" font-style="" opacity="1" y="25.05" transform="rotate(0)"><tspan id="SvgjsTspan1160" dy="16" x="50"><tspan id="SvgjsTspan1161" style="text-decoration:;">Thread 0</tspan></tspan></text></g></g><g id="SvgjsG1162" transform="translate(627,256)"><path id="SvgjsPath1163" d="M 0 0L 100 0L 100 70L 0 70Z" stroke="rgba(255,51,51,1)" stroke-width="2" fill-opacity="1" fill="#ff6666"></path><g id="SvgjsG1164"><text id="SvgjsText1165" font-family="微软雅黑" text-anchor="middle" font-size="13px" width="80px" fill="#323232" font-weight="400" align="middle" anchor="middle" family="微软雅黑" size="13px" weight="400" font-style="" opacity="1" y="25.05" transform="rotate(0)"><tspan id="SvgjsTspan1166" dy="16" x="50"><tspan id="SvgjsTspan1167" style="text-decoration:;">Thread 1</tspan></tspan></text></g></g><g id="SvgjsG1168" transform="translate(627,427)"><path id="SvgjsPath1169" d="M 0 0L 100 0L 100 70L 0 70Z" stroke="rgba(255,51,51,1)" stroke-width="2" fill-opacity="1" fill="#ff6666"></path><g id="SvgjsG1170"><text id="SvgjsText1171" font-family="微软雅黑" text-anchor="middle" font-size="13px" width="80px" fill="#323232" font-weight="400" align="middle" anchor="middle" family="微软雅黑" size="13px" weight="400" font-style="" opacity="1" y="25.05" transform="rotate(0)"><tspan id="SvgjsTspan1172" dy="16" x="50"><tspan id="SvgjsTspan1173" style="text-decoration:;">Thread 2</tspan></tspan></text></g></g><g id="SvgjsG1174" transform="translate(25,84)"><path id="SvgjsPath1175" d="M 0 0L 100 0L 100 70L 0 70Z" stroke="rgba(255,51,51,1)" stroke-width="2" fill-opacity="1" fill="#ff6666"></path><g id="SvgjsG1176"><text id="SvgjsText1177" font-family="微软雅黑" text-anchor="middle" font-size="13px" width="80px" fill="#323232" font-weight="400" align="middle" anchor="middle" family="微软雅黑" size="13px" weight="400" font-style="" opacity="1" y="25.05" transform="rotate(0)"><tspan id="SvgjsTspan1178" dy="16" x="50"><tspan id="SvgjsTspan1179" style="text-decoration:;">Client 0</tspan></tspan></text></g></g><g id="SvgjsG1180" transform="translate(25,256)"><path id="SvgjsPath1181" d="M 0 0L 100 0L 100 70L 0 70Z" stroke="rgba(255,51,51,1)" stroke-width="2" fill-opacity="1" fill="#ff6666"></path><g id="SvgjsG1182"><text id="SvgjsText1183" font-family="微软雅黑" text-anchor="middle" font-size="13px" width="80px" fill="#323232" font-weight="400" align="middle" anchor="middle" family="微软雅黑" size="13px" weight="400" font-style="" opacity="1" y="25.05" transform="rotate(0)"><tspan id="SvgjsTspan1184" dy="16" x="50"><tspan id="SvgjsTspan1185" style="text-decoration:;">Client 1</tspan></tspan></text></g></g><g id="SvgjsG1186" transform="translate(25,427)"><path id="SvgjsPath1187" d="M 0 0L 100 0L 100 70L 0 70Z" stroke="rgba(255,51,51,1)" stroke-width="2" fill-opacity="1" fill="#ff6666"></path><g id="SvgjsG1188"><text id="SvgjsText1189" font-family="微软雅黑" text-anchor="middle" font-size="13px" width="80px" fill="#323232" font-weight="400" align="middle" anchor="middle" family="微软雅黑" size="13px" weight="400" font-style="" opacity="1" y="25.05" transform="rotate(0)"><tspan id="SvgjsTspan1190" dy="16" x="50"><tspan id="SvgjsTspan1191" style="text-decoration:;">Client 2</tspan></tspan></text></g></g><g id="SvgjsG1192"><path id="SvgjsPath1193" d="M125 119C 241.36099002672677 114.99999999999997 240.63900997327323 290.5 357 290.5" stroke="#323232" stroke-width="2" fill="none" marker-end="url(#SvgjsMarker1194)"></path></g><g id="SvgjsG1196"><path id="SvgjsPath1197" d="M125 291C 217.8 290.5 264.2 290.5 357 290.5" stroke="#323232" stroke-width="2" fill="none" marker-end="url(#SvgjsMarker1198)"></path></g><g id="SvgjsG1200"><path id="SvgjsPath1201" d="M125 462C 240.4027729302897 462 241.5972270697103 290.5 357 290.5" stroke="#323232" stroke-width="2" fill="none" marker-end="url(#SvgjsMarker1202)"></path></g><g id="SvgjsG1204" transform="translate(209,162.5)"><path id="SvgjsPath1205" d="M 0 0L 52 0L 52 31L 0 31Z" stroke="rgba(51,255,255,1)" stroke-width="2" fill-opacity="1" fill="#33ffff"></path><g id="SvgjsG1206"><text id="SvgjsText1207" font-family="微软雅黑" text-anchor="middle" font-size="13px" width="32px" fill="#323232" font-weight="400" align="middle" anchor="middle" family="微软雅黑" size="13px" weight="400" font-style="" opacity="1" y="5.55" transform="rotate(0)"><tspan id="SvgjsTspan1208" dy="16" x="26"><tspan id="SvgjsTspan1209" style="text-decoration:;">链接</tspan></tspan></text></g></g><g id="SvgjsG1210" transform="translate(209,275)"><path id="SvgjsPath1211" d="M 0 0L 52 0L 52 31L 0 31Z" stroke="rgba(51,255,255,1)" stroke-width="2" fill-opacity="1" fill="#33ffff"></path><g id="SvgjsG1212"><text id="SvgjsText1213" font-family="微软雅黑" text-anchor="middle" font-size="13px" width="32px" fill="#323232" font-weight="400" align="middle" anchor="middle" family="微软雅黑" size="13px" weight="400" font-style="" opacity="1" y="5.55" transform="rotate(0)"><tspan id="SvgjsTspan1214" dy="16" x="26"><tspan id="SvgjsTspan1215" style="text-decoration:;">链接</tspan></tspan></text></g></g><g id="SvgjsG1216" transform="translate(209,366)"><path id="SvgjsPath1217" d="M 0 0L 52 0L 52 31L 0 31Z" stroke="rgba(51,255,255,1)" stroke-width="2" fill-opacity="1" fill="#33ffff"></path><g id="SvgjsG1218"><text id="SvgjsText1219" font-family="微软雅黑" text-anchor="middle" font-size="13px" width="32px" fill="#323232" font-weight="400" align="middle" anchor="middle" family="微软雅黑" size="13px" weight="400" font-style="" opacity="1" y="5.55" transform="rotate(0)"><tspan id="SvgjsTspan1220" dy="16" x="26"><tspan id="SvgjsTspan1221" style="text-decoration:;">链接</tspan></tspan></text></g></g><g id="SvgjsG1222"><path id="SvgjsPath1223" d="M516 290.5C 595.9372253709122 290.5 545.0627746290878 123 627 119" stroke="#323232" stroke-width="2" fill="none" marker-end="url(#SvgjsMarker1224)"></path></g><g id="SvgjsG1226"><path id="SvgjsPath1227" d="M516 290.5C 560.8 290.5 583.2 290.5 627 291" stroke="#323232" stroke-width="2" fill="none" marker-end="url(#SvgjsMarker1228)"></path></g><g id="SvgjsG1230"><path id="SvgjsPath1231" d="M516 290.5C 597.9328993750373 290.5 546.0671006249627 462 627 462" stroke="#323232" stroke-width="2" fill="none" marker-end="url(#SvgjsMarker1232)"></path></g><g id="SvgjsG1234" transform="translate(306.5,107.5)"><path id="SvgjsPath1235" d="M 0 0L 123 0L 123 27.5L 0 27.5Z" stroke="rgba(51,255,255,1)" stroke-width="2" fill-opacity="1" fill="#33ffff"></path><g id="SvgjsG1236"><text id="SvgjsText1237" font-family="微软雅黑" text-anchor="middle" font-size="13px" width="103px" fill="#323232" font-weight="400" align="middle" anchor="middle" family="微软雅黑" size="13px" weight="400" font-style="" opacity="1" y="3.8" transform="rotate(0)"><tspan id="SvgjsTspan1238" dy="16" x="61.5"><tspan id="SvgjsTspan1239" style="text-decoration:;">线程池控制写</tspan></tspan></text></g></g><g id="SvgjsG1240"><path id="SvgjsPath1241" d="M436.5 207C 436.5 77.52336118048166 254.47663881951837 118.99999999999997 125 119" stroke-dasharray="3,3" stroke="#000000" stroke-width="1" fill="none" marker-end="url(#SvgjsMarker1242)"></path></g><g id="SvgjsG1244"><path id="SvgjsPath1245" d="M125 462C 254.47663881951837 462 436.5 503.47663881951837 436.5 374" stroke-dasharray="3,3" stroke="#323232" stroke-width="1" fill="none" marker-start="url(#SvgjsMarker1246)"></path></g><g id="SvgjsG1248"><path id="SvgjsPath1249" d="M125 291C 224.31577058194466 291 342.10129378019224 470.8373253594565 359.3472963553338 373.0303844939756" stroke-dasharray="3,3" stroke="#323232" stroke-width="1" fill="none" marker-start="url(#SvgjsMarker1250)"></path></g><g id="SvgjsG1252" transform="translate(551,272.5)"><path id="SvgjsPath1253" d="M 0 0L 60 0L 60 31L 0 31Z" stroke="rgba(51,255,255,1)" stroke-width="2" fill-opacity="1" fill="#33ffff"></path><g id="SvgjsG1254"><text id="SvgjsText1255" font-family="微软雅黑" text-anchor="middle" font-size="13px" width="40px" fill="#323232" font-weight="400" align="middle" anchor="middle" family="微软雅黑" size="13px" weight="400" font-style="" opacity="1" y="5.55" transform="rotate(0)"><tspan id="SvgjsTspan1256" dy="16" x="30"><tspan id="SvgjsTspan1257" style="text-decoration:;">分配读</tspan></tspan></text></g></g><g id="SvgjsG1258" transform="translate(541,389.5)"><path id="SvgjsPath1259" d="M 0 0L 60 0L 60 31L 0 31Z" stroke="rgba(51,255,255,1)" stroke-width="2" fill-opacity="1" fill="#33ffff"></path><g id="SvgjsG1260"><text id="SvgjsText1261" font-family="微软雅黑" text-anchor="middle" font-size="13px" width="40px" fill="#323232" font-weight="400" align="middle" anchor="middle" family="微软雅黑" size="13px" weight="400" font-style="" opacity="1" y="5.55" transform="rotate(0)"><tspan id="SvgjsTspan1262" dy="16" x="30"><tspan id="SvgjsTspan1263" style="text-decoration:;">分配读</tspan></tspan></text></g></g><g id="SvgjsG1264" transform="translate(285.5,391.25)"><path id="SvgjsPath1265" d="M 0 0L 123 0L 123 27.5L 0 27.5Z" stroke="rgba(51,255,255,1)" stroke-width="2" fill-opacity="1" fill="#33ffff"></path><g id="SvgjsG1266"><text id="SvgjsText1267" font-family="微软雅黑" text-anchor="middle" font-size="13px" width="103px" fill="#323232" font-weight="400" align="middle" anchor="middle" family="微软雅黑" size="13px" weight="400" font-style="" opacity="1" y="3.8" transform="rotate(0)"><tspan id="SvgjsTspan1268" dy="16" x="61.5"><tspan id="SvgjsTspan1269" style="text-decoration:;">线程池控制写</tspan></tspan></text></g></g><g id="SvgjsG1270" transform="translate(285.5,458.5)"><path id="SvgjsPath1271" d="M 0 0L 123 0L 123 27.5L 0 27.5Z" stroke="rgba(51,255,255,1)" stroke-width="2" fill-opacity="1" fill="#33ffff"></path><g id="SvgjsG1272"><text id="SvgjsText1273" font-family="微软雅黑" text-anchor="middle" font-size="13px" width="103px" fill="#323232" font-weight="400" align="middle" anchor="middle" family="微软雅黑" size="13px" weight="400" font-style="" opacity="1" y="3.8" transform="rotate(0)"><tspan id="SvgjsTspan1274" dy="16" x="61.5"><tspan id="SvgjsTspan1275" style="text-decoration:;">线程池控制写</tspan></tspan></text></g></g></svg>