<svg id="SvgjsSvg1102" width="866" height="370.5" xmlns="http://www.w3.org/2000/svg" version="1.1" xmlns:xlink="http://www.w3.org/1999/xlink" xmlns:svgjs="http://svgjs.com/svgjs"><defs id="SvgjsDefs1103"></defs><g id="SvgjsG1104" transform="translate(295,129.5)"><path id="SvgjsPath1105" d="M 0 0L 455 0L 455 137L 0 137Z" stroke="rgba(50,50,50,1)" stroke-width="2" fill-opacity="1" fill="#ffffff"></path><g id="SvgjsG1106"><text id="SvgjsText1107" font-family="微软雅黑" text-anchor="middle" font-size="13px" width="435px" fill="#323232" font-weight="400" align="middle" anchor="middle" family="微软雅黑" size="13px" weight="400" font-style="" opacity="1" y="58.55" transform="rotate(0)"></text></g></g><g id="SvgjsG1108" transform="translate(25,158.5)"><path id="SvgjsPath1109" d="M 0 0L 91 0L 91 62L 0 62Z" stroke="rgba(102,255,102,1)" stroke-width="2" fill-opacity="1" fill="#66ff66"></path><g id="SvgjsG1110"><text id="SvgjsText1111" font-family="微软雅黑" text-anchor="middle" font-size="13px" width="71px" fill="#323232" font-weight="400" align="middle" anchor="middle" family="微软雅黑" size="13px" weight="400" font-style="" opacity="1" y="21.05" transform="rotate(0)"><tspan id="SvgjsTspan1112" dy="16" x="45.5"><tspan id="SvgjsTspan1113" style="text-decoration:;">已确认数据</tspan></tspan></text></g></g><g id="SvgjsG1114" transform="translate(113,158.5)"><path id="SvgjsPath1115" d="M 0 0L 91 0L 91 62L 0 62Z" stroke="rgba(102,255,102,1)" stroke-width="2" fill-opacity="1" fill="#66ff66"></path><g id="SvgjsG1116"><text id="SvgjsText1117" font-family="微软雅黑" text-anchor="middle" font-size="13px" width="71px" fill="#323232" font-weight="400" align="middle" anchor="middle" family="微软雅黑" size="13px" weight="400" font-style="" opacity="1" y="21.05" transform="rotate(0)"><tspan id="SvgjsTspan1118" dy="16" x="45.5"><tspan id="SvgjsTspan1119" style="text-decoration:;">已确认数据</tspan></tspan></text></g></g><g id="SvgjsG1120" transform="translate(204,158.5)"><path id="SvgjsPath1121" d="M 0 0L 91 0L 91 62L 0 62Z" stroke="rgba(102,255,102,1)" stroke-width="2" fill-opacity="1" fill="#66ff66"></path><g id="SvgjsG1122"><text id="SvgjsText1123" font-family="微软雅黑" text-anchor="middle" font-size="13px" width="71px" fill="#323232" font-weight="400" align="middle" anchor="middle" family="微软雅黑" size="13px" weight="400" font-style="" opacity="1" y="13.05" transform="rotate(0)"><tspan id="SvgjsTspan1124" dy="16" x="45.5"><tspan id="SvgjsTspan1125" style="text-decoration:;">已发送数据</tspan></tspan><tspan id="SvgjsTspan1126" dy="16" x="45.5"><tspan id="SvgjsTspan1127" style="text-decoration:;">为确认数据</tspan></tspan></text></g></g><g id="SvgjsG1128" transform="translate(295,158.5)"><path id="SvgjsPath1129" d="M 0 0L 91 0L 91 62L 0 62Z" stroke="rgba(255,255,102,1)" stroke-width="2" fill-opacity="1" fill="#ffff66"></path><g id="SvgjsG1130"><text id="SvgjsText1131" font-family="微软雅黑" text-anchor="middle" font-size="13px" width="71px" fill="#323232" font-weight="400" align="middle" anchor="middle" family="微软雅黑" size="13px" weight="400" font-style="" opacity="1" y="13.05" transform="rotate(0)"><tspan id="SvgjsTspan1132" dy="16" x="45.5"><tspan id="SvgjsTspan1133" style="text-decoration:;">已发送数据</tspan></tspan><tspan id="SvgjsTspan1134" dy="16" x="45.5"><tspan id="SvgjsTspan1135" style="text-decoration:;">为确认数据</tspan></tspan></text></g></g><g id="SvgjsG1136" transform="translate(386,158.5)"><path id="SvgjsPath1137" d="M 0 0L 91 0L 91 62L 0 62Z" stroke="rgba(255,255,102,1)" stroke-width="2" fill-opacity="1" fill="#ffff66"></path><g id="SvgjsG1138"><text id="SvgjsText1139" font-family="微软雅黑" text-anchor="middle" font-size="13px" width="71px" fill="#323232" font-weight="400" align="middle" anchor="middle" family="微软雅黑" size="13px" weight="400" font-style="" opacity="1" y="13.05" transform="rotate(0)"><tspan id="SvgjsTspan1140" dy="16" x="45.5"><tspan id="SvgjsTspan1141" style="text-decoration:;">已发送数据</tspan></tspan><tspan id="SvgjsTspan1142" dy="16" x="45.5"><tspan id="SvgjsTspan1143" style="text-decoration:;">为确认数据</tspan></tspan></text></g></g><g id="SvgjsG1144" transform="translate(477,158.5)"><path id="SvgjsPath1145" d="M 0 0L 91 0L 91 62L 0 62Z" stroke="rgba(255,255,102,1)" stroke-width="2" fill-opacity="1" fill="#ffff66"></path><g id="SvgjsG1146"><text id="SvgjsText1147" font-family="微软雅黑" text-anchor="middle" font-size="13px" width="71px" fill="#323232" font-weight="400" align="middle" anchor="middle" family="微软雅黑" size="13px" weight="400" font-style="" opacity="1" y="21.05" transform="rotate(0)"><tspan id="SvgjsTspan1148" dy="16" x="45.5"><tspan id="SvgjsTspan1149" style="text-decoration:;">未发送数据</tspan></tspan></text></g></g><g id="SvgjsG1150" transform="translate(568,158.5)"><path id="SvgjsPath1151" d="M 0 0L 91 0L 91 62L 0 62Z" stroke="rgba(255,255,102,1)" stroke-width="2" fill-opacity="1" fill="#ffff66"></path><g id="SvgjsG1152"><text id="SvgjsText1153" font-family="微软雅黑" text-anchor="middle" font-size="13px" width="71px" fill="#323232" font-weight="400" align="middle" anchor="middle" family="微软雅黑" size="13px" weight="400" font-style="" opacity="1" y="21.05" transform="rotate(0)"><tspan id="SvgjsTspan1154" dy="16" x="45.5"><tspan id="SvgjsTspan1155" style="text-decoration:;">未发送数据</tspan></tspan></text></g></g><g id="SvgjsG1156" transform="translate(659,158.5)"><path id="SvgjsPath1157" d="M 0 0L 91 0L 91 62L 0 62Z" stroke="rgba(255,102,102,1)" stroke-width="2" fill-opacity="1" fill="#ff6666"></path><g id="SvgjsG1158"><text id="SvgjsText1159" font-family="微软雅黑" text-anchor="middle" font-size="13px" width="71px" fill="#323232" font-weight="400" align="middle" anchor="middle" family="微软雅黑" size="13px" weight="400" font-style="" opacity="1" y="21.05" transform="rotate(0)"><tspan id="SvgjsTspan1160" dy="16" x="45.5"><tspan id="SvgjsTspan1161" style="text-decoration:;">未发送数据</tspan></tspan></text></g></g><g id="SvgjsG1162" transform="translate(750,158.5)"><path id="SvgjsPath1163" d="M 0 0L 91 0L 91 62L 0 62Z" stroke="rgba(255,102,102,1)" stroke-width="2" fill-opacity="1" fill="#ff6666"></path><g id="SvgjsG1164"><text id="SvgjsText1165" font-family="微软雅黑" text-anchor="middle" font-size="13px" width="71px" fill="#323232" font-weight="400" align="middle" anchor="middle" family="微软雅黑" size="13px" weight="400" font-style="" opacity="1" y="21.05" transform="rotate(0)"><tspan id="SvgjsTspan1166" dy="16" x="45.5"><tspan id="SvgjsTspan1167" style="text-decoration:;">未发送数据</tspan></tspan></text></g></g><g id="SvgjsG1168" transform="translate(340,305.5)"><path id="SvgjsPath1169" d="M 0 0L 120 0L 120 40L 0 40Z" stroke="none" fill="none"></path><g id="SvgjsG1170"><text id="SvgjsText1171" font-family="微软雅黑" text-anchor="middle" font-size="13px" width="120px" fill="#323232" font-weight="400" align="middle" anchor="middle" family="微软雅黑" size="13px" weight="400" font-style="" opacity="1" y="10.05" transform="rotate(0)"><tspan id="SvgjsTspan1172" dy="16" x="60"><tspan id="SvgjsTspan1173" style="text-decoration:;">内核中的数据</tspan></tspan></text></g></g><g id="SvgjsG1174" transform="matrix(6.123233995736766e-17,1,-1,6.123233995736766e-17,290,51.500000000000064)"><path id="SvgjsPath1175" d="M 106.99999999999991 0Q 97.99999999999991 0 97.99999999999991 9L 97.99999999999991 122.50000000000003Q 97.99999999999991 131.50000000000003 84.99999999999991 131.50000000000003Q 97.99999999999991 131.50000000000003 97.99999999999991 140.50000000000003L 97.99999999999991 254.00000000000006Q 97.99999999999991 263.00000000000006 106.99999999999991 263.00000000000006" stroke="rgba(50,50,50,1)" stroke-width="2" fill="none"></path><path id="SvgjsPath1176" d="M 0 0L 106.99999999999991 0L 106.99999999999991 263.00000000000006L 0 263.00000000000006Z" stroke="none" fill="none"></path><g id="SvgjsG1177"><text id="SvgjsText1178" font-family="微软雅黑" text-anchor="end" font-size="13px" width="80px" fill="#323232" font-weight="400" align="middle" anchor="end" family="微软雅黑" size="13px" weight="400" font-style="" opacity="1" y="121.55000000000003" transform="rotate(0)"></text></g></g><g id="SvgjsG1179" transform="translate(37,77.5)"><path id="SvgjsPath1180" d="M 0 0L 120 0L 120 40L 0 40Z" stroke="none" fill="none"></path><g id="SvgjsG1181"><text id="SvgjsText1182" font-family="微软雅黑" text-anchor="middle" font-size="13px" width="120px" fill="#323232" font-weight="400" align="middle" anchor="middle" family="微软雅黑" size="13px" weight="400" font-style="" opacity="1" y="2.05" transform="rotate(0)"><tspan id="SvgjsTspan1183" dy="16" x="60"><tspan id="SvgjsTspan1184" style="text-decoration:;">这部分数据，会逐渐</tspan></tspan><tspan id="SvgjsTspan1185" dy="16" x="60"><tspan id="SvgjsTspan1186" style="text-decoration:;">淘汰掉</tspan></tspan></text></g></g><g id="SvgjsG1187" transform="matrix(6.123233995736766e-17,1,-1,6.123233995736766e-17,747.25,24.999999999999986)"><path id="SvgjsPath1188" d="M 95.5 0Q 86.5 0 86.5 9L 86.5 215.75Q 86.5 224.75 73.5 224.75Q 86.5 224.75 86.5 233.75L 86.5 440.5Q 86.5 449.5 95.5 449.5" stroke="rgba(50,50,50,1)" stroke-width="2" fill="none"></path><path id="SvgjsPath1189" d="M 0 0L 95.5 0L 95.5 449.5L 0 449.5Z" stroke="none" fill="none"></path><g id="SvgjsG1190"><text id="SvgjsText1191" font-family="微软雅黑" text-anchor="end" font-size="13px" width="69px" fill="#323232" font-weight="400" align="middle" anchor="end" family="微软雅黑" size="13px" weight="400" font-style="" opacity="1" y="214.8" transform="rotate(0)"></text></g></g><g id="SvgjsG1192" transform="translate(352,37.5)"><path id="SvgjsPath1193" d="M 0 0L 120 0L 120 40L 0 40Z" stroke="none" fill="none"></path><g id="SvgjsG1194"><text id="SvgjsText1195" font-family="微软雅黑" text-anchor="middle" font-size="13px" width="120px" fill="#323232" font-weight="400" align="middle" anchor="middle" family="微软雅黑" size="13px" weight="400" font-style="" opacity="1" y="10.05" transform="rotate(0)"><tspan id="SvgjsTspan1196" dy="16" x="60"><tspan id="SvgjsTspan1197" style="text-decoration:;">窗口大小</tspan></tspan></text></g></g></svg>