<svg id="SvgjsSvg1006" width="970.5" height="484" xmlns="http://www.w3.org/2000/svg" version="1.1" xmlns:xlink="http://www.w3.org/1999/xlink" xmlns:svgjs="http://svgjs.com/svgjs"><defs id="SvgjsDefs1007"><pattern id="SvgjsPattern1010" x="0" y="0" width="40" height="76" patternUnits="userSpaceOnUse"><image id="SvgjsImage1011" xlink:href="https://www.processon.com/assets/images/designer/network/iphone.svg" width="40" height="76" preserveAspectRatio="none" crossOrigin="anonymous" x="0" y="0"></image></pattern><pattern id="SvgjsPattern1016" x="0" y="0" width="76" height="43" patternUnits="userSpaceOnUse"><image id="SvgjsImage1017" xlink:href="https://www.processon.com/assets/images/designer/network/macbook.svg" width="76" height="43" preserveAspectRatio="none" crossOrigin="anonymous" x="0" y="0"></image></pattern><pattern id="SvgjsPattern1022" x="0" y="0" width="80" height="58" patternUnits="userSpaceOnUse"><image id="SvgjsImage1023" xlink:href="https://www.processon.com/assets/images/designer/network/accessPoint.svg" width="80" height="58" preserveAspectRatio="none" crossOrigin="anonymous" x="0" y="0"></image></pattern><pattern id="SvgjsPattern1030" x="0" y="0" width="76" height="48" patternUnits="userSpaceOnUse"><image id="SvgjsImage1031" xlink:href="https://www.processon.com/assets/images/designer/network/cloud.svg" width="76" height="48" preserveAspectRatio="none" crossOrigin="anonymous" x="0" y="0"></image></pattern><pattern id="SvgjsPattern1038" x="0" y="0" width="80" height="24" patternUnits="userSpaceOnUse"><image id="SvgjsImage1039" xlink:href="https://www.processon.com/assets/images/designer/network/adsl.svg" width="80" height="24" preserveAspectRatio="none" crossOrigin="anonymous" x="0" y="0"></image></pattern><marker id="SvgjsMarker1046" markerWidth="16" markerHeight="12" refX="16" refY="6" viewBox="0 0 16 12" orient="auto" markerUnits="userSpaceOnUse" stroke-dasharray="0,0"><path id="SvgjsPath1047" d="M0,2 L14,6 L0,11 L0,2" fill="#323232" stroke="#323232" stroke-width="2"></path></marker><marker id="SvgjsMarker1050" markerWidth="16" markerHeight="12" refX="16" refY="6" viewBox="0 0 16 12" orient="auto" markerUnits="userSpaceOnUse" stroke-dasharray="0,0"><path id="SvgjsPath1051" d="M0,2 L14,6 L0,11 L0,2" fill="#323232" stroke="#323232" stroke-width="2"></path></marker><marker id="SvgjsMarker1054" markerWidth="16" markerHeight="12" refX="16" refY="6" viewBox="0 0 16 12" orient="auto" markerUnits="userSpaceOnUse" stroke-dasharray="0,0"><path id="SvgjsPath1055" d="M0,2 L14,6 L0,11 L0,2" fill="#323232" stroke="#323232" stroke-width="2"></path></marker><pattern id="SvgjsPattern1058" x="0" y="0" width="75" height="75" patternUnits="userSpaceOnUse"><image id="SvgjsImage1059" xlink:href="https://www.processon.com/assets/images/designer/network/globe.svg" width="75" height="75" preserveAspectRatio="none" crossOrigin="anonymous" x="0" y="0"></image></pattern><marker id="SvgjsMarker1066" markerWidth="16" markerHeight="12" refX="16" refY="6" viewBox="0 0 16 12" orient="auto" markerUnits="userSpaceOnUse" stroke-dasharray="0,0"><path id="SvgjsPath1067" d="M0,2 L14,6 L0,11 L0,2" fill="#323232" stroke="#323232" stroke-width="2"></path></marker><marker id="SvgjsMarker1070" markerWidth="16" markerHeight="12" refX="16" refY="6" viewBox="0 0 16 12" orient="auto" markerUnits="userSpaceOnUse" stroke-dasharray="0,0"><path id="SvgjsPath1071" d="M0,2 L14,6 L0,11 L0,2" fill="#323232" stroke="#323232" stroke-width="2"></path></marker><pattern id="SvgjsPattern1074" x="0" y="0" width="80" height="24" patternUnits="userSpaceOnUse"><image id="SvgjsImage1075" xlink:href="https://www.processon.com/assets/images/designer/network/adsl.svg" width="80" height="24" preserveAspectRatio="none" crossOrigin="anonymous" x="0" y="0"></image></pattern><marker id="SvgjsMarker1082" markerWidth="16" markerHeight="12" refX="16" refY="6" viewBox="0 0 16 12" orient="auto" markerUnits="userSpaceOnUse" stroke-dasharray="0,0"><path id="SvgjsPath1083" d="M0,2 L14,6 L0,11 L0,2" fill="#323232" stroke="#323232" stroke-width="2"></path></marker></defs><g id="SvgjsG1008" transform="translate(108,87)"><path id="SvgjsPath1009" d="M 0 0L 40 0L 40 76L 0 76Z" stroke="none" fill="url(#SvgjsPattern1010)"></path><g id="SvgjsG1012"><text id="SvgjsText1013" font-family="微软雅黑" text-anchor="middle" font-size="13px" width="80px" fill="#323232" font-weight="400" align="middle" anchor="middle" family="微软雅黑" size="13px" weight="400" font-style="" opacity="1" y="81.05" transform="rotate(0)"></text></g></g><g id="SvgjsG1014" transform="translate(99,318.5)"><path id="SvgjsPath1015" d="M 0 0L 76 0L 76 43L 0 43Z" stroke="none" fill="url(#SvgjsPattern1016)"></path><g id="SvgjsG1018"><text id="SvgjsText1019" font-family="微软雅黑" text-anchor="middle" font-size="13px" width="116px" fill="#323232" font-weight="400" align="middle" anchor="middle" family="微软雅黑" size="13px" weight="400" font-style="" opacity="1" y="48.05" transform="rotate(0)"></text></g></g><g id="SvgjsG1020" transform="translate(262,170)"><path id="SvgjsPath1021" d="M 0 0L 80 0L 80 58L 0 58Z" stroke="none" fill="url(#SvgjsPattern1022)"></path><g id="SvgjsG1024"><text id="SvgjsText1025" font-family="微软雅黑" text-anchor="middle" font-size="13px" width="120px" fill="#323232" font-weight="400" align="middle" anchor="middle" family="微软雅黑" size="13px" weight="400" font-style="" opacity="1" y="63.05" transform="rotate(0)"><tspan id="SvgjsTspan1026" dy="16" x="40"><tspan id="SvgjsTspan1027" style="text-decoration:;">无线路由器</tspan></tspan></text></g></g><g id="SvgjsG1028" transform="translate(671,197)"><path id="SvgjsPath1029" d="M 0 0L 76 0L 76 48L 0 48Z" stroke="none" fill="url(#SvgjsPattern1030)"></path><g id="SvgjsG1032"><text id="SvgjsText1033" font-family="微软雅黑" text-anchor="middle" font-size="13px" width="116px" fill="#323232" font-weight="400" align="middle" anchor="middle" family="微软雅黑" size="13px" weight="400" font-style="" opacity="1" y="53.05" transform="rotate(0)"><tspan id="SvgjsTspan1034" dy="16" x="38"><tspan id="SvgjsTspan1035" style="text-decoration:;">小区运营商网络</tspan></tspan></text></g></g><g id="SvgjsG1036" transform="translate(485,204)"><path id="SvgjsPath1037" d="M 0 0L 80 0L 80 24L 0 24Z" stroke="none" fill="url(#SvgjsPattern1038)"></path><g id="SvgjsG1040"><text id="SvgjsText1041" font-family="微软雅黑" text-anchor="middle" font-size="13px" width="120px" fill="#323232" font-weight="400" align="middle" anchor="middle" family="微软雅黑" size="13px" weight="400" font-style="" opacity="1" y="29.05" transform="rotate(0)"><tspan id="SvgjsTspan1042" dy="16" x="40"><tspan id="SvgjsTspan1043" style="text-decoration:;">光猫</tspan></tspan></text></g></g><g id="SvgjsG1044"><path id="SvgjsPath1045" d="M148 125L302 125L302 170" stroke="#323232" stroke-width="2" fill="none" marker-end="url(#SvgjsMarker1046)"></path></g><g id="SvgjsG1048"><path id="SvgjsPath1049" d="M175 340L218.8977774788672 340L218.8977774788672 219.44708572938487L262.7955549577344 219.44708572938487" stroke="#323232" stroke-width="2" fill="none" marker-end="url(#SvgjsMarker1050)"></path></g><g id="SvgjsG1052"><path id="SvgjsPath1053" d="M340 218C 398.0055169789909 218 426.9944830210091 216 485 216" stroke="#323232" stroke-width="2" fill="none" marker-end="url(#SvgjsMarker1054)"></path></g><g id="SvgjsG1056" transform="translate(870.5,183.5)"><path id="SvgjsPath1057" d="M 0 0L 75 0L 75 75L 0 75Z" stroke="none" fill="url(#SvgjsPattern1058)"></path><g id="SvgjsG1060"><text id="SvgjsText1061" font-family="微软雅黑" text-anchor="middle" font-size="13px" width="115px" fill="#323232" font-weight="400" align="middle" anchor="middle" family="微软雅黑" size="13px" weight="400" font-style="" opacity="1" y="80.05" transform="rotate(0)"><tspan id="SvgjsTspan1062" dy="16" x="37.5"><tspan id="SvgjsTspan1063" style="text-decoration:;">互联网</tspan></tspan></text></g></g><g id="SvgjsG1064"><path id="SvgjsPath1065" d="M565 216C 607.4471436023674 216 628.5528563976326 221 671 221" stroke="#323232" stroke-width="2" fill="none" marker-end="url(#SvgjsMarker1066)"></path></g><g id="SvgjsG1068"><path id="SvgjsPath1069" d="M747 221C 796.4 221 821.1 221 870.5 221" stroke="#323232" stroke-width="2" fill="none" marker-end="url(#SvgjsMarker1070)"></path></g><g id="SvgjsG1072" transform="translate(485,358)"><path id="SvgjsPath1073" d="M 0 0L 80 0L 80 24L 0 24Z" stroke="none" fill="url(#SvgjsPattern1074)"></path><g id="SvgjsG1076"><text id="SvgjsText1077" font-family="微软雅黑" text-anchor="middle" font-size="13px" width="120px" fill="#323232" font-weight="400" align="middle" anchor="middle" family="微软雅黑" size="13px" weight="400" font-style="" opacity="1" y="29.05" transform="rotate(0)"><tspan id="SvgjsTspan1078" dy="16" x="40"><tspan id="SvgjsTspan1079" style="text-decoration:;">小区 1</tspan></tspan></text></g></g><g id="SvgjsG1080"><path id="SvgjsPath1081" d="M525 358C 525 271.62870847324325 709 331.37129152675675 709 245" stroke="#323232" stroke-width="2" fill="none" marker-end="url(#SvgjsMarker1082)"></path></g><g id="SvgjsG1084" transform="translate(25,25)"><path id="SvgjsPath1085" d="M 0 0L 198 0L 198 62L 0 62Z" stroke="none" fill="none"></path><g id="SvgjsG1086"><text id="SvgjsText1087" font-family="微软雅黑" text-anchor="middle" font-size="13px" width="198px" fill="#323232" font-weight="400" align="middle" anchor="middle" family="微软雅黑" size="13px" weight="400" font-style="" opacity="1" y="5.05" transform="rotate(0)"><tspan id="SvgjsTspan1088" dy="16" x="99"><tspan id="SvgjsTspan1089" style="text-decoration:;">IP：192.168.31.178</tspan></tspan><tspan id="SvgjsTspan1090" dy="16" x="99"><tspan id="SvgjsTspan1091" style="text-decoration:;">          子网掩码：255.255.255.0</tspan></tspan><tspan id="SvgjsTspan1092" dy="16" x="99"><tspan id="SvgjsTspan1093" style="text-decoration:;">网关：192.168.31.1</tspan></tspan></text></g></g><g id="SvgjsG1094" transform="translate(38,397)"><path id="SvgjsPath1095" d="M 0 0L 198 0L 198 62L 0 62Z" stroke="none" fill="none"></path><g id="SvgjsG1096"><text id="SvgjsText1097" font-family="微软雅黑" text-anchor="middle" font-size="13px" width="198px" fill="#323232" font-weight="400" align="middle" anchor="middle" family="微软雅黑" size="13px" weight="400" font-style="" opacity="1" y="5.05" transform="rotate(0)"><tspan id="SvgjsTspan1098" dy="16" x="99"><tspan id="SvgjsTspan1099" style="text-decoration:;">IP：192.168.31.80</tspan></tspan><tspan id="SvgjsTspan1100" dy="16" x="99"><tspan id="SvgjsTspan1101" style="text-decoration:;">          子网掩码：255.255.255.0</tspan></tspan><tspan id="SvgjsTspan1102" dy="16" x="99"><tspan id="SvgjsTspan1103" style="text-decoration:;">网关：192.168.31.1</tspan></tspan></text></g></g><g id="SvgjsG1104" transform="translate(209,242)"><path id="SvgjsPath1105" d="M 0 0L 120 0L 120 40L 0 40Z" stroke="none" fill="none"></path><g id="SvgjsG1106"><text id="SvgjsText1107" font-family="微软雅黑" text-anchor="middle" font-size="13px" width="120px" fill="#323232" font-weight="400" align="middle" anchor="middle" family="微软雅黑" size="13px" weight="400" font-style="" opacity="1" y="10.05" transform="rotate(0)"><tspan id="SvgjsTspan1108" dy="16" x="60"><tspan id="SvgjsTspan1109" style="text-decoration:;">ip:192.168.31.1</tspan></tspan></text></g></g><g id="SvgjsG1110" transform="translate(342,157)"><path id="SvgjsPath1111" d="M 0 0L 120 0L 120 40L 0 40Z" stroke="none" fill="none"></path><g id="SvgjsG1112"><text id="SvgjsText1113" font-family="微软雅黑" text-anchor="middle" font-size="13px" width="120px" fill="#323232" font-weight="400" align="middle" anchor="middle" family="微软雅黑" size="13px" weight="400" font-style="" opacity="1" y="10.05" transform="rotate(0)"><tspan id="SvgjsTspan1114" dy="16" x="60"><tspan id="SvgjsTspan1115" style="text-decoration:;">ip:192.168.x.x</tspan></tspan></text></g></g></svg>